<?xml version="1.0" encoding="UTF-8"?>
<svg id="Layer_1" data-name="Layer 1" xmlns="http://www.w3.org/2000/svg" viewBox="0 0 507.47 495.65">
  <defs>
    <style>
      .cls-1 {
        stroke: #f99e1c;
      }

      .cls-1, .cls-2, .cls-3 {
        stroke-width: 5px;
      }

      .cls-1, .cls-2, .cls-3, .cls-4, .cls-5 {
        stroke-miterlimit: 10;
      }

      .cls-1, .cls-2, .cls-4 {
        fill: #fff;
      }

      .cls-2 {
        stroke: #416db5;
      }

      .cls-3 {
        fill: #fcd693;
        stroke: #fcd693;
      }

      .cls-6 {
        fill: #231f20;
      }

      .cls-4 {
        stroke: #231f20;
      }

      .cls-4, .cls-5 {
        stroke-width: 4px;
      }

      .cls-5 {
        fill: #9cc5e9;
        stroke: #9fc9eb;
      }
    </style>
  </defs>
  <line class="cls-4" x1="31.32" y1="493.4" x2="31.32" y2="61.6"/>
  <line class="cls-4" x1="31.32" y1="493.4" x2="31.32" y2="61.6"/>
  <line class="cls-4" x1="11.42" y1="473.5" x2="443.22" y2="473.5"/>
  <path class="cls-6" d="m37.9,71.28c-1.01-2.66-1.15-4.42-1.32-5.84-.65-4.71.16-10.23-.55-14.65-.85-2.3-4.45-1.85-4.75.58-.96,3.93-3.71,7.08-6.76,10.68-1.81,2.04-3.86,3.83-5.87,5.66-.46.46-.74,1.11-.73,1.77-.07,2.15,2.79,3.34,4.27,1.77,3.32-2.92,6.5-6.09,9.16-9.63.05,1.72.16,3.44.39,5.16.41,2.75,1.6,11.19,5.83,9.05,1.79-1.08,1.28-3.05.34-4.54Z"/>
  <path class="cls-6" d="m450.42,465.93c-2.91-1.24-5.87-2.33-8.82-3.43-3.18-.81-4.47,3.88-1.33,4.82,1.85.68,4.17,1.56,6.16,2.35-2.29,1.2-4.4,2.78-6.26,4.5-1.68,1.74-3.1,3.73-4.53,5.67-1.39,1.54-1.31,3.93.88,4.62,1.68.49,2.73-.85,3.47-2.14,1.67-2.23,1.36-1.97,3.28-4.16,2.22-2.31,3.82-3.18,7.42-5,1.26-.44,2.66-.51,3.62-1.56,2.45-2.89-1.55-4.84-3.89-5.66Z"/>
  <path class="cls-6" d="m493.01,486.84c-.76-.76-2.07-.78-2.83,0-.26.29-.53.58-.83.83-.37.21-2.13,1.31-2.55,1.54-.08.04-.16.09-.24.13-.05.02-.09.04-.12.05-.02,0-.05.02-.07.03-.36.14-.74.25-1.12.32-.02,0-.03,0-.05,0-.15,0-.31-.01-.43-.02-.19-.03-.38-.08-.56-.14-.04-.02-.09-.04-.13-.07-.06-.06-.11-.11-.15-.15-.05-.07-.1-.15-.14-.22,0-3.77,3.25-13.35,3.38-20.08-.2-2.73.27-6.05-1.92-8.11-2.54-2.01-6.79-2.15-8.95.5-2.09,2.67-4.42,5.48-4.45,9.03.05,2.63,3.95,2.62,4,0,.28-1.65-.15-.95.87-2.8,1.45-2.03,1.74-2.83,2.95-3.95.11-.08.23-.15.35-.21.03,0,.06-.02.1-.03.09-.02.15-.03.2-.04,0,0,0,0,0,0,.13,0,.26-.01.39,0,1.22.16.94-.02,1.89.51.06.1.12.2.17.31,0,0,0,0,0,.02.77,3.55.43,8.29-.86,12.85-.63,3.18-1.35,6.35-1.86,9.55-.05,1.31-.53,1.46-.12,3.59,1.23,3.75,5.85,4.21,8.89,2.38,1.86-1.22,6.34-3.09,4.19-5.83Z"/>
  <path class="cls-6" d="m491.94,462.37c-5.88,6.57-14.04,15.26-19.98,20.88-.94.23-1.59,1.13-2.34,1.72-.57.61-1.26,1.21-1.61,1.97-.52,1.04.18,2.42,1.3,2.7,1.83.38,3.32-1.77,4.67-2.77,3.15-2.91,6.09-6.04,9.08-9.11,4.12-4.31,8.43-8.56,12.13-13.21.92-1.94-1.76-3.73-3.24-2.18Z"/>
  <path class="cls-6" d="m507.41,491.96c-.09-2.51-.18-5.02-.34-7.53,0-.53-.22-1.04-.59-1.41-1.17-1.26-3.47-.31-3.41,1.41.33,3.31.06,6.75.57,10.01.44,1.3,2.32,1.63,3.24.64.85-.83.52-2.06.53-3.12Z"/>
  <path class="cls-6" d="m22.7,29.19c-.77.66-2.47,1.82-3.3,2.13-.08-.12-.15-.24-.21-.37-.03-.09-.06-.2-.09-.31-.06-1.03.01-2.06.03-3.09.07-3.02.37-6.04.52-9.06.22-2.91.74-5.93-.21-8.77-1.38-5.23-7.23-5.4-11.32-3.28C4.59,8.59,1.25,11.93.07,15.96c-.65,2.55,3.11,3.57,3.86,1.06.63-1.69.4-1.45,1.09-2.37,1.98-2.44,3.16-3.7,5.19-4.8,1.22-.71,3.77-.9,4.7-.31,0,0,0,0,0,0,.02.02.03.04.05.06,1.25,1.94,1.13,3.19.86,6.86-.29,3.17-.42,6.35-.65,9.53-.16,3.6-.74,8.96,4.17,9.36,1.64-.03,3.05-1.04,4.36-1.92,1.29-1.16,1.2-.44,1.94-1.98.51-1.66-1.47-3.18-2.94-2.26Z"/>
  <path class="cls-6" d="m20.91.99c-3.82,6.79-7.6,13.6-11.56,20.31-1.58,2.71-3.14,5.42-4.73,8.12-.27.46-.34,1.03-.2,1.54.31,1.24,1.85,1.85,2.94,1.2,1.52-1.39,2.43-3.97,3.64-5.73,4.56-7.75,8.98-15.57,13.37-23.42,1.28-2.28-2.08-4.26-3.45-2.02Z"/>
  <path class="cls-6" d="m42.64,34.87c-1.42-2.14-4.08-.07-5.94.31,0,0,0,0-.01,0,1.18-2.03,2.17-4.37.93-6.6-.55-1.27-1.65-2.52-3.12-2.56-1.46-.02-3.21.78-3.74,2.21-.52,1.66,1.47,3.18,2.94,2.26.11-.07.21-.15.31-.22,0,.02.02.04.03.06.01.03.01.03.03.07.06.17.11.36.14.5,0,.05,0,.1,0,.14-.23,1-.67,1.51-1.63,3.23-.96,1.35-2.49,3.38-1.32,5,1.61,2.07,7.18-.61,9.33-1.17,1.61-.31,2.95-1.53,2.06-3.23Z"/>
  <path class="cls-5" d="m83.91,442.6c-6.59.16-6.57,9.82,0,10,6.59-.16,6.57-9.82,0-10Z"/>
  <path class="cls-5" d="m115.14,436.1c-6.59.16-6.57,9.82,0,10,6.59-.16,6.57-9.82,0-10Z"/>
  <path class="cls-5" d="m141.27,387.4c-6.59.16-6.57,9.82,0,10,6.59-.16,6.57-9.82,0-10Z"/>
  <path class="cls-5" d="m162.63,362.86c-6.59.16-6.57,9.82,0,10,6.59-.16,6.57-9.82,0-10Z"/>
  <path class="cls-5" d="m165.97,324.94c-6.59.16-6.57,9.82,0,10,6.59-.16,6.57-9.82,0-10Z"/>
  <path class="cls-5" d="m165.97,280.32c-6.59.16-6.57,9.82,0,10,6.59-.16,6.57-9.82,0-10Z"/>
  <path class="cls-5" d="m169.32,237.93c-6.59.16-6.57,9.82,0,10,6.59-.16,6.57-9.82,0-10Z"/>
  <path class="cls-5" d="m182.71,193.31c-6.59.16-6.57,9.82,0,10,6.59-.16,6.57-9.82,0-10Z"/>
  <path class="cls-5" d="m211.71,154.27c-6.59.16-6.57,9.82,0,10,6.59-.16,6.57-9.82,0-10Z"/>
  <path class="cls-5" d="m255.21,134.19c-6.59.16-6.57,9.82,0,10,6.59-.16,6.57-9.82,0-10Z"/>
  <path class="cls-5" d="m302.06,114.12c-6.59.16-6.57,9.82,0,10,6.59-.16,6.57-9.82,0-10Z"/>
  <path class="cls-5" d="m343.33,118.58c-6.59.16-6.57,9.82,0,10,6.59-.16,6.57-9.82,0-10Z"/>
  <path class="cls-5" d="m390.18,117.46c-6.59.16-6.57,9.82,0,10,6.59-.16,6.57-9.82,0-10Z"/>
  <path class="cls-5" d="m419.65,100.52c-6.59.16-6.57,9.82,0,10,6.59-.16,6.57-9.82,0-10Z"/>
  <path class="cls-5" d="m77.85,388.52c-6.59.16-6.57,9.82,0,10,6.59-.16,6.57-9.82,0-10Z"/>
  <path class="cls-5" d="m124.7,350.59c-6.59.16-6.57,9.82,0,10,6.59-.16,6.57-9.82,0-10Z"/>
  <path class="cls-5" d="m157.05,313.78c-6.59.16-6.57,9.82,0,10,6.59-.16,6.57-9.82,0-10Z"/>
  <path class="cls-5" d="m118.01,254.66c-6.59.16-6.57,9.82,0,10,6.59-.16,6.57-9.82,0-10Z"/>
  <path class="cls-5" d="m72.28,263.59c-6.59.16-6.57,9.82,0,10,6.59-.16,6.57-9.82,0-10Z"/>
  <path class="cls-5" d="m95.7,309.32c-6.59.16-6.57,9.82,0,10,6.59-.16,6.57-9.82,0-10Z"/>
  <path class="cls-5" d="m131.39,294.82c-6.59.16-6.57,9.82,0,10,6.59-.16,6.57-9.82,0-10Z"/>
  <path class="cls-5" d="m118.01,215.04c-6.59.16-6.57,9.82,0,10,6.59-.16,6.57-9.82,0-10Z"/>
  <path class="cls-5" d="m131.39,188.31c-6.59.16-6.57,9.82,0,10,6.59-.16,6.57-9.82,0-10Z"/>
  <path class="cls-5" d="m170.44,118.58c-6.59.16-6.57,9.82,0,10,6.59-.16,6.57-9.82,0-10Z"/>
  <path class="cls-5" d="m158.17,195.54c-6.59.16-6.57,9.82,0,10,6.59-.16,6.57-9.82,0-10Z"/>
  <path class="cls-5" d="m158.17,166.54c-6.59.16-6.57,9.82,0,10,6.59-.16,6.57-9.82,0-10Z"/>
  <path class="cls-5" d="m197.21,94.04c-6.59.16-6.57,9.82,0,10,6.59-.16,6.57-9.82,0-10Z"/>
  <path class="cls-5" d="m191.53,56.58c-6.59.16-6.57,9.82,0,10,6.59-.16,6.57-9.82,0-10Z"/>
  <path class="cls-5" d="m304.29,75.08c-6.59.16-6.57,9.82,0,10,6.59-.16,6.57-9.82,0-10Z"/>
  <path class="cls-5" d="m364.52,92.92c-6.59.16-6.57,9.82,0,10,6.59-.16,6.57-9.82,0-10Z"/>
  <path class="cls-5" d="m404.68,102.42c-6.59.16-6.57,9.82,0,10,6.59-.16,6.57-9.82,0-10Z"/>
  <path class="cls-5" d="m249.63,107.42c-6.59.16-6.57,9.82,0,10,6.59-.16,6.57-9.82,0-10Z"/>
  <path class="cls-5" d="m210.59,135.31c-6.59.16-6.57,9.82,0,10,6.59-.16,6.57-9.82,0-10Z"/>
  <path class="cls-3" d="m202.14,425.29c-6.59.16-6.57,9.82,0,10,6.59-.16,6.57-9.82,0-10Z"/>
  <path class="cls-3" d="m261.9,407.48c-6.59.16-6.57,9.82,0,10,6.59-.16,6.57-9.82,0-10Z"/>
  <path class="cls-3" d="m258.56,353.94c-6.59.16-6.57,9.82,0,10,6.59-.16,6.57-9.82,0-10Z"/>
  <path class="cls-3" d="m217.28,366.21c-6.59.16-6.57,9.82,0,10,6.59-.16,6.57-9.82,0-10Z"/>
  <path class="cls-3" d="m216.17,270.28c-6.59.16-6.57,9.82,0,10,6.59-.16,6.57-9.82,0-10Z"/>
  <path class="cls-3" d="m219.52,205.04c-6.59.16-6.57,9.82,0,10,6.59-.16,6.57-9.82,0-10Z"/>
  <path class="cls-3" d="m267.56,166.54c-6.59.16-6.57,9.82,0,10,6.59-.16,6.57-9.82,0-10Z"/>
  <path class="cls-3" d="m261.9,237.93c-6.59.16-6.57,9.82,0,10,6.59-.16,6.57-9.82,0-10Z"/>
  <path class="cls-3" d="m259.67,311.55c-6.59.16-6.57,9.82,0,10,6.59-.16,6.57-9.82,0-10Z"/>
  <path class="cls-3" d="m217.28,317.13c-6.59.16-6.57,9.82,0,10,6.59-.16,6.57-9.82,0-10Z"/>
  <path class="cls-3" d="m308.75,210.04c-6.59.16-6.57,9.82,0,10,6.59-.16,6.57-9.82,0-10Z"/>
  <path class="cls-3" d="m313.21,270.28c-6.59.16-6.57,9.82,0,10,6.59-.16,6.57-9.82,0-10Z"/>
  <path class="cls-3" d="m282.54,266.93c-6.7-.03-6.84,9.8-.16,10,6.7.03,6.84-9.8.16-10Z"/>
  <path class="cls-3" d="m308.75,332.74c-6.59.16-6.57,9.82,0,10,6.59-.16,6.57-9.82,0-10Z"/>
  <path class="cls-3" d="m290.9,387.4c-6.59.16-6.57,9.82,0,10,6.59-.16,6.57-9.82,0-10Z"/>
  <path class="cls-3" d="m350.25,399.09c-6.59.16-6.57,9.82,0,10,6.59-.16,6.57-9.82,0-10Z"/>
  <path class="cls-3" d="m414.72,394.09c-6.59.16-6.57,9.82,0,10,6.59-.16,6.57-9.82,0-10Z"/>
  <path class="cls-3" d="m443.72,311.55c-6.59.16-6.57,9.82,0,10,6.59-.16,6.57-9.82,0-10Z"/>
  <path class="cls-3" d="m371.22,348.36c-6.59.16-6.57,9.82,0,10,6.59-.16,6.57-9.82,0-10Z"/>
  <path class="cls-3" d="m375.68,273.62c-6.59.16-6.57,9.82,0,10,6.59-.16,6.57-9.82,0-10Z"/>
  <path class="cls-3" d="m347.79,230.12c-6.59.16-6.57,9.82,0,10,6.59-.16,6.57-9.82,0-10Z"/>
  <path class="cls-3" d="m352.25,175.47c-6.59.16-6.57,9.82,0,10,6.59-.16,6.57-9.82,0-10Z"/>
  <path class="cls-3" d="m404.68,208.93c-6.59.16-6.57,9.82,0,10,6.59-.16,6.57-9.82,0-10Z"/>
  <path class="cls-3" d="m448.15,164.31c-6.59.16-6.57,9.82,0,10,6.59-.16,6.57-9.82,0-10Z"/>
  <path class="cls-3" d="m449.71,255.24c-1.64-6.57-11.26-4.18-9.69,2.4,1.64,6.57,11.26,4.18,9.69-2.4Z"/>
  <path class="cls-3" d="m413.6,287.01c-6.59.16-6.57,9.82,0,10,6.59-.16,6.57-9.82,0-10Z"/>
  <line class="cls-2" x1="78.97" y1="454.29" x2="118.01" y2="447.6"/>
  <line class="cls-2" x1="428.1" y1="102.96" x2="118.01" y2="447.6"/>
  <line class="cls-2" x1="67.34" y1="268.59" x2="78.97" y2="454.29"/>
  <line class="cls-2" x1="187.81" y1="54.42" x2="67.34" y2="268.59"/>
  <line class="cls-2" x1="428.1" y1="102.96" x2="187.81" y2="54.42"/>
  <line class="cls-1" x1="214.58" y1="207.24" x2="196.47" y2="439.79"/>
  <line class="cls-1" x1="267" y1="166.54" x2="214.58" y2="207.24"/>
  <line class="cls-1" x1="455.08" y1="164.28" x2="267" y2="166.54"/>
  <line class="cls-1" x1="448.62" y1="317.13" x2="452.64" y2="164.31"/>
  <line class="cls-1" x1="418.54" y1="402.34" x2="448.62" y2="317.13"/>
  <line class="cls-1" x1="198.96" y1="436.1" x2="418.54" y2="402.34"/>
</svg>