<?xml version="1.0" encoding="UTF-8"?>
<svg id="Layer_1" data-name="Layer 1" xmlns="http://www.w3.org/2000/svg" viewBox="0 0 983.47 502.02">
  <defs>
    <style>
      .cls-1 {
        stroke: #2fc1d9;
      }

      .cls-1, .cls-2 {
        stroke-width: 5px;
      }

      .cls-1, .cls-2, .cls-3, .cls-4 {
        stroke-miterlimit: 10;
      }

      .cls-1, .cls-4 {
        fill: #9cc5e9;
      }

      .cls-2 {
        fill: #fcd693;
        stroke: #fcd693;
      }

      .cls-5 {
        fill: #231f20;
      }

      .cls-6 {
        fill: #2fc1d9;
      }

      .cls-3 {
        fill: #fff;
        stroke: #231f20;
      }

      .cls-3, .cls-4 {
        stroke-width: 4px;
      }

      .cls-4 {
        stroke: #9fc9eb;
      }
    </style>
  </defs>
  <line class="cls-3" x1="519.56" y1="496.97" x2="519.56" y2="65.17"/>
  <line class="cls-3" x1="519.56" y1="496.97" x2="519.56" y2="65.17"/>
  <line class="cls-3" x1="499.66" y1="477.07" x2="931.45" y2="477.07"/>
  <path class="cls-5" d="m526.14,74.85c-1.01-2.66-1.15-4.42-1.32-5.84-.65-4.71.16-10.23-.55-14.65-.85-2.3-4.45-1.85-4.75.58-.96,3.93-3.71,7.08-6.76,10.68-1.81,2.04-3.86,3.83-5.87,5.66-.46.46-.74,1.11-.73,1.77-.07,2.15,2.79,3.34,4.27,1.77,3.32-2.92,6.5-6.09,9.16-9.63.05,1.72.16,3.44.39,5.16.41,2.75,1.6,11.19,5.83,9.05,1.79-1.08,1.28-3.05.34-4.54Z"/>
  <path class="cls-5" d="m938.66,469.49c-2.91-1.24-5.87-2.33-8.82-3.43-3.18-.81-4.47,3.88-1.33,4.82,1.85.68,4.17,1.56,6.16,2.35-2.29,1.2-4.4,2.78-6.26,4.5-1.68,1.74-3.1,3.73-4.53,5.67-1.39,1.54-1.31,3.93.88,4.62,1.68.49,2.73-.85,3.47-2.14,1.67-2.23,1.36-1.97,3.28-4.16,2.22-2.31,3.82-3.18,7.42-5,1.26-.44,2.66-.51,3.62-1.56,2.45-2.89-1.55-4.84-3.89-5.66Z"/>
  <path class="cls-5" d="m528.23,29.19c-.77.66-2.47,1.82-3.3,2.13-.08-.12-.15-.24-.21-.37-.03-.09-.06-.2-.09-.31-.06-1.03.01-2.06.03-3.09.07-3.02.37-6.04.52-9.06.22-2.91.74-5.93-.21-8.77-1.38-5.23-7.23-5.4-11.32-3.28-3.53,2.15-6.87,5.48-8.05,9.52-.65,2.55,3.11,3.57,3.86,1.06.63-1.69.4-1.45,1.09-2.37,1.98-2.44,3.16-3.7,5.19-4.8,1.22-.71,3.77-.9,4.7-.31,0,0,0,0,0,0,.02.02.03.04.05.06,1.25,1.94,1.13,3.19.86,6.86-.29,3.17-.42,6.35-.65,9.53-.16,3.6-.74,8.96,4.17,9.36,1.64-.03,3.05-1.04,4.36-1.92,1.29-1.16,1.2-.44,1.94-1.98.51-1.66-1.47-3.18-2.94-2.26Z"/>
  <path class="cls-5" d="m526.44.99c-3.82,6.79-7.6,13.6-11.56,20.31-1.58,2.71-3.14,5.42-4.73,8.12-.27.46-.34,1.03-.2,1.54.31,1.24,1.85,1.85,2.94,1.2,1.52-1.39,2.43-3.97,3.64-5.73,4.56-7.75,8.98-15.57,13.37-23.42,1.28-2.28-2.08-4.26-3.45-2.02Z"/>
  <path class="cls-5" d="m548.17,34.87c-1.42-2.14-4.08-.07-5.94.31,0,0,0,0-.01,0,1.18-2.03,2.17-4.37.93-6.6-.55-1.27-1.65-2.52-3.12-2.56-1.46-.02-3.21.78-3.74,2.21-.52,1.66,1.47,3.18,2.94,2.26.11-.07.21-.15.31-.22,0,.02.02.04.03.06.01.03.01.03.03.07.06.17.11.36.14.5,0,.05,0,.1,0,.14-.23,1-.67,1.51-1.63,3.23-.96,1.35-2.49,3.38-1.32,5,1.61,2.07,7.18-.61,9.33-1.17,1.61-.31,2.95-1.53,2.06-3.23Z"/>
  <path class="cls-4" d="m572.14,446.16c-6.59.16-6.57,9.82,0,10,6.59-.16,6.57-9.82,0-10Z"/>
  <path class="cls-4" d="m603.38,439.66c-6.59.16-6.57,9.82,0,10,6.59-.16,6.57-9.82,0-10Z"/>
  <path class="cls-4" d="m629.51,390.97c-6.59.16-6.57,9.82,0,10,6.59-.16,6.57-9.82,0-10Z"/>
  <path class="cls-4" d="m650.87,366.43c-6.59.16-6.57,9.82,0,10,6.59-.16,6.57-9.82,0-10Z"/>
  <path class="cls-4" d="m654.21,328.5c-6.59.16-6.57,9.82,0,10,6.59-.16,6.57-9.82,0-10Z"/>
  <path class="cls-4" d="m654.21,283.88c-6.59.16-6.57,9.82,0,10,6.59-.16,6.57-9.82,0-10Z"/>
  <path class="cls-4" d="m657.56,241.5c-6.59.16-6.57,9.82,0,10,6.59-.16,6.57-9.82,0-10Z"/>
  <path class="cls-4" d="m670.94,196.88c-6.59.16-6.57,9.82,0,10,6.59-.16,6.57-9.82,0-10Z"/>
  <path class="cls-4" d="m699.94,157.84c-6.59.16-6.57,9.82,0,10,6.59-.16,6.57-9.82,0-10Z"/>
  <path class="cls-4" d="m743.45,137.76c-6.59.16-6.57,9.82,0,10,6.59-.16,6.57-9.82,0-10Z"/>
  <path class="cls-4" d="m790.3,117.68c-6.59.16-6.57,9.82,0,10,6.59-.16,6.57-9.82,0-10Z"/>
  <path class="cls-4" d="m831.57,122.15c-6.59.16-6.57,9.82,0,10,6.59-.16,6.57-9.82,0-10Z"/>
  <path class="cls-4" d="m878.42,121.03c-6.59.16-6.57,9.82,0,10,6.59-.16,6.57-9.82,0-10Z"/>
  <path class="cls-4" d="m907.89,104.09c-6.59.16-6.57,9.82,0,10,6.59-.16,6.57-9.82,0-10Z"/>
  <path class="cls-4" d="m566.09,392.08c-6.59.16-6.57,9.82,0,10,6.59-.16,6.57-9.82,0-10Z"/>
  <path class="cls-4" d="m612.94,354.16c-6.59.16-6.57,9.82,0,10,6.59-.16,6.57-9.82,0-10Z"/>
  <path class="cls-4" d="m645.29,317.35c-6.59.16-6.57,9.82,0,10,6.59-.16,6.57-9.82,0-10Z"/>
  <path class="cls-4" d="m606.25,258.23c-6.59.16-6.57,9.82,0,10,6.59-.16,6.57-9.82,0-10Z"/>
  <path class="cls-4" d="m560.51,267.15c-6.59.16-6.57,9.82,0,10,6.59-.16,6.57-9.82,0-10Z"/>
  <path class="cls-4" d="m583.94,312.89c-6.59.16-6.57,9.82,0,10,6.59-.16,6.57-9.82,0-10Z"/>
  <path class="cls-4" d="m619.63,298.39c-6.59.16-6.57,9.82,0,10,6.59-.16,6.57-9.82,0-10Z"/>
  <path class="cls-4" d="m606.25,218.61c-6.59.16-6.57,9.82,0,10,6.59-.16,6.57-9.82,0-10Z"/>
  <path class="cls-4" d="m619.63,191.88c-6.59.16-6.57,9.82,0,10,6.59-.16,6.57-9.82,0-10Z"/>
  <path class="cls-4" d="m658.67,122.15c-6.59.16-6.57,9.82,0,10,6.59-.16,6.57-9.82,0-10Z"/>
  <path class="cls-4" d="m646.4,199.11c-6.59.16-6.57,9.82,0,10,6.59-.16,6.57-9.82,0-10Z"/>
  <path class="cls-4" d="m646.4,170.11c-6.59.16-6.57,9.82,0,10,6.59-.16,6.57-9.82,0-10Z"/>
  <path class="cls-4" d="m685.44,97.61c-6.59.16-6.57,9.82,0,10,6.59-.16,6.57-9.82,0-10Z"/>
  <path class="cls-4" d="m679.77,60.15c-6.59.16-6.57,9.82,0,10,6.59-.16,6.57-9.82,0-10Z"/>
  <path class="cls-4" d="m792.53,78.64c-6.59.16-6.57,9.82,0,10,6.59-.16,6.57-9.82,0-10Z"/>
  <path class="cls-4" d="m852.76,96.49c-6.59.16-6.57,9.82,0,10,6.59-.16,6.57-9.82,0-10Z"/>
  <path class="cls-4" d="m892.92,105.99c-6.59.16-6.57,9.82,0,10,6.59-.16,6.57-9.82,0-10Z"/>
  <path class="cls-4" d="m737.87,110.99c-6.59.16-6.57,9.82,0,10,6.59-.16,6.57-9.82,0-10Z"/>
  <path class="cls-4" d="m698.83,138.88c-6.59.16-6.57,9.82,0,10,6.59-.16,6.57-9.82,0-10Z"/>
  <path class="cls-2" d="m690.38,428.85c-6.59.16-6.57,9.82,0,10,6.59-.16,6.57-9.82,0-10Z"/>
  <path class="cls-2" d="m750.14,411.05c-6.59.16-6.57,9.82,0,10,6.59-.16,6.57-9.82,0-10Z"/>
  <path class="cls-2" d="m746.79,357.5c-6.59.16-6.57,9.82,0,10,6.59-.16,6.57-9.82,0-10Z"/>
  <path class="cls-2" d="m705.52,369.77c-6.59.16-6.57,9.82,0,10,6.59-.16,6.57-9.82,0-10Z"/>
  <path class="cls-2" d="m704.41,273.85c-6.59.16-6.57,9.82,0,10,6.59-.16,6.57-9.82,0-10Z"/>
  <path class="cls-2" d="m707.75,208.61c-6.59.16-6.57,9.82,0,10,6.59-.16,6.57-9.82,0-10Z"/>
  <path class="cls-2" d="m755.8,170.11c-6.59.16-6.57,9.82,0,10,6.59-.16,6.57-9.82,0-10Z"/>
  <path class="cls-2" d="m750.14,241.5c-6.59.16-6.57,9.82,0,10,6.59-.16,6.57-9.82,0-10Z"/>
  <path class="cls-2" d="m747.91,315.12c-6.59.16-6.57,9.82,0,10,6.59-.16,6.57-9.82,0-10Z"/>
  <path class="cls-2" d="m705.52,320.69c-6.59.16-6.57,9.82,0,10,6.59-.16,6.57-9.82,0-10Z"/>
  <path class="cls-2" d="m796.99,213.61c-6.59.16-6.57,9.82,0,10,6.59-.16,6.57-9.82,0-10Z"/>
  <path class="cls-2" d="m801.45,273.85c-6.59.16-6.57,9.82,0,10,6.59-.16,6.57-9.82,0-10Z"/>
  <path class="cls-2" d="m770.78,270.5c-6.7-.03-6.84,9.8-.16,10,6.7.03,6.84-9.8.16-10Z"/>
  <path class="cls-2" d="m796.99,336.31c-6.59.16-6.57,9.82,0,10,6.59-.16,6.57-9.82,0-10Z"/>
  <path class="cls-2" d="m779.14,390.97c-6.59.16-6.57,9.82,0,10,6.59-.16,6.57-9.82,0-10Z"/>
  <path class="cls-2" d="m838.49,402.66c-6.59.16-6.57,9.82,0,10,6.59-.16,6.57-9.82,0-10Z"/>
  <path class="cls-2" d="m902.96,397.66c-6.59.16-6.57,9.82,0,10,6.59-.16,6.57-9.82,0-10Z"/>
  <path class="cls-2" d="m931.96,315.12c-6.59.16-6.57,9.82,0,10,6.59-.16,6.57-9.82,0-10Z"/>
  <path class="cls-2" d="m859.45,351.93c-6.59.16-6.57,9.82,0,10,6.59-.16,6.57-9.82,0-10Z"/>
  <path class="cls-2" d="m863.92,277.19c-6.59.16-6.57,9.82,0,10,6.59-.16,6.57-9.82,0-10Z"/>
  <path class="cls-2" d="m836.03,233.69c-6.59.16-6.57,9.82,0,10,6.59-.16,6.57-9.82,0-10Z"/>
  <path class="cls-2" d="m840.49,179.03c-6.59.16-6.57,9.82,0,10,6.59-.16,6.57-9.82,0-10Z"/>
  <path class="cls-2" d="m892.92,212.5c-6.59.16-6.57,9.82,0,10,6.59-.16,6.57-9.82,0-10Z"/>
  <path class="cls-2" d="m936.39,167.88c-6.59.16-6.57,9.82,0,10,6.59-.16,6.57-9.82,0-10Z"/>
  <path class="cls-2" d="m937.95,258.81c-1.64-6.57-11.26-4.18-9.69,2.4,1.64,6.57,11.26,4.18,9.69-2.4Z"/>
  <path class="cls-2" d="m901.84,290.58c-6.59.16-6.57,9.82,0,10,6.59-.16,6.57-9.82,0-10Z"/>
  <path class="cls-6" d="m928.67,124.13c-2.55,1.78-3.27,2.67-6.62,4.58-1.81,1.22-3.91,1.88-5.72,3.08-5.09,3.19-12.01,6.54-15.71,8.04-4.15,1.19-8.06,3.15-12.26,4.15-6.47,1.22-10.75.98-17.76,2.78-7.35,1.94-14.09,3.86-20.07,3.94-11.28-.16-19.18.33-29.81,1.15-4.66.42-9.34.43-13.99,1.05-4.21.32-8.44.15-12.65.19-7.21.01-14.36-1.44-21.58-.82-7.93.64-15.24,4.15-22.73,6.55-6.77,2.25-13,5.66-19.02,9.44-5.1,3.18-10.53,6.02-15.07,9.98-3.64,3.59-7.47,6.97-11.27,10.38-2.53,2.46-5.29,4.72-7.11,7.8-2.23,3.07-3.83,6.53-5.54,9.9-3.08,5.38-5.04,11.3-6.78,17.22-1.83,4.59-3.07,9.31-3.71,14.2-.72,3.95-1.71,7.88-1.79,11.92-.27,10.63.27,21.28-.27,31.9-.45,3.66-.14,7.37-.52,11.04-.53,5.58.01,11.18.64,16.73.19,10.37.2,20.76-.03,31.13-.43,5.64-1.14,9.02-1.46,13.64-.67,9.39-1.22,16.08-3.04,24.47-.95,4.64-1.45,9.42-3.33,13.8-.74,1.78-1.91,3.34-2.72,5.08-2,4.01-4.06,8.04-6.48,11.81-3.7,5.26-6.92,8.39-10.44,14.8-3.33,5.37-5.83,11.19-8.08,17.08-.9,2.32-1.88,4.61-2.65,6.98-.23.89-.8,1.75-.61,2.69.09,1.2,1.25,2.18,2.46,2.17,1.09.02,2.13-.78,2.41-1.84,3.6-10.38,6.56-17.85,12.45-27.44,3.33-5.33,6.96-8.61,10.55-14.82,1.76-3.29,3.62-6.53,5.21-9.9,1.82-2.97,3.31-6.16,4.18-9.54,1.35-6.23,2.46-12.52,3.58-18.8.71-5.24,1.44-15.45,1.64-18.27.56-3.89.93-7.82,1.35-11.73.23-5.21.12-10.43.14-15.65-.03-7.36.28-14.74-.78-22.05-.29-4.45-.12-8.89.23-13.33.05-3.28.13-6.55.45-9.81.23-7.22.05-14.44.1-21.66.04-3.78-.14-7.58.25-11.35.03-1.85.89-4.18,1.37-7.5.67-4.52,1.59-8.97,3.32-13.23,1.39-4.42,3.38-10.54,4.47-12.91,2.28-4.38,4.34-8.89,6.97-13.07,1.99-2.88,1.99-3.14,4.57-5.47,3.15-3.07,6.45-5.98,9.73-8.92,1.94-1.69,3.63-3.65,5.65-5.25.31-.22.85-.62,1.1-.76,1.92-1.27,3.89-2.48,5.83-3.73,5.16-3.13,10.26-6.38,15.63-9.14,3.66-1.91,9.04-3.62,14.52-5.49,4.97-1.93,11.64-4.04,14.95-4.09,5.42-.34,10.83.16,16.21.7,5.03.24,10.08.19,15.12.1,10.93-.85,23.66-1.64,32.5-2.26,5.48-.17,10.98.09,16.46-.17,3.35-.26,6.62-1.09,9.93-1.67,3.34-.88,6.68-1.77,10.03-2.63,1.28-.27,2.56-.53,3.84-.8,3.86-.48,7.73-.83,11.56-1.47,3.09-.41,5.94-1.74,8.83-2.85,3.14-.94,6.25-2.03,9.21-3.45,4.36-2.27,8.86-4.25,12.96-6.98,3.09-1.61,6.24-3.12,9.02-5.26.77-.5,1.47-1.09,2.19-1.66.18-.09,1.48-.98,1.67-1.46,1.3-2.4-1.58-4.89-3.65-3.23Z"/>
  <line class="cls-3" x1="19.9" y1="499.77" x2="19.9" y2="67.98"/>
  <line class="cls-3" y1="479.88" x2="431.8" y2="479.88"/>
  <path class="cls-5" d="m26.48,77.66c-1.01-2.66-1.15-4.42-1.32-5.84-.65-4.71.16-10.23-.55-14.65-.85-2.3-4.45-1.85-4.75.58-.96,3.93-3.71,7.08-6.76,10.68-1.81,2.04-3.86,3.83-5.87,5.66-.46.46-.74,1.11-.73,1.77-.07,2.15,2.79,3.34,4.27,1.77,3.32-2.92,6.5-6.09,9.16-9.63.05,1.72.16,3.44.39,5.16.41,2.75,1.6,11.19,5.83,9.05,1.79-1.08,1.28-3.05.34-4.54Z"/>
  <path class="cls-5" d="m439,472.3c-2.91-1.24-5.87-2.33-8.82-3.43-3.18-.81-4.47,3.88-1.33,4.82,1.85.68,4.17,1.56,6.16,2.35-2.29,1.2-4.4,2.78-6.26,4.5-1.68,1.74-3.1,3.73-4.53,5.67-1.39,1.54-1.31,3.93.88,4.62,1.68.49,2.73-.85,3.47-2.14,1.67-2.23,1.36-1.97,3.28-4.16,2.22-2.31,3.82-3.18,7.42-5,1.26-.44,2.66-.51,3.62-1.56,2.45-2.89-1.55-4.84-3.89-5.66Z"/>
  <path class="cls-5" d="m481.59,493.21c-.76-.76-2.07-.78-2.83,0-.26.29-.53.58-.83.83-.37.21-2.13,1.31-2.55,1.54-.08.04-.16.09-.24.13-.05.02-.09.04-.12.05-.02,0-.05.02-.07.03-.36.14-.74.25-1.12.32-.02,0-.03,0-.05,0-.15,0-.31-.01-.43-.02-.19-.03-.38-.08-.56-.14-.04-.02-.09-.04-.13-.07-.06-.06-.11-.11-.15-.15-.05-.07-.1-.15-.14-.22,0-3.77,3.25-13.35,3.38-20.08-.2-2.73.27-6.05-1.92-8.11-2.54-2.01-6.79-2.15-8.95.5-2.09,2.67-4.42,5.48-4.45,9.03.05,2.63,3.95,2.62,4,0,.28-1.65-.15-.95.87-2.8,1.45-2.03,1.74-2.83,2.95-3.95.11-.08.23-.15.35-.21.03,0,.06-.02.1-.03.09-.02.15-.03.2-.04,0,0,0,0,0,0,.13,0,.26-.01.39,0,1.22.16.94-.02,1.89.51.06.1.12.2.17.31,0,0,0,0,0,.02.77,3.55.43,8.29-.86,12.85-.63,3.18-1.35,6.35-1.86,9.55-.05,1.31-.53,1.46-.12,3.59,1.23,3.75,5.85,4.21,8.89,2.38,1.86-1.22,6.34-3.09,4.19-5.83Z"/>
  <path class="cls-5" d="m480.52,468.75c-5.88,6.57-14.04,15.26-19.98,20.88-.94.23-1.59,1.13-2.34,1.72-.57.61-1.26,1.21-1.61,1.97-.52,1.04.18,2.42,1.3,2.7,1.83.38,3.32-1.77,4.67-2.77,3.15-2.91,6.09-6.04,9.08-9.11,4.12-4.31,8.43-8.56,12.13-13.21.92-1.94-1.76-3.73-3.24-2.18Z"/>
  <path class="cls-5" d="m495.99,498.33c-.09-2.51-.18-5.02-.34-7.53,0-.53-.22-1.04-.59-1.41-1.17-1.26-3.47-.31-3.41,1.41.33,3.31.06,6.75.57,10.01.44,1.3,2.32,1.63,3.24.64.85-.83.52-2.06.53-3.12Z"/>
  <g>
    <path class="cls-5" d="m969.01,486.34c-.76-.76-2.07-.78-2.83,0-.26.29-.53.58-.83.83-.37.21-2.13,1.31-2.55,1.54-.08.04-.16.09-.24.13-.05.02-.09.04-.12.05-.02,0-.05.02-.07.03-.36.14-.74.25-1.12.32-.02,0-.03,0-.05,0-.15,0-.31-.01-.43-.02-.19-.03-.38-.08-.56-.14-.04-.02-.09-.04-.13-.07-.06-.06-.11-.11-.15-.15-.05-.07-.1-.15-.14-.22,0-3.77,3.25-13.35,3.38-20.08-.2-2.73.27-6.05-1.92-8.11-2.54-2.01-6.79-2.15-8.95.5-2.09,2.67-4.42,5.48-4.45,9.03.05,2.63,3.95,2.62,4,0,.28-1.65-.15-.95.87-2.8,1.45-2.03,1.74-2.83,2.95-3.95.11-.08.23-.15.35-.21.03,0,.06-.02.1-.03.09-.02.15-.03.2-.04,0,0,0,0,0,0,.13,0,.26-.01.39,0,1.22.16.94-.02,1.89.51.06.1.12.2.17.31,0,0,0,0,0,.02.77,3.55.43,8.29-.86,12.85-.63,3.18-1.35,6.35-1.86,9.55-.05,1.31-.53,1.46-.12,3.59,1.23,3.75,5.85,4.21,8.89,2.38,1.86-1.22,6.34-3.09,4.19-5.83Z"/>
    <path class="cls-5" d="m967.95,461.87c-5.88,6.57-14.04,15.26-19.98,20.88-.94.23-1.59,1.13-2.34,1.72-.57.61-1.26,1.21-1.61,1.97-.52,1.04.18,2.42,1.3,2.7,1.83.38,3.32-1.77,4.67-2.77,3.15-2.91,6.09-6.04,9.08-9.11,4.12-4.31,8.43-8.56,12.13-13.21.92-1.94-1.76-3.73-3.24-2.18Z"/>
    <path class="cls-5" d="m983.41,491.45c-.09-2.51-.18-5.02-.34-7.53,0-.53-.22-1.04-.59-1.41-1.17-1.26-3.47-.31-3.41,1.41.33,3.31.06,6.75.57,10.01.44,1.3,2.32,1.63,3.24.64.85-.83.52-2.06.53-3.12Z"/>
  </g>
  <path class="cls-5" d="m28.58,33c-.77.66-2.47,1.82-3.3,2.13-.08-.12-.15-.24-.21-.37-.03-.09-.06-.2-.09-.31-.06-1.03.01-2.06.03-3.09.07-3.02.37-6.04.52-9.06.22-2.91.74-5.93-.21-8.77-1.38-5.23-7.23-5.4-11.32-3.28-3.53,2.15-6.87,5.48-8.05,9.52-.65,2.55,3.11,3.57,3.86,1.06.63-1.69.4-1.45,1.09-2.37,1.98-2.44,3.16-3.7,5.19-4.8,1.22-.71,3.77-.9,4.7-.31,0,0,0,0,0,0,.02.02.03.04.05.06,1.25,1.94,1.13,3.19.86,6.86-.29,3.17-.42,6.35-.65,9.53-.16,3.6-.74,8.96,4.17,9.36,1.64-.03,3.05-1.04,4.36-1.92,1.29-1.16,1.2-.44,1.94-1.98.51-1.66-1.47-3.18-2.94-2.26Z"/>
  <path class="cls-5" d="m26.78,4.8c-3.82,6.79-7.6,13.6-11.56,20.31-1.58,2.71-3.14,5.42-4.73,8.12-.27.46-.34,1.03-.2,1.54.31,1.24,1.85,1.85,2.94,1.2,1.52-1.39,2.43-3.97,3.64-5.73,4.56-7.75,8.98-15.57,13.37-23.42,1.28-2.28-2.08-4.26-3.45-2.02Z"/>
  <path class="cls-5" d="m48.51,38.68c-1.42-2.14-4.08-.07-5.94.31,0,0,0,0-.01,0,1.18-2.03,2.17-4.37.93-6.6-.55-1.27-1.65-2.52-3.12-2.56-1.46-.02-3.21.78-3.74,2.21-.52,1.66,1.47,3.18,2.94,2.26.11-.07.21-.15.31-.22,0,.02.02.04.03.06.01.03.01.03.03.07.06.17.11.36.14.5,0,.05,0,.1,0,.14-.23,1-.67,1.51-1.63,3.23-.96,1.35-2.49,3.38-1.32,5,1.61,2.07,7.18-.61,9.33-1.17,1.61-.31,2.95-1.53,2.06-3.23Z"/>
  <path class="cls-4" d="m74.72,360.11c-6.59.16-6.57,9.82,0,10,6.59-.16,6.57-9.82,0-10Z"/>
  <path class="cls-4" d="m105.95,353.61c-6.59.16-6.57,9.82,0,10,6.59-.16,6.57-9.82,0-10Z"/>
  <path class="cls-4" d="m106.9,244.31c-6.59.16-6.57,9.82,0,10,6.59-.16,6.57-9.82,0-10Z"/>
  <path class="cls-4" d="m80.3,321.13c-6.59.16-6.57,9.82,0,10,6.59-.16,6.57-9.82,0-10Z"/>
  <path class="cls-4" d="m83.64,283.2c-6.59.16-6.57,9.82,0,10,6.59-.16,6.57-9.82,0-10Z"/>
  <path class="cls-4" d="m131.61,137.22c-6.59.16-6.57,9.82,0,10,6.59-.16,6.57-9.82,0-10Z"/>
  <path class="cls-4" d="m134.95,94.84c-6.59.16-6.57,9.82,0,10,6.59-.16,6.57-9.82,0-10Z"/>
  <path class="cls-4" d="m171.29,199.69c-6.59.16-6.57,9.82,0,10,6.59-.16,6.57-9.82,0-10Z"/>
  <path class="cls-4" d="m264.98,138.21c-6.59.16-6.57,9.82,0,10,6.59-.16,6.57-9.82,0-10Z"/>
  <path class="cls-4" d="m243.79,140.57c-6.59.16-6.57,9.82,0,10,6.59-.16,6.57-9.82,0-10Z"/>
  <path class="cls-4" d="m290.64,120.49c-6.59.16-6.57,9.82,0,10,6.59-.16,6.57-9.82,0-10Z"/>
  <path class="cls-4" d="m331.91,124.95c-6.59.16-6.57,9.82,0,10,6.59-.16,6.57-9.82,0-10Z"/>
  <path class="cls-4" d="m378.76,123.84c-6.59.16-6.57,9.82,0,10,6.59-.16,6.57-9.82,0-10Z"/>
  <path class="cls-4" d="m408.23,106.89c-6.59.16-6.57,9.82,0,10,6.59-.16,6.57-9.82,0-10Z"/>
  <path class="cls-4" d="m43.49,245.42c-6.59.16-6.57,9.82,0,10,6.59-.16,6.57-9.82,0-10Z"/>
  <path class="cls-4" d="m90.33,207.5c-6.59.16-6.57,9.82,0,10,6.59-.16,6.57-9.82,0-10Z"/>
  <path class="cls-4" d="m74.72,272.05c-6.59.16-6.57,9.82,0,10,6.59-.16,6.57-9.82,0-10Z"/>
  <path class="cls-4" d="m83.64,111.57c-6.59.16-6.57,9.82,0,10,6.59-.16,6.57-9.82,0-10Z"/>
  <path class="cls-4" d="m37.91,120.49c-6.59.16-6.57,9.82,0,10,6.59-.16,6.57-9.82,0-10Z"/>
  <path class="cls-4" d="m61.33,166.22c-6.59.16-6.57,9.82,0,10,6.59-.16,6.57-9.82,0-10Z"/>
  <path class="cls-4" d="m97.03,151.72c-6.59.16-6.57,9.82,0,10,6.59-.16,6.57-9.82,0-10Z"/>
  <path class="cls-4" d="m83.64,71.95c-6.59.16-6.57,9.82,0,10,6.59-.16,6.57-9.82,0-10Z"/>
  <path class="cls-4" d="m72.01,296.05c-6.59.16-6.57,9.82,0,10,6.59-.16,6.57-9.82,0-10Z"/>
  <path class="cls-4" d="m159.02,124.95c-6.59.16-6.57,9.82,0,10,6.59-.16,6.57-9.82,0-10Z"/>
  <path class="cls-4" d="m98.78,303.28c-6.59.16-6.57,9.82,0,10,6.59-.16,6.57-9.82,0-10Z"/>
  <path class="cls-4" d="m98.78,274.28c-6.59.16-6.57,9.82,0,10,6.59-.16,6.57-9.82,0-10Z"/>
  <path class="cls-4" d="m185.79,100.41c-6.59.16-6.57,9.82,0,10,6.59-.16,6.57-9.82,0-10Z"/>
  <path class="cls-4" d="m180.11,62.96c-6.59.16-6.57,9.82,0,10,6.59-.16,6.57-9.82,0-10Z"/>
  <path class="cls-4" d="m292.87,81.45c-6.59.16-6.57,9.82,0,10,6.59-.16,6.57-9.82,0-10Z"/>
  <path class="cls-4" d="m353.1,99.3c-6.59.16-6.57,9.82,0,10,6.59-.16,6.57-9.82,0-10Z"/>
  <path class="cls-4" d="m393.26,108.8c-6.59.16-6.57,9.82,0,10,6.59-.16,6.57-9.82,0-10Z"/>
  <path class="cls-4" d="m238.21,113.8c-6.59.16-6.57,9.82,0,10,6.59-.16,6.57-9.82,0-10Z"/>
  <path class="cls-4" d="m263.87,119.25c-6.59.16-6.57,9.82,0,10,6.59-.16,6.57-9.82,0-10Z"/>
  <path class="cls-2" d="m190.72,431.66c-6.59.16-6.57,9.82,0,10,6.59-.16,6.57-9.82,0-10Z"/>
  <path class="cls-2" d="m250.48,413.85c-6.59.16-6.57,9.82,0,10,6.59-.16,6.57-9.82,0-10Z"/>
  <path class="cls-2" d="m247.14,360.31c-6.59.16-6.57,9.82,0,10,6.59-.16,6.57-9.82,0-10Z"/>
  <path class="cls-2" d="m220.04,440.21c-6.59.16-6.57,9.82,0,10,6.59-.16,6.57-9.82,0-10Z"/>
  <path class="cls-2" d="m218.93,344.28c-6.59.16-6.57,9.82,0,10,6.59-.16,6.57-9.82,0-10Z"/>
  <path class="cls-2" d="m302.27,435.21c-6.59.16-6.57,9.82,0,10,6.59-.16,6.57-9.82,0-10Z"/>
  <path class="cls-2" d="m322.59,259.38c-6.59.16-6.57,9.82,0,10,6.59-.16,6.57-9.82,0-10Z"/>
  <path class="cls-2" d="m316.93,330.77c-6.59.16-6.57,9.82,0,10,6.59-.16,6.57-9.82,0-10Z"/>
  <path class="cls-2" d="m248.25,317.92c-6.59.16-6.57,9.82,0,10,6.59-.16,6.57-9.82,0-10Z"/>
  <path class="cls-2" d="m220.04,391.13c-6.59.16-6.57,9.82,0,10,6.59-.16,6.57-9.82,0-10Z"/>
  <path class="cls-2" d="m363.78,302.89c-6.59.16-6.57,9.82,0,10,6.59-.16,6.57-9.82,0-10Z"/>
  <path class="cls-2" d="m368.24,363.12c-6.59.16-6.57,9.82,0,10,6.59-.16,6.57-9.82,0-10Z"/>
  <path class="cls-2" d="m337.57,359.77c-6.7-.03-6.84,9.8-.16,10,6.7.03,6.84-9.8.16-10Z"/>
  <path class="cls-2" d="m297.33,339.12c-6.59.16-6.57,9.82,0,10,6.59-.16,6.57-9.82,0-10Z"/>
  <path class="cls-2" d="m279.48,393.77c-6.59.16-6.57,9.82,0,10,6.59-.16,6.57-9.82,0-10Z"/>
  <path class="cls-2" d="m338.83,405.47c-6.59.16-6.57,9.82,0,10,6.59-.16,6.57-9.82,0-10Z"/>
  <path class="cls-2" d="m403.3,400.47c-6.59.16-6.57,9.82,0,10,6.59-.16,6.57-9.82,0-10Z"/>
  <path class="cls-2" d="m432.3,317.92c-6.59.16-6.57,9.82,0,10,6.59-.16,6.57-9.82,0-10Z"/>
  <path class="cls-2" d="m363.31,334.12c-6.59.16-6.57,9.82,0,10,6.59-.16,6.57-9.82,0-10Z"/>
  <path class="cls-2" d="m430.71,366.47c-6.59.16-6.57,9.82,0,10,6.59-.16,6.57-9.82,0-10Z"/>
  <path class="cls-2" d="m402.82,322.96c-6.59.16-6.57,9.82,0,10,6.59-.16,6.57-9.82,0-10Z"/>
  <path class="cls-2" d="m407.29,268.31c-6.59.16-6.57,9.82,0,10,6.59-.16,6.57-9.82,0-10Z"/>
  <path class="cls-2" d="m393.26,215.3c-6.59.16-6.57,9.82,0,10,6.59-.16,6.57-9.82,0-10Z"/>
  <path class="cls-2" d="m436.73,170.69c-6.59.16-6.57,9.82,0,10,6.59-.16,6.57-9.82,0-10Z"/>
  <path class="cls-2" d="m438.29,261.62c-1.64-6.57-11.26-4.18-9.69,2.4,1.64,6.57,11.26,4.18,9.69-2.4Z"/>
  <path class="cls-2" d="m402.18,293.38c-6.59.16-6.57,9.82,0,10,6.59-.16,6.57-9.82,0-10Z"/>
  <line class="cls-1" x1="61.33" y1="445.21" x2="430.71" y2="121.57"/>
</svg>