<?xml version="1.0" encoding="UTF-8"?>
<svg xmlns="http://www.w3.org/2000/svg" viewBox="0 0 959.74 923.07">
  <defs>
    <style>
      .cls-1 {
        fill: #fcb640;
      }

      .cls-2 {
        fill: #231f20;
      }

      .cls-3 {
        fill: #fff;
        stroke: #231f20;
        stroke-miterlimit: 10;
        stroke-width: 7px;
      }
    </style>
  </defs>
  <g id="Layer_2" data-name="Layer 2">
    <path class="cls-1" d="m853.55,553.47c-1.12-14.68-2.49-29.33-4-43.98-7.1-69.56-11.32-93.34-17.14-140.01-1.65-15.57-3.15-31.16-3.98-46.8-.55-11.48-2.01-22.95-1.66-34.46.04-1.44.07-2.88.11-4.31,1.47-2.81,2.59-5.82,3.35-9.03,2.08-6.65,2.38-13.29.89-19.94-.3-6.65-2.28-12.85-5.93-18.59-2.61-3.37-5.21-6.75-7.82-10.12-2.06-2.04-4.25-3.86-6.55-5.49-.51-1.13-1.03-2.27-1.54-3.4-2.58-4.58-5.94-8.67-9.4-12.58-3.37-2.61-6.75-5.21-10.12-7.82-3.48-2.22-7.14-3.81-10.96-4.79-5.43-4.49-11.59-7.73-18.51-9.67-4.43-.6-8.86-1.19-13.29-1.79-8.52.03-16.48,2.08-23.9,6.11-2.61-3.06-4.92-6.4-7.83-9.16-3.63-3.09-7.26-6.17-11.29-8.68-4.76-2.6-9.74-4.81-14.91-6.38-4.83-.94-9.7-1.65-14.6-1.98-5.51.07-10.96,1.34-16.44,1.93-4.37,1.21-8.54,3.12-12.69,5.02l-5.42-7.01c-3.73-3.51-7.67-6.81-12.08-9.35-4.5-1.78-8.88-4-13.46-5.52-4.98-.53-9.95-1.64-14.94-1.81-2.07.31-4.14.56-6.22.83-.66-2.05-1.49-4.06-2.51-6.01-2.02-6.2-5.46-11.56-10.34-16.09-3.37-2.61-6.75-5.21-10.12-7.82-5.74-3.65-11.94-5.63-18.59-5.93-4.43-1.19-8.86-1.19-13.29,0-6.65.3-12.85,2.28-18.59,5.93-3.37,2.61-6.75,5.21-10.12,7.82-3.2,3.22-5.88,6.74-8.06,10.56-3.11-5.55-7.28-10.03-12.53-13.43-4.83-4.42-10.5-7.4-17-8.95-4.43-.6-8.86-1.19-13.29-1.79-6.88-.26-13.31,1.18-19.26,4.31-4.24,1.19-7.91,3.33-11.03,6.43-5.44,3.53-9.74,8.2-12.88,14.03-1.68,3.98-3.36,7.96-5.04,11.94-.6,2.04-1.01,4.1-1.3,6.15-9.17-1.51-18.71-.54-26.93,3.73-6.2,2.02-11.56,5.46-16.09,10.34-4.26,4.29-7.65,9.18-10.11,14.56-4.77-.77-9.54-.64-14.31.43-4.51.01-8.72,1.15-12.62,3.41-6.2,2.02-11.56,5.46-16.09,10.34-4.13,3.5-6.99,7.87-9.26,12.58-5.46-3.26-11.32-5.05-17.58-5.34-4.65-1.79-9.34-.46-14.05.08-6.81.27-13.1,2.45-18.98,6.13-3.91,2-6.84,5.57-10.51,8.02-2.36,1.89-3.93,4.6-5.81,6.94-3.29,4.13-6.56,8.34-8.48,13.31-2.49,6.06-5.24,12.02-7.48,18.18-1.14,3.23-2.14,6.51-3.07,9.8-4.18.15-8.09,1.27-11.73,3.38-4.24,1.19-7.91,3.33-11.03,6.43-2.03,1.06-3.78,2.43-5.23,4.11-2.88,3.26-5.55,6.7-7.99,10.32-.83,1.97-1.66,3.94-2.49,5.9-2.8.52-5.48,1.51-8.02,2.98-2.19.72-4.29,1.62-6.31,2.7-4.02,2.08-7.57,4.91-10.75,8.27-1.65,1.55-3.05,3.33-4.2,5.34-1.55,2.04-3.21,4.01-4.66,6.12-1.27,2.27-2.24,4.7-3.14,7.14-1.34,3.38-3.07,6.64-3.92,10.19-.86,3.91-1.38,7.87-1.87,11.84-.44,3.14-.86,6.28-1.25,9.42-.05.38-.1.77-.15,1.15.04-.29.08-.57.12-.86-1.06,8.62-1.86,17.26-2.16,25.94-.46,9.17-.95,18.37-.46,27.55.5,9.27.8,18.58,1.93,27.81,1.5,10.6,2.59,21.26,4.22,31.83,2.42,13.56,4.66,27.15,8.15,40.49,2.15,9.07,4.31,18.16,7.31,27,2.76,8.67,5.95,17.18,9.23,25.65,1.25,9.71,2.59,19.42,4.03,29.11,2.21,16.34,6.05,32.4,9.41,48.52,1.9,6.16,4.64,12.06,7.35,17.9,5.02,8.68,12.69,15.56,21.61,19.85,3.32,2.94,7.07,5.46,10.52,8.26,3.98,1.68,7.96,3.36,11.94,5.04,4.84,1.12,9.74,1.83,14.67,1.95.96-.06,1.92-.15,2.87-.25,3.08,1.76,6.37,3.18,10,4.01,9.31,3.88,19.41,1.64,29.08.23,3-1.18,5.98-2.43,8.94-3.71.42,1.63.86,3.27,1.3,4.9,1.68,3.98,3.36,7.96,5.04,11.94,3.14,5.83,7.43,10.5,12.88,14.03,3.12,3.1,6.8,5.24,11.03,6.43,5.96,3.13,12.38,4.57,19.26,4.31,4.43-.6,8.86-1.19,13.29-1.79,3.98-1.68,7.96-3.36,11.94-5.04,1.01-.55,1.98-1.14,2.93-1.76,1.84.97,3.73,1.79,5.64,2.41,5.96,3.13,12.38,4.57,19.26,4.31,4.43-.6,8.86-1.19,13.29-1.79,4.84-1.36,9.3-3.36,13.41-5.96,4.42,4.11,9.61,7.33,14.97,9.06,5.96,3.13,12.38,4.57,19.26,4.31,4.43-.6,8.86-1.19,13.29-1.79,1.19-.33,2.36-.72,3.51-1.13.81,14.29,7.53,28.76,19.62,36.69,4.83,4.42,10.5,7.4,17,8.95,21.55,6.19,46.63-4.08,56.96-23.64,1.68-3.98,3.36-7.96,5.04-11.94.18-.91.33-1.82.48-2.73,1.56.11,3.12.09,4.67-.08,6.81,5.26,14.9,8.74,23.5,9.16,15.04,3.34,31.22-3.12,42-13.75,3.12-3.53,5.98-7.42,8.74-11.23,1.93-4.51,4.06-9.02,5.58-13.67.53-3.87,1.15-7.75,1.67-11.63,2.21-.1,4.41-.38,6.62-.87,2.65,0,5.2-.42,7.64-1.2,5.69,3.4,12.04,5.55,18.69,5.88,6.65,1.49,13.29,1.19,19.94-.89,16.72-4.53,30.77-18.4,35.2-35.22.31-4.65,1.99-9.24,1.75-13.88,1.99-.84,3.99-1.68,5.98-2.52,6.83-4.04,12.38-9.36,16.67-15.94.02.01.04.03.06.05,4.38,2.25,9.07,3.88,13.57,5.89,9.34,2.69,18.29,2.92,28.22.27,8.66-2.55,17.19-6.95,23.1-13.74,2.6-3.74,6.07-6.9,8.25-10.89,1.87-4.63,4.04-9.14,5.71-13.85,1.75-6.77,2.2-13.81,3.22-20.71,1.32-11.12-.08-22.32-.56-33.45ZM136.26,351.29c-.17,1.37-.36,2.74-.55,4.11.18-1.37.37-2.74.55-4.11Z"/>
    <path class="cls-1" d="m480.09,127.01c-2.61-3.37-5.21-6.75-7.82-10.12-6.24-6.2-13.59-10.48-22.06-12.86-4.6-.71-10.55-1.96-14.02-1.9-8.68.77-17.44,1.83-25.54,5.25-12.66,4.65-25.22,9.6-38.04,13.82-8.33,2.8-16.55,6.15-24.36,10.18-5.12,2.76-10.09,5.8-15.25,8.45-8.19,3.07-16.39,6.15-24.2,10.09-10.4,5.91-19.34,13.93-28.63,21.42-7.68,5.64-15.39,11.27-22.54,17.56-4.58,4.57-8.91,9.37-13.26,14.16-6.52,7.43-15,12.87-21.47,20.37-12.08,14.97-23.21,30.67-33.31,47.05-4.52,7.12-8.87,14.35-13.26,21.55-2.54,5.35-4.86,10.85-6.92,16.41-1.42,5.6-2.09,11.38-2.53,17.12-.26,6.88,1.18,13.31,4.31,19.26,3.77,11.74,14.71,22.65,26.43,26.43,5.96,3.13,12.38,4.57,19.26,4.31l13.29-1.79c8.47-2.38,15.82-6.66,22.06-12.86,2.61-3.37,5.21-6.75,7.82-10.12,2.32-4.01,4.04-8.18,5.18-12.51.23-.37.47-.75.69-1.12,9.08-14.82,18.18-29.69,28.4-43.77,5.18-5.79,11.45-10.55,17.17-15.78,5.88-6.14,11.35-12.7,17.49-18.6.34-.31.7-.59,1.04-.89.94-.69,1.87-1.37,2.8-2.06,7.14-5.49,14.29-10.97,21.26-16.67,1.53-1.01,3.09-1.97,4.69-2.86,8.34-3.01,16.57-6.38,24.54-10.28,5.12-2.58,9.99-5.64,15.04-8.36,10.96-3.61,21.76-7.69,32.56-11.76,4.59-1.66,9.11-3.55,13.8-4.89,6.22-.47,12.03-2.4,17.44-5.84,5.83-3.14,10.5-7.43,14.03-12.88,4.42-4.83,7.4-10.5,8.95-17,.6-4.43,1.19-8.86,1.79-13.29-.03-9.03-2.3-17.44-6.83-25.24Z"/>
    <path class="cls-1" d="m733.79,194.63c-1.11-1.9-1.9-3.99-3.18-5.78-2.54-3.44-5.18-6.79-7.87-10.1-2.11-2.94-4.41-5.72-6.89-8.35-2.4-2.95-4.95-5.81-8.02-8.07-3.98-3.05-7.83-6.32-12.01-9.1-4.06-2.14-8.28-3.94-12.65-5.41-1.36-.62-2.78-1.06-4.21-1.47-1.29-.83-2.58-1.67-3.94-2.4-4.74-2.16-9.52-4.24-14.38-6.11-1.09-.41-2.21-.82-3.38-.95-2.21-.36-4.42-.67-6.63-.97-.54-.37-1.1-.7-1.7-.97-5.57-2.39-11.11-5.19-17.01-6.64-.85-.57-1.71-1.12-2.61-1.61-4.69-2.58-9.49-4.95-14.06-7.75-3-1.89-6.36-3.07-9.6-4.47-3.83-1.59-7.6-3.39-11.61-4.47-6.31-1.3-12.81-1.67-19.04-3.37-4.07-1.17-7.87-3.09-11.88-4.43-5.7-1.46-9.26-1.98-13.86-1.86-4.78.01-9.38.68-13.81,1.95-.62-.45-1.23-.91-1.86-1.35-5.54-3.21-11.39-5.27-17.54-6.21-1.02-.44-2.06-.84-3.14-1.19-3.9-2.26-8.11-3.4-12.62-3.41-6.65-1.49-13.29-1.19-19.94.89-4.09,1.71-8.18,3.45-12.27,5.17-5.83,3.14-10.5,7.43-14.03,12.88-2.82,3.46-5.84,6.87-6.7,11.42-1.14,1.97-2,4.03-2.58,6.19-1.28,4.53-1.79,9.21-1.89,13.97.47,4.91,1.3,9.79,1.9,14.69.69,4.14,1.78,8.24,3.17,12.2,1.94,5.32,4.26,10.5,6.72,15.6,1.87,3.47,4.15,6.51,6.84,9.16,5.05,7.16,10.32,14.26,18.43,18.27,11.75,7.76,32.79,9.49,45.17,2.53,1.82-.59,3.57-1.33,5.25-2.17,1.87.23,3.74.46,5.59.74.92.14,1.85.19,2.77.08,5.15-.76,10.38-1.14,15.46-2.24,3.09-1.24,6.18-2.49,9.24-3.81.15.02.31.04.46.07.8.1,1.6.23,2.39.4,4.56,2.75,9.41,4.97,13.97,7.71,5.85,4.21,12.45,7.04,19.2,9.52,1.11.33,2.29.59,3.5.82.45.3.91.58,1.39.82,5.48,2.43,10.95,4.98,16.72,6.65,2.81.77,5.67,1.31,8.55,1.72,3.36,1.98,7.05,3.38,10.65,4.87,1.33.66,2.68,1.24,4.05,1.78.43.49.85.98,1.28,1.47.96,1.77,1.81,3.6,2.83,5.33,3.46,6.51,7.91,12.29,14.14,16.17,9.44,8.62,24.49,12.64,36.94,9.84,6.65-.3,12.85-2.28,18.59-5.93,3.37-2.61,6.75-5.21,10.12-7.82,6.2-6.24,10.48-13.59,12.86-22.06.6-4.43,1.19-8.86,1.79-13.29.14-10.61-3.54-20.28-9.07-29.18Zm-121.78,30.85c1.65.19,3.27.39,4.82.65-1.61-.22-3.21-.43-4.82-.65Z"/>
    <path class="cls-1" d="m828.05,240.6c-1.81-4.91-3.86-9.73-6.06-14.48-1.34-2.69-3.02-5.19-4.86-7.55-5.14-6.89-10.42-13.67-16.51-19.75-2.21-2.58-4.41-5.16-6.62-7.74-5.21-6.88-10.24-13.95-16.48-19.92-4.06-3.44-8.29-6.7-12.64-9.78-5.44-2.81-11.18-5.21-17.04-7.03-5.99-1.12-12.08-1.94-18.15-2.44-5.49.27-10.94,1.17-16.36,2.05-6.58,1.53-13,4.66-18.04,9.32-7.61,4.99-13.77,12.28-16.48,20.93-5.95,11.21-5.95,27.32,0,38.53,2.02,6.2,5.46,11.56,10.34,16.09,3.37,2.61,6.75,5.21,10.12,7.82,5.37,3.11,11.03,5.13,16.97,6.12,2.82,3.72,5.67,7.43,8.66,10.89,2.75,3.47,5.84,6.63,8.83,9.88,1.66,3.9,3.94,7.45,6.84,10.63,3.53,5.44,8.2,9.74,14.03,12.88,5.74,3.65,11.94,5.63,18.59,5.93,6.65,1.49,13.29,1.19,19.94-.89,3.98-1.68,7.96-3.36,11.94-5.04,7.51-4.45,13.49-10.42,17.94-17.94,1.68-3.98,3.36-7.96,5.04-11.94,2.38-8.86,2.38-17.72,0-26.58Z"/>
    <path class="cls-1" d="m845.04,581.44c-1.55-6.51-4.53-12.17-8.95-17-3.53-5.44-8.2-9.74-14.03-12.88-3.98-1.68-7.96-3.36-11.94-5.04-8.86-2.38-17.72-2.38-26.58,0-3.98,1.68-7.96,3.36-11.94,5.04-7.3,4.32-13.14,10.1-17.54,17.32-1.6-.21-3.2-.38-4.81-.46-4.41.72-8.96.98-13.31,1.91-.91-.36-1.81-.73-2.72-1.08-4.86-1.11-9.92-1.4-14.86-2.17-4.51.67-9.09,1.09-13.56,1.9-3.98,1.68-7.96,3.36-11.94,5.04-3.37,2.61-6.75,5.21-10.12,7.82-2.61,3.37-5.21,6.75-7.82,10.12-1.08,2.02-1.99,4.12-2.7,6.31-.82,1.46-1.5,2.98-2.05,4.54,0,0,0,.01-.01.02-3.11,4.92-6.49,9.71-9.05,14.95-2.77,6.14-5.33,12.38-7.78,18.66-3.62,1.53-7.24,3.06-10.86,4.58-3.06,2.29-6.06,4.65-9.08,6.98-1.1.21-2.19.44-3.28.7-4.18,1.48-8.25,3.2-12.21,5.17-8.34,3.9-13.86,11.89-19.23,19.12-.1.16-.19.32-.29.48-.87-.12-1.74-.24-2.61-.37-1.2-.11-2.41-.22-3.61-.21-6.36.46-12.72,1.48-19.02,2.45-3.61,1.23-7.12,2.78-10.63,4.31-.15.05-.3.1-.46.14-6.51,1.55-12.17,4.53-17,8.95-2.2,1.43-4.2,3.05-6.03,4.85-1.09-.23-2.17-.5-3.22-.84-.12-.04-.25-.09-.37-.13-.28-.12-.55-.24-.83-.36-2.24-1.29-4.37-2.78-6.74-3.85-2.45-1.04-4.89-2.09-7.34-3.13-.57-1.55-1.25-3.08-2.04-4.57-2.02-6.2-5.46-11.56-10.34-16.09-4.53-4.88-9.89-8.32-16.09-10.34-5.96-3.13-12.38-4.57-19.26-4.31l-13.29,1.79c-8.47,2.38-15.82,6.66-22.06,12.86-2.61,3.37-5.21,6.75-7.82,10.12-6.89,11.76-8.62,25.98-5.05,39.14.6,2.54,1.79,4.92,2.88,7.3,1.73,4.4,3.72,8.68,5.81,12.92,1.66,3.51,3.39,7.02,5.84,10.06,4.41,5.34,8.02,11.46,13.37,15.94,3.85,2.86,7.49,6.03,11.46,8.7,4.46,2.24,9.05,4.22,13.66,6.13.42.18.83.37,1.25.55.91.49,1.8,1.01,2.69,1.53,4.02,2.61,8.49,4.35,12.94,6.11,3.55,1.58,7.12,3.1,10.75,4.5,4.41,1.93,9.09,2.91,13.84,3.57,1.03.29,2.07.57,3.13.74,5.99.74,11.97,2.05,18.01,2,4.61.05,9.17-.58,13.73-1.25.17-.02.34-.04.52-.07.76-.1,1.52-.2,2.29-.26,1.84.21,3.68.37,5.53.42,5.22-.5,10.47-1.19,15.63-2.1,6.31-2.3,12.68-4.84,18.35-8.49.99-.81,2.01-1.59,3.05-2.35,1.46.56,2.93,1.1,4.42,1.6,5.47.97,11.02,1.53,16.52,2.32,5.46.06,10.89-1.27,16.31-1.88,4.52-1.5,8.85-3.57,13.23-5.45,3.59-2.31,7.05-4.87,10.22-7.77,3.46-.12,6.92-.71,10.38-1.79,4.38-.85,8.5-2.56,12.36-5.12,1.56-1.21,3.12-2.41,4.68-3.62,1.59-.22,3.17-.44,4.76-.64,3.98-1.68,7.96-3.36,11.94-5.04,3.37-2.61,6.75-5.21,10.12-7.82,2.91-3.33,5.45-7.03,8.23-10.48,1.64-2.95,3.07-6,4.69-8.96,1.21-2.31,2.69-4.44,4.06-6.65,1.81-4.12,3.5-8.28,5.27-12.42.23-.65.44-1.3.63-1.95,1,.38,2.02.68,3.08.87,4.62,1.01,9.28,1.62,13.97,1.82,4.97-.23,9.88-.87,14.7-2,4.45-1.93,9.04-3.57,13.4-5.7,7.79-4.97,14.92-11.05,20.62-18.34,5.59-7.36,11.81-14.41,15.81-22.81,2.03-4.92,4.44-9.73,6.03-14.81.17-1,.33-2.01.49-3.02,5.09-6.63,10.1-13.33,14.84-20.22,3.65-5.74,5.63-11.94,5.93-18.59,1.49-6.65,1.19-13.29-.89-19.94Z"/>
    <path class="cls-1" d="m484.09,615.12c-2.02-6.2-5.46-11.56-10.34-16.09-3.37-2.61-6.75-5.21-10.12-7.82-7.8-4.52-16.21-6.8-25.24-6.83l-13.29,1.79c-9.06,2.58-17.17,7.33-23.44,14.4-1.79,2.08-3.79,3.93-5.88,5.7-6.05,4.41-12.22,8.65-18.2,13.16-6.73,4.99-13.26,10.25-20.07,15.13-3.18,2.06-6.49,3.91-9.87,5.62-6.31,2.15-12.73,4.02-19,6.29-3.37,1.14-6.77,2.21-10.23,3.03-.09,0-.17,0-.26,0-5.32.05-10.62-.28-15.92-.78-1.25-.17-2.51-.33-3.76-.5-1.95-.24-3.91-.41-5.86-.59-1.04-.14-2.07-.27-3.11-.41-1.62-.34-3.22-.76-4.79-1.29-6.45-3.07-12.92-6.12-19.77-8.19-.22-.93-.47-1.85-.76-2.78-1.68-3.98-3.36-7.96-5.04-11.94-4.45-7.51-10.42-13.49-17.94-17.94-3.98-1.68-7.96-3.36-11.94-5.04-8.86-2.38-17.72-2.38-26.58,0-4.51,1.58-8.83,3.68-13.26,5.47-3.79,2.29-7.24,4.97-10.35,8.04-2.96,3.51-5.69,7.21-8.47,10.87-1.5,2.44-2.42,5.19-3.53,7.82-1.07,2.4-2.15,4.81-2.99,7.3-.64,2.62-.91,5.33-1.2,8.01-.49,2.93-1.1,5.92-.86,8.89.56,4.83,1.06,9.69,2.04,14.44,1.73,5.19,3.77,10.44,6.78,15.06,4.47,5.98,8.88,12.1,14.33,17.25,7.3,6.48,15.45,11.83,23.66,17.06,2,1.55,4.02,3.08,6.08,4.54,4.75,2.53,9.89,4.28,14.81,6.48,2.65,1.16,5.44,1.91,8.21,2.74,7.28,3.43,14.68,6.67,22.31,9,8.16,1.95,16.58,2.69,24.91,3.68,2.04.27,4.07.54,6.11.82,1.2.1,2.41.21,3.61.33,7.63,1.03,14.98,1.71,22.87,1.66,7.66-.22,15.23-1.76,22.82-2.71,8.28-1.21,16.09-4.51,24.02-7.08,13.76-4.15,27.25-9.43,39.79-16.56,10.12-6.28,19.05-14.31,28.8-21.14,12.24-8.83,24.68-17.48,36.06-27.43,1.6-1.52,3.06-3.18,4.52-4.84,4.88-4.53,8.32-9.89,10.34-16.09,3.13-5.96,4.57-12.38,4.31-19.26.26-6.88-1.18-13.31-4.31-19.26Z"/>
  </g>
  <g id="Layer_1" data-name="Layer 1">
    <line class="cls-3" x1="177.22" y1="298.05" x2="177.22" y2="650.63"/>
    <line class="cls-3" x1="566.52" y1="398.36" x2="177.22" y2="298.05"/>
    <line class="cls-3" x1="566.52" y1="774.1" x2="566.52" y2="398.36"/>
    <line class="cls-3" x1="177.22" y1="650.63" x2="566.52" y2="770.17"/>
    <line class="cls-3" x1="566.52" y1="398.36" x2="812.1" y2="231.42"/>
    <line class="cls-3" x1="177.22" y1="298.05" x2="470.85" y2="149.75"/>
    <line class="cls-3" x1="566.52" y1="770.41" x2="812.1" y2="594.31"/>
    <line class="cls-3" x1="812.1" y1="597.31" x2="812.1" y2="231.42"/>
    <line class="cls-3" x1="812.1" y1="231.42" x2="466.25" y2="149.98"/>
    <line class="cls-3" x1="3.5" y1="175.94" x2="3.5" y2="715.34"/>
    <line class="cls-3" x1="955.82" y1="111.07" x2="956.24" y2="650.63"/>
    <line class="cls-3" x1="3.5" y1="715.34" x2="633.05" y2="919.74"/>
    <line class="cls-3" x1="956.24" y1="650.63" x2="633.05" y2="919.74"/>
    <line class="cls-3" x1="3.5" y1="175.94" x2="629.18" y2="296.06"/>
    <line class="cls-3" x1="629.18" y1="296.06" x2="955.82" y2="111.07"/>
    <line class="cls-3" x1="2.24" y1="178.34" x2="422.56" y2="3.43"/>
    <line class="cls-3" x1="955.82" y1="111.07" x2="422.56" y2="3.43"/>
    <line class="cls-3" x1="3.5" y1="715.34" x2="182.54" y2="652.48"/>
    <line class="cls-3" x1="956.24" y1="650.63" x2="812.1" y2="594.31"/>
    <line class="cls-3" x1="633.05" y1="919.74" x2="566.52" y2="770.17"/>
    <line class="cls-3" x1="955.82" y1="111.07" x2="812.1" y2="231.42"/>
    <line class="cls-3" x1="3.5" y1="175.94" x2="177.22" y2="298.05"/>
    <line class="cls-3" x1="422.56" y1="3.43" x2="466.25" y2="149.98"/>
    <line class="cls-3" x1="629.18" y1="296.06" x2="633.05" y2="919.74"/>
    <line class="cls-3" x1="566.52" y1="398.36" x2="629.18" y2="296.06"/>
    <path class="cls-2" d="m184.87,645.58c-.09-1.25-.24-2.49-.42-3.73-.07-.62-.07-1.23-.07-1.85-.03-5.73.08-11.47-.07-17.2-.19-3.16-.61-6.3-.5-9.47-.03-8.09.07-16.19-.05-24.28-.51-8.58-1.3-17.15-1.65-25.74-.12-11.63.18-23.27-.16-34.9-.33-4.82-1.22-9.59-1.43-14.42-.01-5.42.82-10.81,1.23-16.21.57-9.09,1.3-18.17,1.98-27.25.14-8.56.11-17.13,0-25.69-.23-4.4-.66-8.78-.5-13.2-.03-9.77.07-19.54-.05-29.3-.23-5.23-.61-10.44-.6-15.68-.74-8.38-.91-16.8-1.53-25.18-.18-4.43-.02-8.88-.56-13.29-.25-4.52-1.23-8.93-2.08-13.36-.5-7.1-.47-14.31.3-21.39.15-.93.4-2.52.55-3.18.51-2.54,1.03-5.09,1.87-7.54.54-1.38,1.27-2.82.86-4.33-.66-6.31-9.94-7.09-11.68-.8-4.44,11.94-4.67,25.09-3.88,37.67.97,7.08,1.81,8.43,2.03,12.69.58,4.75.39,9.53.61,14.29.66,8.2.77,16.44,1.51,24.64-.03,5.13.37,10.23.59,15.35.14,10.46.02,20.93.06,31.4-.13,3.43.27,6.84.47,10.25.21,7.2.06,14.4.1,21.6-.13,10.96-1.54,21.88-2.1,32.83-.42,6-1.56,12.02-1.04,18.04.39,4.72,1.23,9.4,1.37,14.14.12,10.66.03,21.33.06,31.99.24,10.58,1.74,21.11,1.71,31.7.03,7.39-.05,14.79.03,22.18.31,4.35.67,8.69.54,13.06.13,4.9-.32,9.84.37,14.69.01.11.03.22.04.33.33,1.85-.2,3.86.68,5.57.87,2.5,3.85,4.12,6.43,3.58,4.03-.42,6.2-4.58,4.97-8.01Z"/>
    <path class="cls-2" d="m469.84,140.77c-1.97-.57-3.99.09-5.78.95-.36.18-.69.33-.96.46-.53.19-1.07.38-1.61.57-.45.18-1.47.61-2.23.93-6.41,2.57-12.21,5.9-14.87,6.92-3.3,1.23-6.75,2.01-10.09,3.13-3.77,1.46-7.46,3.15-11.12,4.86-3.12,1.81-6.59,2.93-9.67,4.82-4.19,2.36-8.02,5.29-12.22,7.62-5.32,2.64-10.71,5.14-16.01,7.83-4.29,2.45-8.53,5.01-12.8,7.49-6.13,3.3-8.19,4.31-12,5.62-3.88,1.51-7.52,3.56-11.33,5.25-4.96,2.54-9.74,5.43-14.83,7.74-4.61,1.8-9.11,3.83-13.43,6.22-6.48,3.93-12.46,8.63-19.03,12.42-3.6,2.07-7.47,3.62-11.14,5.56-3,1.77-5.76,3.91-8.71,5.77-6.76,4.35-12.97,9.57-20.24,13.09-4.12,1.45-8.26,2.04-12.32,3.99-6.67,2.75-12.51,7.03-18.7,10.62-2.01.78-4.05,1.49-6.03,2.36-7.95,3.21-14.91,8.31-22.63,12-3.14,1.61-13.98,4.74-21.03,9.08-2.37,1.55-5.33,2.94-6.45,5.67-2.64,5.88,5.1,11.18,9.73,6.55.16-.14.31-.28.47-.42.05-.03.09-.06.14-.09,2.86-1.87,5.9-3.45,9.02-4.84,6.08-2.4,12.36-4.34,18.09-7.57,5.77-3.21,11.33-6.79,17.38-9.44.08-.03.16-.07.25-.1,2.64-1.09,5.41-1.91,7.96-3.23,3.39-2.08,6.62-4.42,10.14-6.3,7.13-4.01,7.76-4.06,16.06-6.29,6.03-2.08,11.33-5.79,16.54-9.39,5.34-3.88,10.86-7.52,16.4-11.1,4.35-2.28,8.95-4.08,13.1-6.74,7.09-4.21,13.44-9.66,20.9-13.24,3.09-1.75,8.33-3.34,14.69-6.75,5.49-2.95,10.95-5.94,16.64-8.5,2.71-1.39,1.68-.56,6.54-2.65,10.55-4.6,19.87-11.47,30.35-16.22,3.29-1.67,6.73-3.07,9.93-4.92,2.53-1.58,4.97-3.3,7.5-4.87,4.72-3.05,9.91-5.16,14.9-7.7,6.07-2.92,7.83-3.05,16.16-5.75,7.32-3.01,13.86-6.72,17.69-8.11-.48.2-.96.4-1.43.6.98-.44,2.02-.75,3.02-1.13.81-.32,1.6-.68,2.38-1.05.98-.29,1.99-.51,2.72-1.26,3.96-2.67,2.58-9.38-2.04-10.5Z"/>
    <path class="cls-2" d="m818.27,219.86c-1.64-1.23-3.64-1.67-5.53-2.36-2.32-1.13-4.44-2.7-6.99-3.31-3.19-.84-6.48-.75-9.75-.79-.53,0-1.07-.03-1.6-.06-.35-.07-.7-.12-1.04-.21-.7-.22-1.18-.39-1.41-.47-.3-.13-.59-.26-.88-.42-2.3-1.19-4.44-2.67-6.89-3.56-5.35-2.13-11.22-2.07-16.89-2.09-7.67.18-9.9-1.07-18.99-3.7-5.93-1.44-12.02-1.27-18.06-1.67-.02,0-.04,0-.06-.01-3.35-.77-6.5-2.17-9.81-3.05-4.42-1.05-8.98-1.45-13.36-2.68-2.97-.88-5.87-1.95-8.73-3.12-2.76-.95-5.62-1.56-8.45-2.26-1.52-.41-3.02-.87-4.5-1.4-2.21-1.14-4.33-2.48-6.7-3.31-6.76-2.43-7.06-1.09-12.07-2.43-6.37-1.45-5.03-1.94-11.71-3.93-7.93-1.43-8.23-.49-14.7-2.06-6.39-1.47-12.25-4.94-18.88-5.43-4.23-.5-8.51-.06-12.76-.41-8.56-.61-17.15-.68-25.69-1.52-13.94-1.86-16.89-.93-27.34-6.76-7.99-3.85-16.89-5.16-25.09-8.47-2.62-1.21-5.29-2.35-7.7-3.97-.22-.15-.44-.32-.65-.48-4.05-3.12-8.11-6.43-13.24-7.51-6.47-1.26-13.14-.62-19.69-.62-4,.15-8,.43-11.99.73-1.83.3-3.82,0-5.51.81-5.94,2.34-4.2,11.49,2.31,11.48,10.4-.9,20.91-1.54,31.34-.91.42.09,1.02.23,1.59.41.5.15.99.32,1.36.46.1.04.2.08.29.13,6.95,4.55,8.77,7.23,18.12,10.79,8.76,3.64,19.7,5.53,24.09,8.18,3.55,1.84,7.17,3.65,11.02,4.75,3.75.99,7.63,1.27,11.46,1.84,4.5.49,8.98,1.12,13.49,1.52,3.86.04,7.68.47,11.53.64,4.62.01,9.21.51,13.82.64,8.01.14,7.88-.44,14.55,1.81,4.16,1.46,8.24,3.22,12.61,3.96,3.76.77,7.59.93,11.4,1.36.37.07.73.14,1.1.21,3.29.72,5.5,2.57,11.86,3.98,7.42,1.39,9.95,1.15,12.48,2.72,5.15,3.36,11.21,4.48,17.06,6,3.24,1,6.31,2.46,9.56,3.4,3.54,1.15,7.25,1.63,10.89,2.3,4.83.62,9.22,2.88,13.96,3.89,4.82.8,9.73.41,14.57,1,4.43.63,8.59,2.39,12.9,3.52,6.53,1.51,13.26,1.01,19.9,1.35.37.03.75.08,1.12.12,1.43.23,2.85.59,4.21,1.09,4.28,2.3,8.54,5.05,13.53,5.33,5.82.47,6.25-.39,9.63.74,2.29,1.38,4.68,2.57,7.23,3.42.23.07.46.13.69.2.98.61,1.97,1.29,3.16,1.29,6.3,1.04,9.48-7.76,3.83-11.07Z"/>
    <path class="cls-2" d="m806.21,224.83c-.16,0-.33-.02-.49-.03-.05-.01-.1-.04-.15-.05-.34-.2-.67-.42-1-.65-2.32-1.72-5.04-2.73-7.69-3.83-2.91-1.38-6.04-2.06-9.11-2.95-5.43-1.43-10.66-3.57-16.12-4.89-4.09-.88-8.27-1.26-12.38-2.04-4.76-1.49-3.39-1.17-5.77-2.14-5.52-2.57-11.41-4.19-17.17-6.11-6.2-2.03-5.65-2.48-12.76-4.75-10.52-1.97-12.93-1.33-22.7-3.79-3.66-.68-7.34-1.27-11.04-1.71-2.63-.2-5.28-.05-7.91-.3-.03,0-.05,0-.07,0-.38-.06-.75-.12-1.13-.19-3.2-.51-6.39-1.08-9.44-2.21-2.78-.87-5.64-1.37-8.5-1.91-4.76-.9-9.55-1.58-14.38-1.96-3.31-.52-6.63-1.04-9.83-2.06-2.52-.81-4.98-1.83-7.6-2.25-5.22-1.03-10.57-.46-15.86-.62-6.39-.17-6.22.12-10.36-.89-2.45-.85-4.86-1.81-7.3-2.69-2.41-.89-4.73-2.15-7.31-2.47-5.76-1.01-11.58-1.26-17.4-1.6-3.39-.57-6.72-1.46-10-2.51-.72-.28-1.44-.56-2.15-.84-.59-.26-1.19-.53-1.78-.81-6.87-3.56-14.2-5.97-21.66-7.93-7.33-2.33-7.19-2.1-13.75-5.98-5.1-2.73-10.56-4.64-16.08-6.35-2.38-.81-4.85-1.36-7.28-2-1.36-.3-2.73-.9-4.13-.54-6.32.66-7.06,9.97-.8,11.68,6.16,1.35,17.48,5.08,18.47,5.74,5.86,2.81,10.93,6.34,17.32,8.06,5.7,1.86,11.58,3.17,17.14,5.45,6.92,3.46,14.09,6.5,21.78,7.68,8.45,1.02,12.74.6,17.94,1.67,3.73.93,7.18,2.78,10.85,3.93,8.81,3.65,18.64,2.03,27.93,2.46.23.01.46.03.69.04.01,0,.02,0,.04,0,5.11.91,9.82,3.32,15.01,3.93,6.63,1.15,11.57,1.26,14.4,1.91,4.46.82,8.98,1.48,13.25,3.05,5.83,1.59,11.89,2.47,17.94,2.42.84.01,1.68.07,2.52.17,5.22.65,10.31,1.95,15.46,2.96,6.51,1.03,5.71.52,10.57,1.35,8.55,1.32,8.76,2.91,16.82,5.48,4.57,1.51,9.2,2.86,13.68,4.64,2.62,1.21,5.27,2.35,8.02,3.25,3.65.98,7.47,1.2,11.19,1.9,3.61.58,7.07,1.79,10.54,2.91,5.97,2.18,12.31,3.2,18.11,5.83-.48-.2-.96-.4-1.43-.6,3.03,1.02,5.36,3.31,8.33,4.41,3.5,1.26,8.57,1.14,10.01-2.96,1.82-3.71-1.38-8.45-5.48-8.31Z"/>
    <path class="cls-2" d="m823.65,226.67c-2.54-4.46-9.64-3.66-10.97,1.43-2.94,13.68-3.65,27.81-3.46,41.78.38,11.42,1.91,22.79,1.35,34.23-.57,7.12-1.54,14.21-2.41,21.3-.41,7.4-1.6,14.74-1.85,22.14-.06,8.18.91,16.32,1.48,24.47.15,5.85.12,11.71.13,17.56-.07,7.38-.2,7.08-1.17,12.69-1.04,6.3-2.36,12.54-3.96,18.72-2.31,8.62-5.18,17.42-4.73,26.45.31,6.18,4.04,11.48,5.27,17.47.73,2.34.6,11.43.6,18.49.48,11.46,1.96,22.85,2.72,34.29.33,25.58.03,51.17.13,76.76-.04,2.49-.24,5.26,1.76,7.1,2.22,2.31,6.26,2.31,8.49,0,1.05-1.18,1.8-2.63,1.76-4.24,0-8.83,0-17.67,0-26.5v-27.17c-.05-8.71.13-17.42-.14-26.12-.7-8.98-1.51-17.96-2.31-26.94-.96-9.38.39-18.9-1.3-28.21-.98-5.07-3.53-9.66-4.94-14.6,0-.02,0-.04,0-.06-.23-6.7-.03-5.08,1.01-11.03,1.3-5.74,3.03-11.36,4.42-17.07,1.73-7.94,3.41-15.92,4.27-24.01.25-7.87.16-15.76,0-23.63-.58-8.25-1.57-16.49-1.47-24.78.29-7.2,1.41-14.33,1.82-21.52.84-7.15,1.86-14.3,2.43-21.48.33-8.3-.14-16.61-.85-24.88-1.32-12.42.14-34.46,1.14-40.89.4-2.39.92-4.76,1.4-7.14.43-1.56.2-3.23-.6-4.62Z"/>
    <path class="cls-2" d="m570.19,768.93c-1.22-.77-2.63-.84-4.03-.86-.3-.01-.59-.05-.89-.07-.59-.12-1.17-.31-1.73-.53-.38-.16-.77-.32-1.15-.5-2.88-1.26-.93-1.2-5.33-3.16-.5-.09-1.11-.17-1.59-.22-2.2-.49-4.37-1.1-6.62-1.37-7.1-.95-7.15-.65-11.78-1.43-6.92-1.47-13.52-3.94-20.19-6.22-3.24-1-6.35-2.39-9.68-3.06-5.24-.99-10.4-2.42-15.39-4.32-.37-.16-.74-.33-1.11-.5-2.49-1.12-4.83-2.54-7.27-3.76-3.27-1.33-6.61-2.52-9.98-3.56-8.91-1.91-9.72-1.15-17.94-3.59-1.25-.39-2.54-.69-3.78-1.13-.11-.05-.23-.1-.34-.16-5.6-2.88-11.25-5.76-17.32-7.53-6.41-1.92-12.99-3.25-19.29-5.51-4.86-1.72-9.5-4.14-14.65-4.93-8.5-2.09-17.23-2.48-25.88-3.6-.24-.03-.48-.06-.72-.09-3.62-.58-7.12-1.76-10.67-2.64-4.72-1.59-9.71-2.07-14.49-3.43-7.71-2.68-7.72-3.01-14.85-6.07-2.81-.99-2.48-1.18-7.61-3.46-4.81-1.84-9.82-3.16-14.6-5.11-3.41-1.56-6.26-4.04-9.38-6.07-9.31-6.19-25.63-9.67-30.79-12.72-6.74-3.47-12.96-7.95-19.93-10.93-3.91-1.62-8.24-1.83-12.38-2.52-7.13-1.11-14.32-1.19-21.51-1.12-8.29-.2-11.72-.74-14.56-2.34-3-2.03-6.3-3.57-9.31-5.56-.92-.78-1.79-1.61-2.57-2.52-.58-.92-1.03-1.95-2.02-2.51-4.89-4.05-12.17,2.04-8.82,7.74,2.9,5.15,8.02,8.32,13.1,11.01,4.17,2.82,8.76,5.04,13.86,5.38,7.3,1.2,14.69.61,22.05.91,2.93.14,5.84.52,8.75.88,3.09.54,6.28.78,9.24,1.84,7.01,3.41,13.44,7.97,20.49,11.33,7.08,3.07,14.58,5.04,21.74,7.88,2.48,1.27,4.98,2.55,7.32,4.07,3.6,2.61,7.19,5.29,11.42,6.78,4.39,1.78,8.94,3.12,13.42,4.65,2.74,1.31,5.44,2.7,8.3,3.73,3.34,1.51,6.64,3.08,10.09,4.32,5.39,2.49,11.26,3.19,16.96,4.59,6.64,1.93,13.31,3.79,20.23,4.32,11.16,1.19,14.1,1.26,24.5,3.9,4.54,1.52,8.86,3.63,13.46,4.98,6.64,2.1,13.54,3.35,20.08,5.78,1.42.41,5.89,2.7,10.89,5.21,10.18,4.31,17.18,4.1,24.9,5.95,5.25,1.85,6.68,2.15,9.08,3.56,6.78,3.74,14.16,6.41,21.74,7.93,12.39,2.61,23.8,8.99,36.48,10.42,3.75.48,5.42.51,9.51,1.11,1.63.31,3.23.73,4.84,1.12.26.04.52.07.78.11.02.01.04.02.06.04,3.35,2.5,7.36,4.22,11.53,4.6,2.3.33,4.85.19,6.54-1.61,2.74-2.65,2.12-7.53-1.21-9.42Z"/>
    <path class="cls-2" d="m816.01,592.96c-9.41,5.03-16.9,12.82-24.98,19.66-.7.72-8.98,6.62-14.18,9.31-5.88,3.14-11.49,6.72-17.05,10.39-3.03,1.79-6.09,3.52-9.02,5.47-6.26,4.43-12.58,8.79-18.91,13.15-5.56,4-10.89,8.29-16.43,12.31-6.1,4.5-12.48,8.6-18.54,13.15-6.65,5.32-7.1,6.24-13.04,10.23-9.85,7.6-21.2,13.07-30.78,21.03-6.29,5.09-11.95,10.89-18.07,16.17-3.89,3.01-8,5.7-11.91,8.69-3.87,2.97-5.16,3.87-11.41,7.77-7.28,4.1-14.8,7.76-22.12,11.79-7.12,4.3-13.56,9.59-20.77,13.75-.94.54-1.87,1.11-2.8,1.66-2.72-.17-5.61,1.4-6.6,5.41-1.39,4.84,3.83,9.23,8.4,7.04,3.65-1.42,6.91-3.69,10.23-5.75,2.57-1.66,5.25-3.1,7.6-5.07,9.91-7.55,21.43-12.4,32.21-18.53,4.46-2.68,8.75-5.65,12.84-8.88,5.17-3.67,10.47-7.24,15.2-11.47,7.46-6.84,14.31-13.46,19.47-16.96,7.57-5.19,15.62-9.64,22.98-15.13,3.36-2.48,6.84-4.8,10.11-7.41,4.32-3.82,3.86-3.45,6.77-5.66,11.36-7.72,22.32-15.97,33.31-24.2,6.17-4.18,12.26-8.46,18.35-12.74,5.62-3.53,11.34-6.9,16.91-10.52,7.04-4.49,14.68-7.99,21.33-13.11,6.91-4.99,12.79-11.22,19.53-16.42,1.58-1.19,3.16-2.4,4.9-3.34,2.18-1.18,4.67-2.38,5.28-5.01,1.43-5.02-4.24-9.52-8.81-6.78Z"/>
    <path class="cls-2" d="m571.62,707.99c.01-7.87.15-15.76-.89-23.58-.31-2.71-.16-5.43-.33-8.14-.24-2.8-.43-5.61-.56-8.42-.68-5.96-.35-11.96-.6-17.94-.45-4.63-.47-9.29-.49-13.94-.13-3-.52-5.99-.53-9-.07-9.15.16-18.3-.5-27.44-.1-6.86-.12-13.71-.57-20.56-.07-14.06-.32-28.14.14-42.19.45-9.42,1.13-18.83,1.91-28.22.21-6.98.7-13.95,1.22-20.9.16-11.27.03-22.55.07-33.83,0-3.27-.5-6.52-.54-9.79-.12-3.71.24-7.46-.45-11.14-.31-2.59-1.52-4.91-2.23-7.39-.94-3.12-1.67-6.3-2.41-9.47-1.81-4.71-2.33-9.92-2.29-10.86-.07-2.83-.04-5.66-.05-8.49.01-2.33-1.45-4.71-3.69-5.48-3.7-1.82-8.45,1.37-8.31,5.48-.1,6.4,0,12.85,1.63,19.08,1.62,4.47,2.31,9.19,3.79,13.7,2.37,6.61,1.94,5.24,1.99,11.93-.05,3.1.17,6.19.46,9.28.2,4.97.06,9.94.1,14.92-.04,7.67.1,15.35-.1,23.02-.48,4.93-.72,9.87-.99,14.82-.49,11.84-1.81,23.64-2.19,35.49-.29,12.15-.1,24.32-.1,36.48.21,7.86.64,15.7.62,23.56.64,9.44.46,18.89.52,28.34.29,5.42.64,10.57.61,16.03.45,6.5.53,13,.62,19.51.42,6.64,1.04,13.27,1.13,19.93,1.02,8.2,1.12,16.45,1.03,24.7-.01,10.77.22,33.57-.61,37.94-.6,3.57-1.5,7.08-2.3,10.61-.46,2.5-1.92,4.95-1.53,7.51.65,6.27,9.93,7.11,11.68.8,1.86-6.59,3.6-13.27,4.27-20.1,1-12.04.31-24.16.51-36.23Z"/>
    <path class="cls-2" d="m569.74,539.84c.55-10.71,2.18-21.32,2.78-32.02.41-7.98.04-15.99.48-23.96.31-6.27,1.3-12.49,2.09-18.71.83-5.17,1.59-10.35,1.6-15.59.14-4.97.02-9.94.23-14.91.38-4.21.92-8.39,1.42-12.59.68-5.14,1.37-10.28,2.05-15.43.43-2.64.85-5.28,1.28-7.91.43-1.56.2-3.23-.6-4.62-2.54-4.43-9.64-3.69-10.97,1.43-1.5,8.68-2.53,17.43-3.72,26.15-1.13,8.1-1.84,16.22-1.62,24.4.11,11.76-2.2,20.01-3.51,34.14-.75,9.07-.29,18.17-.69,27.25-.4,8.69-1.76,17.28-2.33,25.96-.89,9.27-.88,18.58-.88,27.88-.4,11.58-.67,23.16-.56,34.75.06,8.9-.14,17.81.12,26.71.64,8.53,1.72,17.04,2.06,25.6.23,5.85-.23,11.73.61,17.54.31,3.22,1.04,6.38,1.57,9.56.3,3.03.6,6.06.81,9.1.89,7.67.14,15.4,1.04,23.07-.02,3.97.44,7.91.59,11.87-.06,6.28.33,12.55,1.02,18.79.12,1.85.17,3.71.56,5.52.02.3.03.6.06.9.14,7.06.14,10.33,1.04,14.3.23,1.3.64,2.55,1.16,3.76.17.7.44,1.35.75,1.99.04.69.16,1.36.5,1.96,2.32,5.95,11.51,4.18,11.48-2.31.01-1.49-.31-3.44-1.23-5-.12-.32-.28-.73-.47-1.17-.02-.04-.04-.08-.06-.13-.01-.21-.45-1.67-.67-2.62-.01-.12-.03-.24-.04-.35-.59-3.13-.18-5.47-.56-11.72-.11-.95-.22-1.91-.4-2.85,0-.28-.02-.56-.03-.84-.66-6.83-1.23-13.67-1.13-20.55-.42-5.17-.41-10.36-.91-15.52-.42-4.26-.03-8.56-.25-12.84-.28-5.21-.8-10.4-1.29-15.6-.86-6.81-1.59-8.2-1.87-12.18-.47-6.19.04-12.42-.51-18.61-.37-8.25-1.71-16.43-1.93-24.68.02-15.69-.24-31.4.18-47.09.6-10.94.06-21.91.75-32.85Z"/>
    <path class="cls-2" d="m816.27,243.01c-1.24-4.57-7.02-5.71-10.07-2.61-1.62.9-3.23,1.84-4.89,2.66-.82.38-1.6.84-2.41,1.23-2.96,1.18-6,2.17-8.91,3.49-.85.37-1.69.75-2.53,1.13-.15.06-.31.13-.46.19-5.96,2.26-11.19,5.98-16.93,8.7-4.81,2.3-9.74,4.39-14.37,7.06-2.79,1.69-5.35,3.7-8.07,5.5-4.91,3.27-10.21,5.85-15.43,8.57-4.47,2.44-8.67,5.32-12.89,8.16-7.85,4.82-15.07,10.55-22.45,16.04-14.52,10.27-28.68,21.17-44.3,29.76-8.2,4.45-15.66,10.01-23.29,15.33-9.33,5.64-18.47,11.6-26.68,18.81-8.76,7.22-16.68,15.38-23.98,24.07-2.98,3.37-5.85,6.83-8.67,10.33-.59.54-1,1.19-1.24,1.93-2.64,5.86,5.09,11.19,9.73,6.55,6.54-7.99,13.2-15.91,20.43-23.28,5.79-5.81,12.07-11.09,18.44-16.23,6.08-4.52,12.56-8.4,18.97-12.43,6.24-4.43,12.37-9.02,19.05-12.8,6.32-3.66,12.68-7.26,18.76-11.31,6.66-4.47,13.11-9.24,19.73-13.76,8.58-6.21,17.07-12.76,25.66-18.79,5.26-3.47,10.48-7.01,15.84-10.34,3.84-2.29,7.9-4.17,11.84-6.28,4.67-2.59,9-5.68,13.4-8.68,3.74-2.44,7.88-4.2,11.9-6.11,8.75-3.96,16.22-8.98,21.65-10.88,3.28-1.67,6.37-2,12.49-5.24.02-.02.05-.03.08-.04.76-.32,1.5-.66,2.21-1.08,1.76-1.13,3.8-1.83,5.37-3.25,1.78-1.56,2.73-4.09,2.05-6.4Z"/>
    <path class="cls-2" d="m561.12,394.09c-.53-.9-1.25-1.62-2.15-2.15,0,0,.01.01.02.02,0,0-.02-.02-.02-.02-2.22-1.59-.82-.86-4.43-3.6-2.79-1.94-6.24-2.33-9.32-3.62-2.54-.81-4.99-1.86-7.5-2.77-3.34-1.11-6.76-1.98-10.09-3.13-7.58-2.48-15.11-5.12-22.69-7.56-5.15-1.72-10.24-3.69-15.53-4.97-5.7-1.27-11.37-2.64-17.1-3.79-6.08-1.87-12.33-2.91-18.62-3.72-9.15-1.23-18.41-.32-27.58-1.26-6.84-.08-14.15-1.93-24.46-2.56-6.14-.83-8.6-.87-11.39-1.4-4.06-.83-7.88-2.52-11.9-3.51-5.02-1.4-10.11-2.45-15.11-3.94-2.87-.78-5.52-2.18-8.38-2.98-11.65-4.18-23.31-8.3-34.84-12.79-5.96-2.11-4.31-1.85-10.15-4.3-4.83-1.87-9.8-3.32-14.73-4.93-2.65-.96-5.32-1.83-7.95-2.86-3.57-1.43-7.11-3.06-10.87-3.93-6.82-1.87-13.79-3.09-20.7-4.56-7.13-1.52-14.27-2.92-21.53-3.72-.55-.13-3.72-.69-4.71-.9-4.75-1.15-9.65-1.07-14.47-1.63-.91-.1-1.82-.17-2.73-.24-.97-.16-1.93-.35-2.89-.57-2.56-.46-5.19-.67-7.66-1.56-5.12-1.99-10.42-3.45-15.79-4.58-2.33-.53-4.67-.99-7.01-1.48-.8-.25-1.6-.29-2.39-.11-6.29.66-7.09,9.96-.8,11.68,5.35,1.1,10.71,2.21,15.97,3.69,2.68.81,5.26,1.86,7.92,2.72,2.19.63,4.47.81,6.7,1.24,5.54,1.28,11.26,1.35,16.9,1.87,5.24.94,10.47,1.89,15.75,2.49,7.81,1.41,15.57,3.08,23.34,4.71,4.65.9,9.29,1.96,13.82,3.32,6.35,2.31,6.42,2.71,13.88,5.25,6.45,2.27,16.1,5.07,17.89,6.27,6.62,2.96,13.46,5.41,20.25,7.94,4.56,1.53,8.94,3.53,13.54,4.93,6.18,2.09,12.26,4.5,18.43,6.59,5.45,1.6,10.99,2.77,16.47,4.3,3.52,1.02,6.94,2.42,10.54,3.16,6.74,1.09,13.56,1.71,20.35,2.31,7.06.81,5.89.76,12.8,1.76,4.24.28,8.48.44,12.71.77,12.88.18,17.98-.12,29.41,2.31,10.35,2.91,21.05,4.41,31.28,7.73,13.51,4.63,27.03,9.27,40.69,13.43,4.35,1.66,8.72,3.27,13.17,4.63.22.12.44.25.65.38.04.04.08.07.12.11,1.11,1.1,2.37,2.04,3.63,2.97.52.5.78.7.87.67,4.84,3.12,11.63-2.38,8.37-8.12Z"/>
    <path class="cls-2" d="m543.34,261.15c-2.27-1.33-4.8-.69-7.18-.05-3.72,1.07-7.28,2.64-10.84,4.16-10.73,4.25-14.36,7.27-23.87,9.42-12.9,3.27-18.15,3.98-31.66,3.59-14.06-.44-22,.58-33.27-3.52-11.8-3.75-19.85-8.28-32.44-16.08-6.91-3.78-12.78,6.11-6.06,10.36,10.29,6.48,20.95,12.45,32.52,16.33,8.62,3.39,17.81,4.67,27.03,4.68,8.76.07,17.53.58,26.29.04,8.85-.8,17.55-2.88,26.09-5.29,7.67-2.66,15.2-6.79,22.94-9.84-.18.08-.36.15-.54.23,2.31-.92,4.62-1.85,7.01-2.52.84-.24,1.69-.43,2.55-.56,1.5-.41,2.8-1.42,3.59-2.76,1.67-2.73.64-6.64-2.15-8.21Z"/>
    <path class="cls-2" d="m409.07,265.96c-2.05-3.58-2.18-6.85-2.81-13.23-.27-5.81-1.17-11.65-.72-17.47,2.41-6.21-4.84-11.36-9.77-6.77-3.77,4.43-2.03,13.21-1.88,18.69.39,6.1.8,12.23,2.1,18.21.9,2.91,1.82,6.34,4.27,8.31,5.05,4.11,12.1-2.15,8.82-7.74Z"/>
    <path class="cls-2" d="m555.16,229.66c-2.35-6.01-11.51-4.12-11.48,2.31-.39,10.51-1.07,21.03-.99,31.55.01,6.07,8.06,8.24,11.18,3.03,1.09-1.68.75-3.68.77-5.57.07-3.11.14-6.23.26-9.34.16-4.18.29-8.36.48-12.54.1-2.38.21-4.75.31-7.13.03-.83-.14-1.6-.52-2.31Z"/>
    <path class="cls-2" d="m554.76,233.92c-2.55-2.61-6.25-1.94-8.96.02-5.17,2.7-3.51,1.79-7.51,3.39-7.51,2.66-15.32,4.45-23.22,5.54-8.69.83-17.38,1.94-26.11,2.3-10.01.01-20.08-.15-30.05-1.16-3.12-.47-6.2-1.21-9.23-2.12-3.05-.92-6.06-2.01-9-3.22-3.95-1.75-7.96-3.49-11.56-5.89.4.31.81.63,1.21.94-1.31-1.04-2.64-2.06-3.98-3.04-1.64-1.07-3.08-2.82-5.16-2.88-6.36-1.06-9.42,7.83-3.83,11.07,4.76,3.43,2.87,2.32,7.08,5.2,8.64,4.67,17.78,8.57,27.36,10.8,11.15,2.31,22.64,2.01,33.96,2.36,6.64.04,13.23-.78,19.83-1.4,12.56-1.02,25.17-2.87,37.01-7.34,2.65-1.05,5.29-2.14,7.83-3.41,1.63-1,3.66-1.63,4.76-3.26,1.97-2.23,1.56-5.82-.47-7.88Z"/>
    <path class="cls-2" d="m550.17,219.41c-.49-1.96-2.13-3.23-3.55-4.54-5.9-4.79-13.79-6.14-21.12-7.25-22.84-2.99-45.92-4.42-68.95-4.12-18.26.98-36.38,6.87-52.46,15.46-2.65,1.49-4.95,3.59-6.88,5.93-1.4,1.51-2.83,3.19-2.74,5.38-.1,5.21,6.62,8,10.24,4.24,2.77-3.38,4.33-4.63,4.99-4.94,8.25-4.44,9.68-4.97,17.37-7.76,7.42-2.73,21.46-5.86,24-5.95,11.46-.91,22.99-.2,34.46.1,17.95,1.33,40.33,2.5,50.15,6.24,3.14,1.48,2.36,1.12,3.83,2.44,1.26,1.38,2.96,2.41,4.88,2.36,3.85.09,6.85-3.9,5.79-7.6Z"/>
    <path class="cls-2" d="m309.54,557.59c-1.23-.69-2.45-1.39-3.6-2.21-3.78-2.81-3.09-2.17-7.77-6.34-5.02-4.75-4.63-4.38-8.14-10.77-2-3.9-4-7.81-5.76-11.84-4.03-10.34-5.6-18.47-5.89-26.28-.18-8.09,2.67-17.48,7.05-28.14,2.74-6.28,5.54-12.55,8.65-18.66,3.06-5,6.07-10.02,9.06-15.06,3.78-6.91-6.11-12.78-10.36-6.06-3.11,5.28-6.34,10.5-9.46,15.77-2.9,5.96-5.69,11.99-8.32,18.08-6.01,13.7-10.65,28.82-7.66,43.85,1.64,10.98,5.51,21.45,10.71,31.22,2,3.97,4,7.99,6.87,11.43,2.29,2.89,5.14,5.27,7.9,7.7,2.64,2.15,5.31,4.26,8.13,6.17,1.51.85,2.98,2.1,4.76,2.2,2.91.61,5.79-1.53,6.58-4.3.73-2.54-.46-5.46-2.76-6.78Z"/>
    <path class="cls-2" d="m447.3,488.02c-.67-7.95-1.62-15.9-3.37-23.7-4.17-23.51-13.71-37.35-35.61-47.57-14.25-6.63-29.83-10.5-45.52-11.43-9.22-1.16-18.73-.45-27.27,3.44-8.33,3.35-16.4,7.41-23.83,12.48-3.45,2.44-7.09,4.77-9.62,8.21-1.1,1.33-2.08,2.74-3,4.19-.67.93-1.3,1.94-1.31,3.11-1.02,6.43,7.83,9.38,11.07,3.83,3.63-5.32,3-4.88,9.98-9.69,5.15-3.42,10.6-6.39,16.22-8.97,3.7-1.53,5.46-2.7,12.04-4.4,3.57-.77,6.23-1.02,12.97-.44,10.38.75,14.01,1.02,25.19,4.04,18.98,5.29,35.63,13.05,42.73,29.94,5.51,15.19,10.56,46.65,6.14,64.4-3.32,17-8.32,26.47-18.83,40.97-2.01,2.51-4.11,4.94-6.39,7.2-2.53,2.46-5.25,4.72-8.02,6.9l1.21-.94c-4.73,4.13-17.25,10.73-18.05,10.81-5.96,2-4.75,1.66-9.48,1.91-4.74-.31-2.85.23-7.96-1.4-2.52-1.23-4.81-2.92-7.12-4.5-2.97-2.03-1.85-1.26-3.42-2.48-1.55-1.09-2.95-2.81-4.97-2.85-2.9-.63-5.79,1.55-6.58,4.3-1.11,4.86,2.84,6.78,3.45,7.34,3.05,2.49,6.32,4.7,9.61,6.87,8.12,5.32,18.73,5.88,27.85,3.04,9-3.21,17.27-8.28,24.72-14.22,8.43-6.43,15.26-14.7,20.85-23.68,8.78-12.71,13.79-27.61,15.86-42.84,1.29-7.91,1.27-15.93.47-23.89Z"/>
    <path class="cls-2" d="m341.75,549.05c-1.27-.58-2.5-1.22-3.7-1.94-7.78-5.32-10.36-6.58-15.52-12.02-1.64-1.99-1.86-2.18-4.73-6.55-1.18-1.86-2.26-3.78-3.17-5.79-1.28-3.4-2.06-6.96-2.91-10.48-.82-4.57-.93-3.09-.65-9.26.53-4.57,3.3-20.13,5.89-29.67,1.69-6.16,3.88-12.17,6.27-18.09,3.45-7.76,5.78-11.63,10.15-15.95,4.43-4.04,3.32-3.24,8.59-6.56,1.78-.53,3.77-.6,5.19-1.86,5.22-3.83,1.05-12.22-5.23-10.5-4.23.71-7.91,2.85-11.22,5.49-4.74,3.46-8.84,7.73-12.13,12.59-3.75,5.54-6.28,11.78-8.66,18-3.93,10.06-6.5,20.56-8.38,31.18-1.15,7.19-3.22,14.45-2.39,21.78.95,6.92,2.54,13.87,5.5,20.22,4.3,8.4,10.21,16.16,18.13,21.44,5.14,3.69,10.21,7.68,16.29,9.72,3.63,1.8,8.09.62,9.26-3.54,1.03-5.01-2.34-7.06-6.59-8.21Z"/>
    <path class="cls-2" d="m701.16,404.79c-4.91-.23-9.82-.76-14.7.07-6.56.79-13.33,2.19-18.89,5.93-6.36,4.58-9.1,12.34-11.84,19.37-3.34,8.84-5.14,18.18-6.26,27.54-2.84,21.51-.43,44.8,11.87,63.18,4.46,7.25,9.94,13.76,16.63,19.05,4.22,3.48,10.41,8.98,14.75,2.55,1.06-1.93,1.07-4.13,0-6.06-1.03-1.92-3.19-2.58-4.84-3.83-.05-.04-.08-.06-.13-.1-1.53-1.21-2.99-2.51-4.45-3.8-7.46-6.55-9.06-9.83-14.84-19.17-12.31-21.89-9.03-57.77.22-79.74,4.69-9.82,4.52-9.39,12.94-11.98,6.17-1.24,4.7-1.12,11.5-1.46,2.68.21,5.36.31,8.05.44.83.03,1.6-.14,2.31-.52,6-2.32,4.13-11.52-2.31-11.48Z"/>
    <path class="cls-2" d="m759.96,466.06c-2.28-21.23-9.77-43.69-23.52-60.27-11.89-13.98-21.39-18.71-39.7-13.61-4.27,1.31-8.69,2.77-11.67,6.28-1.91,2-4.84,3.43-5.92,6.04-2.67,5.97,5.17,11.13,9.73,6.55,2.09-1.82,4.16-3.65,6.17-5.56.08-.03.14-.06.2-.09,6.65-2.47,9.64-3.1,13.94-3.19,5.07.27.84-.35,5.57.72.2.07.4.15.6.22,1.31.63,2.54,1.4,3.71,2.25,3.69,3,6.95,6.52,9.97,10.2,8.68,12.31,11.77,19.92,15.49,33.26,2.56,10.83,3.98,14.02,3.36,23.93-.03,4.32-6.04,23.05-8.65,27.72-3.42,8.18-8.28,15.36-13.56,22.43-.51.73-1.97,2.74-2.01,2.84-3.39,4.33-6.59,8.83-10.35,12.84-4.64,4.51-3.72,4.07-8.86,7.03-.17.06-.34.1-.51.15-.03,0-.06,0-.1,0-1.31-1.29-2.83-2.39-4.78-2.3-6.19.21-7.99,7.55-3.27,11.28,8.4,7.52,19.2-.57,25.42-7.09,6.09-6.58,11.35-13.92,16.58-21.18,5.71-7.3,10.06-15.47,13.59-24.01,4.7-11.54,9.22-23.81,8.56-36.46Z"/>
    <path class="cls-2" d="m742.3,457.47c-.35-10.12-3.34-19.84-7.2-29.13-2.6-6.53-5.99-12.98-11.35-17.67-4.59-3.83-9.94-7.28-15.87-8.42-1.71-.32-3.44-.09-5.14.2-1.25.22-2.58.41-3.51,1.34-5.25,3.88-.99,12.22,5.23,10.5.33-.05.65-.11.98-.17.21,0,.42-.02.63-.02,2.99.86,1.05.19,5.21,2.3,4.25,2.78,2.6,1.32,6.56,5.29,4.15,4.92,8.91,16.02,11.61,28.25,2.2,12.14.59,28.44-3.95,44.26-3.25,10.69-8.66,25.18-11.26,30.91-2.31,4.39-3.63,5.41-7.07,8.79-.75-.8-1.71-1.4-2.77-1.69-3.07-.92-6.58,1.09-7.38,4.19-.65,2.37.37,4.57,1.73,6.47,2.13,3.25,6.1,5.63,10.05,4.67,2.53-.7,4.37-2.59,6.11-4.45,2.49-2.24,4.81-4.67,6.79-7.38,3.12-3.95,4.86-8.73,6.61-13.39,1.47-4.07,3.04-8.1,4.52-12.16,6.24-16.78,10.19-34.73,9.47-52.71Z"/>
    <path class="cls-2" d="m356.68,576.81c-1.95-2.03-4.73-1.78-7.32-1.79-5.98-.28-3.7-.05-8.71-1.02-4.68-1.25-4.95-1.75-11.07-4.99-5.47-3.04-10.93-6.09-16.4-9.13-4.15-2.3-8.12-4.91-12.19-7.36-.69-.44-1.43-.68-2.23-.71-6.38-1.05-9.41,7.84-3.83,11.07,8.66,5.51,17.66,10.43,26.64,15.4,5.51,3.01,11.04,6.38,17.28,7.58,3.46.68,6.98,1.1,10.51,1.15,1.79-.06,3.74.37,5.38-.48,3.9-1.33,4.88-6.95,1.93-9.73Z"/>
    <path class="cls-2" d="m342.9,412.31c-6.71,10.42-13.41,20.83-20.12,31.25-4.24,6.59-8.48,13.17-12.72,19.76-3.07,5.29,2.88,11.25,8.21,8.21.9-.53,1.62-1.25,2.15-2.15,1.95-3.03,3.9-6.05,5.84-9.08,4.18-6.49,8.35-12.98,12.53-19.47,4.09-6.35,8.17-12.7,12.26-19.04,1.01-1.84,2.77-3.47,2.91-5.65,1.05-6.38-7.84-9.41-11.07-3.83Z"/>
    <path class="cls-2" d="m346.9,562.92c-1.52-.45-3.05-.05-4.57.23-1.63.15-3.28.27-4.92.18-3.3-1.16-6.38-3.73-10.49-11.29-3.63-7.21-4.52-9.9-7.98-19.1-.76-2.62-1.6-5.22-2.42-7.82-.84-2.08-1.01-4.57-2.44-6.34-3.83-5.23-12.24-1.01-10.5,5.23,2.52,8.16,5.07,16.29,8.45,24.14,4.58,11.17,11.36,25.3,24.68,27.16,2.63.22,5.29-.07,7.9-.43,3.08-.1,6.4-2,6.59-5.36.59-2.89-1.53-5.8-4.3-6.58Z"/>
    <path class="cls-2" d="m362.4,574.63c-1-1.07-2.39-1.44-3.71-1.96-.05-.02-.09-.04-.14-.06-.58-.31-2.73-1.39-3.43-1.92-4.3-2.72-8.85-6.85-14.53-13.18-1.84-1.74-3.16-4.34-5.58-5.3-5.92-2.68-11.15,5.16-6.55,9.73,8.02,8.95,16.49,18.54,28.1,22.7,5.9,1.6,10.12-5.66,5.84-10.03Z"/>
  </g>
</svg>