<?xml version="1.0" encoding="UTF-8"?>
<svg id="Layer_1" data-name="Layer 1" xmlns="http://www.w3.org/2000/svg" viewBox="0 0 792.47 307.88">
  <defs>
    <style>
      .cls-1 {
        fill: #9cc5e9;
      }

      .cls-2 {
        fill: #231f20;
      }

      .cls-3 {
        fill: none;
        stroke: #416db5;
        stroke-miterlimit: 10;
        stroke-width: 4px;
      }
    </style>
  </defs>
  <path class="cls-1" d="m29.68,231.73c-9.24.31-9.18,13.72,0,14,9.24-.31,9.18-13.72,0-14Z"/>
  <path class="cls-1" d="m53.6,204.4c-9.24.31-9.18,13.72,0,14,9.24-.31,9.18-13.72,0-14Z"/>
  <path class="cls-1" d="m33.1,171.37c-9.24.31-9.18,13.72,0,14,9.24-.31,9.18-13.72,0-14Z"/>
  <path class="cls-1" d="m6.91,186.17c-9.24.31-9.18,13.72,0,14,9.24-.31,9.18-13.72,0-14Z"/>
  <path class="cls-1" d="m70.69,108.73c-9.24.31-9.18,13.72,0,14,9.24-.31,9.18-13.72,0-14Z"/>
  <path class="cls-1" d="m36.52,112.14c-9.24.31-9.18,13.72,0,14,9.24-.31,9.18-13.72,0-14Z"/>
  <path class="cls-1" d="m78.66,159.98c-9.24.31-9.18,13.72,0,14,9.24-.31,9.18-13.72,0-14Z"/>
  <path class="cls-1" d="m107.13,48.36c-9.24.31-9.18,13.72,0,14,9.24-.31,9.18-13.72,0-14Z"/>
  <path class="cls-1" d="m127.63,92.78c-9.24.31-9.18,13.72,0,14,9.24-.31,9.18-13.72,0-14Z"/>
  <path class="cls-1" d="m70.69,67.72c-9.24.31-9.18,13.72,0,14,9.24-.31,9.18-13.72,0-14Z"/>
  <path class="cls-1" d="m112.83,133.78c-9.24.31-9.18,13.72,0,14,9.24-.31,9.18-13.72,0-14Z"/>
  <path class="cls-1" d="m161.8,137.2c-9.24.31-9.18,13.72,0,14,9.24-.31,9.18-13.72,0-14Z"/>
  <path class="cls-1" d="m126.5,180.48c-9.24.31-9.18,13.72,0,14,9.24-.31,9.18-13.72,0-14Z"/>
  <path class="cls-1" d="m80.94,205.54c-9.24.31-9.18,13.72,0,14,9.24-.31,9.18-13.72,0-14Z"/>
  <path class="cls-1" d="m128.77,252.23c-9.24.31-9.18,13.72,0,14,9.24-.31,9.18-13.72,0-14Z"/>
  <path class="cls-1" d="m168.64,198.7c-9.24.31-9.18,13.72,0,14,9.24-.31,9.18-13.72,0-14Z"/>
  <path class="cls-1" d="m183.44,158.84c-9.24.31-9.18,13.72,0,14,9.24-.31,9.18-13.72,0-14Z"/>
  <path class="cls-1" d="m140.16,204.4c-9.24.31-9.18,13.72,0,14,9.24-.31,9.18-13.72,0-14Z"/>
  <path class="cls-1" d="m205.08,238.57c-9.24.31-9.18,13.72,0,14,9.24-.31,9.18-13.72,0-14Z"/>
  <path class="cls-1" d="m116.25,292.1c-9.24.31-9.18,13.72,0,14,9.24-.31,9.18-13.72,0-14Z"/>
  <path class="cls-1" d="m80.94,249.96c-9.24.31-9.18,13.72,0,14,9.24-.31,9.18-13.72,0-14Z"/>
  <path class="cls-1" d="m102.58,228.32c-9.24.31-9.18,13.72,0,14,9.24-.31,9.18-13.72,0-14Z"/>
  <path class="cls-1" d="m174.33,99.61c-9.24.31-9.18,13.72,0,14,9.24-.31,9.18-13.72,0-14Z"/>
  <path class="cls-1" d="m234.7,71.14c-9.24.31-9.18,13.72,0,14,9.24-.31,9.18-13.72,0-14Z"/>
  <path class="cls-1" d="m169.78,1.66c-9.24.31-9.18,13.72,0,14,9.24-.31,9.18-13.72,0-14Z"/>
  <path class="cls-1" d="m300.76,205.54c-9.24.31-9.18,13.72,0,14,9.24-.31,9.18-13.72,0-14Z"/>
  <path class="cls-1" d="m258.61,207.81c-9.24.31-9.18,13.72,0,14,9.24-.31,9.18-13.72,0-14Z"/>
  <path class="cls-1" d="m255.2,182.76c-9.24.31-9.18,13.72,0,14,9.24-.31,9.18-13.72,0-14Z"/>
  <path class="cls-1" d="m516.68,231.73c-9.24.31-9.18,13.72,0,14,9.24-.31,9.18-13.72,0-14Z"/>
  <path class="cls-1" d="m540.6,204.4c-9.24.31-9.18,13.72,0,14,9.24-.31,9.18-13.72,0-14Z"/>
  <path class="cls-1" d="m520.1,171.37c-9.24.31-9.18,13.72,0,14,9.24-.31,9.18-13.72,0-14Z"/>
  <path class="cls-1" d="m493.91,186.17c-9.24.31-9.18,13.72,0,14,9.24-.31,9.18-13.72,0-14Z"/>
  <path class="cls-1" d="m557.69,108.73c-9.24.31-9.18,13.72,0,14,9.24-.31,9.18-13.72,0-14Z"/>
  <path class="cls-1" d="m523.52,112.14c-9.24.31-9.18,13.72,0,14,9.24-.31,9.18-13.72,0-14Z"/>
  <path class="cls-1" d="m565.66,159.98c-9.24.31-9.18,13.72,0,14,9.24-.31,9.18-13.72,0-14Z"/>
  <path class="cls-1" d="m594.13,48.36c-9.24.31-9.18,13.72,0,14,9.24-.31,9.18-13.72,0-14Z"/>
  <path class="cls-1" d="m614.63,92.78c-9.24.31-9.18,13.72,0,14,9.24-.31,9.18-13.72,0-14Z"/>
  <path class="cls-1" d="m557.69,67.72c-9.24.31-9.18,13.72,0,14,9.24-.31,9.18-13.72,0-14Z"/>
  <path class="cls-1" d="m599.83,133.78c-9.24.31-9.18,13.72,0,14,9.24-.31,9.18-13.72,0-14Z"/>
  <path class="cls-1" d="m648.8,137.2c-9.24.31-9.18,13.72,0,14,9.24-.31,9.18-13.72,0-14Z"/>
  <path class="cls-1" d="m613.5,180.48c-9.24.31-9.18,13.72,0,14,9.24-.31,9.18-13.72,0-14Z"/>
  <path class="cls-1" d="m567.94,205.54c-9.24.31-9.18,13.72,0,14,9.24-.31,9.18-13.72,0-14Z"/>
  <path class="cls-1" d="m615.77,252.23c-9.24.31-9.18,13.72,0,14,9.24-.31,9.18-13.72,0-14Z"/>
  <path class="cls-1" d="m655.64,198.7c-9.24.31-9.18,13.72,0,14,9.24-.31,9.18-13.72,0-14Z"/>
  <path class="cls-1" d="m670.44,158.84c-9.24.31-9.18,13.72,0,14,9.24-.31,9.18-13.72,0-14Z"/>
  <path class="cls-1" d="m627.16,204.4c-9.24.31-9.18,13.72,0,14,9.24-.31,9.18-13.72,0-14Z"/>
  <path class="cls-1" d="m692.08,238.57c-9.24.31-9.18,13.72,0,14,9.24-.31,9.18-13.72,0-14Z"/>
  <path class="cls-1" d="m603.25,292.1c-9.24.31-9.18,13.72,0,14,9.24-.31,9.18-13.72,0-14Z"/>
  <path class="cls-1" d="m567.94,249.96c-9.24.31-9.18,13.72,0,14,9.24-.31,9.18-13.72,0-14Z"/>
  <path class="cls-1" d="m589.58,228.32c-9.24.31-9.18,13.72,0,14,9.24-.31,9.18-13.72,0-14Z"/>
  <path class="cls-1" d="m661.33,99.61c-9.24.31-9.18,13.72,0,14,9.24-.31,9.18-13.72,0-14Z"/>
  <path class="cls-1" d="m721.7,71.14c-9.24.31-9.18,13.72,0,14,9.24-.31,9.18-13.72,0-14Z"/>
  <path class="cls-1" d="m656.78,1.66c-9.24.31-9.18,13.72,0,14,9.24-.31,9.18-13.72,0-14Z"/>
  <path class="cls-1" d="m783.76,203.17c-9.24.31-9.18,13.72,0,14,9.24-.31,9.18-13.72,0-14Z"/>
  <path class="cls-1" d="m745.61,207.81c-9.24.31-9.18,13.72,0,14,9.24-.31,9.18-13.72,0-14Z"/>
  <path class="cls-1" d="m742.2,182.76c-9.24.31-9.18,13.72,0,14,9.24-.31,9.18-13.72,0-14Z"/>
  <path class="cls-2" d="m427.33,157.4c-5.26-.08-11.06-.69-15.89,1.76-2.22,2.21-.48,4.13,2.05,5.65-1.69-.05-3.38-.06-5.08,0-12.16.28-24.33.76-36.47,1.51-3.25.04-3.31,4.93,0,5,10.04-.63,20.09-1.05,30.14-1.34,6.02-.26,12.05-.26,18.07.14-2.14,1.05-4.62,2.24-3.33,4.78,1.47,2.27,3.64.85,5.39-.2,2.32-1.3,4.66-2.58,6.93-3.98.78.08,1.58.1,2.4.04.09,0,.18,0,.27,0,0,0,0,0,.01,0h0c.33-.01.66-.06.96-.21,1.35-.47,1.79-2.04,1.31-3.25,6.19-5.21.2-9.73-6.77-9.9Zm-4.34,4.87c4.15.15,6.13-.04,8.12.98-.29.27-.6.52-.91.77-.71.54-1.45,1.05-2.2,1.54-2.07-.47-3.97-1.51-5.95-2.25-.98-.42-1.68-.71-2.3-.97.9-.03,1.94-.03,3.24-.06Z"/>
  <line class="cls-3" x1="557.69" y1="67.72" x2="523.52" y2="112.14"/>
  <line class="cls-3" x1="487" y1="192.75" x2="523.52" y2="112.14"/>
  <line class="cls-3" x1="727.25" y1="73.88" x2="656.78" y2="1.66"/>
  <line class="cls-3" x1="603.25" y1="306.1" x2="516.68" y2="245.73"/>
  <line class="cls-3" x1="487" y1="192.75" x2="516.68" y2="245.73"/>
  <line class="cls-3" x1="603.25" y1="306.1" x2="790.66" y2="210.17"/>
  <line class="cls-3" x1="727.25" y1="73.88" x2="790.66" y2="210.17"/>
  <line class="cls-3" x1="557.69" y1="67.72" x2="656.78" y2="1.66"/>
</svg>