<?xml version="1.0" encoding="UTF-8"?>
<svg id="Layer_1" data-name="Layer 1" xmlns="http://www.w3.org/2000/svg" viewBox="0 0 919.66 254">
  <defs>
    <style>
      .cls-1 {
        fill: #010101;
      }

      .cls-2, .cls-3 {
        fill: #a4dce7;
      }

      .cls-4 {
        fill: #231f20;
      }

      .cls-5 {
        stroke-width: 5px;
      }

      .cls-5, .cls-6, .cls-3, .cls-7 {
        stroke-miterlimit: 10;
      }

      .cls-5, .cls-7 {
        fill: none;
        stroke: #231f20;
      }

      .cls-6 {
        fill: #fff;
        stroke: #fff;
      }

      .cls-3 {
        stroke: #a4dce7;
      }

      .cls-7 {
        stroke-width: 4px;
      }
    </style>
  </defs>
  <g>
    <ellipse class="cls-3" cx="240.37" cy="127.88" rx="130.54" ry="125.62"/>
    <rect class="cls-6" x="240.37" y="2.26" width="130.54" height="251.24"/>
  </g>
  <g>
    <ellipse class="cls-3" cx="408.84" cy="126.12" rx="130.54" ry="125.62"/>
    <rect class="cls-6" x="278.3" y=".5" width="130.54" height="251.24" transform="translate(687.14 252.24) rotate(180)"/>
  </g>
  <path class="cls-1" d="m24.8,141.36c-.13-.37-.71-1.89-.84-2.25-3.81-11.2-5.13-23-7.06-34.59-.56-3.36-1.09-6.72-1.73-10.06-.05-.65-.08-1.32-.45-1.87-.48-.88-1.71-1.26-2.61-.73-.75.43-1.01,1.3-1.35,2.02-.36.89-.72,1.79-1.03,2.7-.26.76-.51,1.53-.76,2.3-.21.2-.37.45-.45.76-.14.65-.27,1.3-.41,1.95-.69,2.24-1.33,4.5-1.9,6.77-2.15,8.24-4.24,16.52-5.37,24.96-.25,2.15-.51,4.3-.73,6.45-.05,1.47-.53,3.45.75,4.53.73.62,2.05.46,2.59-.32.42-.44.4-1.1.55-1.65.4-2.29.68-4.6,1.13-6.88,1.67-9.49,3.68-18.91,5.63-28.34.32-1.56.65-3.11.97-4.67.23-.75.46-1.5.7-2.25,1.72,10.22,2.99,20.53,5.35,30.64.73,3.25,1.53,6.49,2.72,9.61.56,1.21.71,2.74,1.77,3.65.96.82,2.63.25,2.93-.93.2-.67-.1-1.24-.41-1.81Z"/>
  <path class="cls-1" d="m3.96,126.12c-2.45.04-2.44,3.54,0,3.59,2.45-.04,2.44-3.54,0-3.59Z"/>
  <path class="cls-1" d="m21.89,118.22c-.89-.25-1.7.33-2.51.59-5.07,2.04-10.28,3.89-15.27,6.06-1.63,1.11-.28,3.69,1.63,3.14,4.32-1.7,8.64-3.41,12.97-5.09,1.06-.41,2.12-.83,3.19-1.24.47-.12.87-.43,1.11-.82.62-.98.03-2.34-1.11-2.64Z"/>
  <path class="cls-1" d="m41.29,94.2c-.42-.71-1.31-.88-1.93-1.38-.13-.12-.66-.46-1.43-1.81-1.58-3.04-2.48-6.64-2.92-10.53.24-.34.48-.67.71-1.01,2.53-3.64,4.6-7.67,4.81-12.12.06-1.66.35-3.4-.2-5.01-1.16-2.82-3.78-4.17-6.38-1.92-2.98,3.13-2.8,7.85-2.96,11.84-.05,2.42,0,4.84.2,7.25-1.78,2.44-3.5,4.37-6.07,7.08-.96.97-1.97,1.89-2.95,2.85-.35.33-.55.8-.55,1.27-.05,1.54,2.08,2.4,3.18,1.27,2.51-2.34,4.89-4.81,7.07-7.44.26,1.27.57,2.54.97,3.78.74,2.32,1.63,4.67,3.33,6.51,1.11,1.01,3.09,2.83,4.62,1.67.76-.5.93-1.56.48-2.32Zm-4.79-31.17s.05.06.08.08c0,0,0,0,0,0,.1.14.18.3.26.45,0,.02,0,.03.02.05.2.42-.04,4.65-.29,5.46-.47,2.36-.94,3.43-1.88,5.05,0-1.93.07-3.9.21-5.87.13-2.36.93-4.57,1.6-5.24Z"/>
  <path class="cls-1" d="m50.25,78.03c-2.14.38-4.29.76-6.43,1.15-.46.12-.87.43-1.11.82-.86,1.32.56,3.1,2.11,2.64,1.72-.31,3.43-.61,5.15-.92.64-.16,1.4-.1,1.92-.55,1.64-1.11.28-3.69-1.63-3.14Z"/>
  <path class="cls-1" d="m63.48,85.92c-.21-2.5-.4-5-.6-7.5-.21-2.87-.4-5.74-.46-8.62-.14-1.56.14-3.21-.26-4.72-.69-1.79-3.61-1.22-3.57.69.06,6.5.54,12.98,1.1,19.45.12,1.49.25,2.99.37,4.48,0,.84.26,1.83,1.19,2.12.82.39,1.87,0,2.33-.73.17-.28.25-.58.25-.91-.12-1.42-.24-2.84-.36-4.27Z"/>
  <path class="cls-1" d="m151.79,126.12c-2.45.04-2.44,3.54,0,3.59,2.45-.04,2.44-3.54,0-3.59Z"/>
  <path class="cls-1" d="m191.61,121.54c-1.79-.59-3.81.79-2.82,2.62.38.64,1.16.95,1.9.86.1.05.2.11.27.15.03.05.07.1.09.15.05,1.02,0,2.04-.12,3.06-.87,6.31-4.47,10.1-6.65,9.82-.14-.02-.26-.05-.36-.07,0,0-.02-.02-.03-.03-.17-.24-.32-.48-.46-.73-.9-1.77-.91-1.51-.87-3.89.03-1.69.08-3.81.21-5.23.17-.49.32-.98.44-1.49.35-1.27-.31-3.59-2.76-2.63-.71.39-.9,1.14-1.08,1.86-.1.46-.17.93-.23,1.39-1.37,3.49-4.9,8.33-6.96,10.66-1.14.99-.71.76-1.65,1.25-.26-1.4.15-3.04.72-5.63.44-1.99.91-4,1.66-5.9-.06.14-.13.29-.19.43.37-.99,1.08-1.88,1.3-2.9.36-1.89-2.48-2.81-3.44-1.14-1.63,2.93-2.46,6.16-3.11,9.41-.53,2.28-1.05,4.67-.49,6.99.68,2.5,4.16,3,6.08,1.48,2.25-1.49,3.71-3.76,5.23-5.89.19-.28.39-.56.58-.84.02.27.05.54.09.8.52,1.89,1.36,3.98,3.08,5.14,3.32,1.58,7.19-.53,9.03-3.29,2.49-3.3,3.61-7.41,3.74-11.44.23-2.31-.77-4.28-3.18-4.96Z"/>
  <path class="cls-1" d="m219.02,94.3c1.62-2.97.23-10.44-4.49-8.12-1.76,1.31-2.82,3.34-3.73,5.26-1.87,3.69-2.49,7.76-2.99,11.79,0,.04,0,.09-.01.13-1.82,1.89-3.61,3.48-5.58,4.59-1.12.69-2.24,1.37-3.37,2.06-.42.23-.73.62-.86,1.07-.48,1.48,1.37,2.86,2.74,2.03,2.28-1.32,4.52-2.71,6.57-4.33,0,1.28.19,2.55.74,3.74.89,1.97,2.97,3.87,5.29,3.86,1.29-.08,2.03-1.64,1.36-2.67-.27-.39-.63-.71-1.11-.82-.17-.04-.34-.09-.44-.13-.02-.01-.04-.02-.06-.03-.26-.14-.51-.3-.75-.47-.32-.29-.32-.19-.88-1.17-.27-.77-.33-.36-.4-1.86.03-1.37.13-2.83.27-4.3,2.96-3.26,6.01-6.6,7.69-10.65Zm-3.19-4.24c.04.18.09.41.15.73.34,1.26-1.48,4.62-3.59,7.38.37-1.61.8-3.05,1.3-4.17.57-1.38,1.27-2.71,2.14-3.94Z"/>
  <path class="cls-1" d="m217.35,137.97c-.64-1.5-2.53-2.23-4.08-2.53-3.19-.48-6.45.97-8.63,3.19,0-.16-.01-.33-.02-.49,0-.47-.2-.94-.55-1.27-1.09-1.13-3.24-.28-3.18,1.27.25,3.61,0,7.33.53,10.89.57,1.55,3.11,1.38,3.5-.21.02-.16.04-.32.06-.48,0,0,0,0,0,0,0-.02,0-.03,0-.05.43-3.36,1.44-7.2,3.47-8.14,2.22-1.5,4.1-1.35,5-.94.87.28.44.8,2.09,1.04,1.2.03,2.13-1.17,1.8-2.27Z"/>
  <path class="cls-4" d="m323.48,143.68c-.77-.22-1.52.19-2.25.37-1.4.42-2.77.95-4.09,1.56-.76.39-5.81,2.09-6.92,1.83-.04,0-.06,0-.1-.01-.16-.03-.32-.05-.48-.1-.02-.01-.04-.02-.06-.03-.02-.02-.04-.04-.05-.05-.03-.04-.05-.08-.08-.12,0-.1,0-.18,0-.25.05-.27.11-.53.2-.79.63-1.35,3.52-6.24,5.24-8.88,1.68-2.95,4.26-5.54,5.13-8.85.66-3.62-1.02-6.33-4.79-7.19-4.07-1.06-8.67-.79-12.51.84-1.63,1.12-.28,3.68,1.63,3.14,4.48-1.63,9.8-1.05,11.5.13.09.07.17.16.25.25.05.08.09.16.13.24.06.17.12.43.16.62.02.21.04.42.04.63,0,.18-.02.36-.04.54-.05.22-.13.59-.22.78-1.38,2.68-5.87,8.83-8.09,13-1.45,2.44-3.71,5.79-1.33,8.34,4.17,3.96,12.93-1.87,16.71-2.52,1.8-.45,1.8-3,0-3.46Z"/>
  <path class="cls-4" d="m321.23,131.05c-1.88-.1-3.77.57-5.64.75-3.42.55-6.54,1.02-8.75,1.27-2.45.04-2.45,3.54,0,3.59,4.82-.55,9.61-1.38,14.4-2.15,1.8-.45,1.8-3,0-3.46Z"/>
  <path class="cls-4" d="m336.72,109.06c.69-.84,1.35-1.71,2-2.57,1.94-2.79,4.06-5.52,5.54-8.57,1-2.26,1.82-5.85-.49-7.58-1.22-.69-2.82-.36-3.82.54-2.32,2.43-3.29,5.77-4.42,8.82-.81,2.54-1.58,5.1-2.2,7.69-1.08,1.21-2.15,2.19-3.11,2.72-2.68,1.01-1.29,4.58,1.34,3.41.26-.13.49-.28.73-.42-.2,2.19-.05,4.39,1,6.39.57,1.22,1.31,2.46,2.5,3.21,2,.98,4.36,1.14,5.28,1.15,1.98-.18,2.16-3.02.25-3.49-1.38-.13-2.85-.41-3.54-.71-2.26-2.17-2.09-6.09-1.06-10.58Zm4.59-13.81c-.1.36-.24.77-.44,1.26-.17.29-.36.61-.56.96.32-.81.65-1.56,1-2.21Z"/>
  <path class="cls-4" d="m343.02,140.37c-1.12-.53-2.5-.03-3.61.35-.74.37-1.4.86-1.98,1.43-1.04-.21-2.27.35-2.3,1.72.02.6.05,1.26.08,1.94-.38,1.16-.53,2.39-.43,3.57,0,1.35,0,3.01,1.29,3.84,1.02.59,2.45.04,2.74-1.07.41-1.91.28-3.85.16-5.79.64-1.26.6-1.09,1.51-2.07.07-.06.14-.12.21-.18.02-.02.04-.03.08-.05.04-.02.07-.03.1-.05.05-.02.09-.03.14-.05.37-.11.74-.2,1.13-.25,1.83-.01,2.5-2.46.89-3.34Z"/>
  <g>
    <path class="cls-4" d="m443.6,145.57c-.46-.19-.94-.26-1.44-.28-.18-2.33-.46-4.66-.94-6.96-.78-2.74-1.3-5.86-1.45-8.6,1.08-.7,2.04-1.55,2.73-2.64,1.11-2.19,3.37-5.53.56-7.36-1.71-1.07-4.06-.41-5.15,1.18-1.12-1.87-2.8-3.82-5.22-3.3-2.82.52-4.49,2.68-5.05,5.28-1.71,6.03,2.07,10.72,8.52,8.57.08.68.17,1.35.27,2.01.32,2.64,1.16,5.18,1.56,7.81.17,1.35.31,2.7.43,4.06-3.07.05-6.21-.01-9.12,1.02-3.79,1.26-5.85,5.2-5.31,8.92.71,5.88,3.92,12.88,9.92,15.25,3.54.83,5.6-2.86,6.67-5.52,1.86-4.75,2.06-9.92,1.84-14.93-.02-.38-.03-.76-.05-1.14.85-.05,1.61-.29,1.98-1.13.41-.79,0-1.8-.76-2.24Zm-10.82-17.19c-.29-.05-.58-.14-.86-.24-.09-.04-.17-.09-.24-.13-.02-.01-.03-.03-.04-.04-.5-.77-.32-.4-.65-1.77-.17-1.47.55-3.3.74-3.79.07-.16.23-.41.33-.55.07-.06.14-.12.19-.16.21-.14.42-.28.64-.39.02,0,.04-.02.06-.02.15-.05.29-.1.45-.14.55.33.41.27,1.29,1.56.77,1.34.45.69.87,2.33.18.53.2,1.14.46,1.63-.03.34-.05.69-.05,1.04-1.38.59-2.73.88-3.18.68Zm5.87,28.39c-.2,2.23-.55,4.56-1.77,7.58-.32.69-.69,1.36-1.15,1.97.12-.14.15-.14-.09.12-.02.03-.05.07-.07.1.02-.03.04-.05.05-.08-.18.21-.38.4-.58.59-.04.01-.08.02-.13.03-.01,0-.02,0-.04,0-.73-.17-1.73-1.01-3.3-2.72-.31-.08-2.53-3.88-2.51-4.22-.63-1.53-1.09-3.13-1.32-4.76-.7-5.97,3.53-6.39,10.93-6.45.13,2.62.14,5.24-.03,7.85Z"/>
    <path class="cls-4" d="m435.64,166.44s0,0,0,0c.03-.04.06-.08.09-.12-.03.04-.07.08-.1.14,0,0,0-.01.01-.02Z"/>
  </g>
  <path class="cls-4" d="m466.96,140.02c-.32-1.8-2.16-1.84-3.5-.97-1.47.59-.4.32-2.63.96-4.1.68-7.55-.25-8.41-4.75-.34-1.66-.16-4.95.45-7.27.79-3.22,2.14-6.18,3-8.12,1.68-3.77,3.47-7.52,5.8-10.97,1.04-1.57,1.31-1.81,3.16-3.45.45-.44,1.08-.76,1.29-1.37.86-1.73-1.64-3.35-3.02-1.96-5.17,4.02-7.76,10.13-10.4,15.82-3.43,7.03-8.1,20.72,1.48,25.04,3.1,1.1,6.69,1.12,9.71-.23.15-.06.3-.12.45-.19.25-.1.72-.29.91-.39.95-.33,1.94-1.08,1.69-2.16Z"/>
  <g>
    <path class="cls-4" d="m480.69,132.12c-.31-.84-1.33-1.26-2.2-1.04-.74.18-1.14.85-1.63,1.36-.9,1.12-2.01,2.05-3.18,2.9-.45.27-1.71,1.05-2.1,1.11.85-.33-.18.07-.77.21.18-.02.17,0,0,0,0,0,0,0,0,0,0,0,0,0-.01,0,0,0-.01,0-.02,0,.01,0,.02,0,.03,0,.25-1.21,1.89-3.81,3.61-6.55,2.27-3.81,5.97-8.14,4.36-12.78-.6-1.83-2.09-3.6-4.25-3.5-3.03.25-6.59,1.06-8.4,3.58-.86,1.75,1.64,3.34,3.02,1.96,1.88-1.36.75-.75,2.55-1.42,1.78-.43,2.49-.57,2.94-.52.51.55.36.3.84,1.85.32.9-1.31,4.79-3.7,8.08-.94,1.51-1.87,3.02-2.79,4.53-.95,1.55-1.91,3.2-1.91,5.05-.18,1.86,1.51,3.27,3.36,3.31,2.13-.03,4.16-1.06,5.8-2.32,1.29-.92,2.46-1.96,3.45-3.17.69-.7,1.55-1.63,1-2.64Z"/>
    <polygon class="cls-4" points="470.81 136.65 470.8 136.65 470.8 136.65 470.81 136.65"/>
  </g>
  <path class="cls-4" d="m482.89,121.25c-1.41-.18-2.81.57-4.19.8-3,.78-6.04,1.5-8.94,2.58-1.03.5-2.45.57-3.11,1.56-.86,1.32.56,3.1,2.11,2.64,3.66-1.46,7.47-2.45,11.3-3.41,1.3-.49,3.11-.32,3.95-1.53.62-.98.03-2.34-1.11-2.64Z"/>
  <path class="cls-4" d="m496.87,93.8c.83-2.38,1.52-5.45-.45-6.36-1.57-.68-2.65,1.03-3.62,1.96-1.63,1.99-2.38,4.5-3.14,6.88-.83,2.65-1.61,5.3-2.27,7.99-.49.63-1.01,1.17-1.58,1.6-.86.88-2.4,1.47-2.42,2.83-.05,1.37,1.63,2.19,2.77,1.57-.09,1.14-.07,2.28.1,3.43,0,1.77,1.11,3.34,2.77,4.08,1.35.48,3.42,1.44,4.5.08.84-.93.26-2.53-.97-2.82-.34.03-1.54-.36-1.83-.45-.13-.07-.26-.14-.38-.22,0,0-.01,0-.02-.01-.08-.06-.15-.13-.2-.18-.02-.03-.03-.05-.05-.08-.15-.65-.39-2.74-.17-4.26-.12.51.46-2.06.96-4.15,2.65-3.56,4.3-7.85,5.99-11.88Z"/>
  <path class="cls-4" d="m496.07,132.81c-2.79-1.17-5.49,1.07-7.34,3.59-.07-.21-.16-.41-.32-.59-1.15-1.57-3.83-.27-3.26,1.56.41,2.59.66,3.89.81,5.65-.19,1.74.1,3.41,1.88,3.47,1.89-.14,2.02-1.77,1.87-3.34.08-1.34.41-2.04,1.4-3.74,1.36-1.88,1.57-2.41,3.29-3.3.03-.01.06-.02.08-.04.01,0,.03,0,.04-.01.13.07.26.16.37.23.16.13.31.27.44.42.07.11.14.22.2.33.64,1.48,3.05,1.39,3.51-.24.32-1.77-1.5-3.26-2.98-3.99Z"/>
  <path class="cls-4" d="m513.49,105.62c-1.39-2.55-3.69-4.52-5.96-6.34-.71-.54-1.32-1.38-2.31-1.36-1.6-.05-2.49,2-1.32,3.06,1.83,1.4,5.24,4.51,5.56,5.13,1.17,1.69,1.97,3.59,2.82,5.44,1.87,4.22,4.39,12.31,3.91,17.9-.4,4.35-2.37,8.18-6.1,10.86-.31-.07-.64-.08-.95,0-1.16.28-1.72,1.66-1.11,2.64,1.1,1.53,3.13,1.35,4.39.08,11.95-7.99,7.42-25.58,1.07-37.41Z"/>
  <path class="cls-4" d="m644.71,126.37c-1.14-1.07-2.39-.29-3.37.53-5.6,3.73-8.05,3.03-8.2-.79-.34-2.65-.08-5.87.29-8.66.3-.77.52-1.56.7-2.36.33-.45.45-1.04.31-1.57.08-.44.15-.87.23-1.31.14-1.22.76-2.88-.46-3.75-1.06-.85-2.57-.17-3.04.97-.26.48-.41,1-.5,1.52-.37-.17-.75-.33-1.15-.46-2.28-.32-4.64.22-6.77.99-5.75,1.83-9.21,7.87-8.88,13.53-.02,3.12,2.57,5.47,5.79,5.35,3.48-.08,6.98-2.94,9.64-6.18.01.27,0,.55.03.82.12,1.59.13,3.25.87,4.72,3.04,5.67,10.26,2.61,14.13-.53,1.04-.56,1.23-2.02.38-2.82Zm-22.83-.3c-1.47.72-1.17.65-2.75.7-.17-.04-.34-.09-.5-.15-.07-.03-.15-.08-.25-.13-.11-.06-.21-.13-.31-.2-.06-.05-.1-.1-.14-.14-.05-.07-.08-.13-.11-.18-1.15-2.96,1.55-8.3,3.14-9.47,2.54-2.04,6.57-2.61,7.61-2.54.05.01.1.03.14.04.48.2.93.46,1.39.72-.12.74-.23,1.46-.29,1.75,0,.03,0,.06-.01.1-.21.47-.48.97-.88,1.72-1.77,3.22-4.62,6.16-7.05,7.77Z"/>
  <path class="cls-4" d="m663.95,83.2c.2-2.23-.12-5.51-2.87-6.05-1.32-.21-2.81-.12-3.93.64-3.85,3.25-4.85,8.56-5.99,13.15-.44,2.18-.69,4.4-.72,6.63-.88.81-1.79,1.62-2.74,2.45-.02.02-.03.03-.05.04-.53.38-1.1.72-1.66,1.06-.96.68-2.44,1-2.82,2.21-.48,1.48,1.37,2.86,2.74,2.03,1.52-.81,3.16-1.89,4.81-3.18.03.2.05.39.08.59.12,2.63,1.4,5.12,3.8,6.49,1.34.73,2.83,1.22,4.35,1.43.78.15,1.66.21,2.25-.41.86-.79.65-2.25-.38-2.82-1.36-.51-.51-.06-1.91-.42-2.45-.76-2.11-.4-3.72-2.07-.5-.7-.47-1.12-.74-2.74-.11-.45-.21-1.64-.26-3.06,4.89-4.68,9.16-10.73,9.75-15.94Zm-6.84.84c-.06.14-.13.29-.19.43.76-1.86,1.89-3.4,2.33-3.74.1-.03.2-.06.3-.08.17-.01.35-.02.52-.01.05.13.1.34.18.78.03.55-.02,1.39-.04,1.76-.91,3.99-2.96,7.24-5.74,10.34.23-1.6.62-3.17,1.03-4.74.4-1.62.92-3.22,1.61-4.75Z"/>
  <path class="cls-4" d="m662.34,129.78c-.87-.24-1.68.29-2.47.57-2.37.93-5.16,2.51-7.49,4.5,0-.61-.12-1.2-.57-1.66-1.09-1.13-3.24-.28-3.18,1.27-.04,1.5,0,3.19.01,4.81-1.18,2.15-1.57,4.51-.6,6.95.51.86,1.58,1.19,2.55.97,1.71-.5,1.55-2.64,1.71-4.04.03-.93.04-1.86.04-2.79,1.51-2.28,4.33-4.67,7.68-6.15,1.56-.72.88-.43,2.31-.97.47-.12.87-.42,1.11-.82.62-.98.03-2.35-1.11-2.64Z"/>
  <line class="cls-5" x1="68.95" y1="122.69" x2="90.44" y2="122.69"/>
  <line class="cls-5" x1="253.11" y1="127.88" x2="279.42" y2="127.88"/>
  <line class="cls-5" x1="368.73" y1="127.88" x2="395.04" y2="127.88"/>
  <line class="cls-5" x1="556.24" y1="127.88" x2="582.55" y2="127.88"/>
  <path class="cls-4" d="m93.68,120.9c-.12-.45-.42-.79-.8-1.02-.28-.54-.82-.95-1.44-1.07,0,0-.13-.03-.39-.04-.31,0-.59.06-.83.18-.07-.02-.15-.03-.23-.05-2.19-.59-3.95-1.62-6.71-3.21-1.61-.99-1.24-.82-2.81-2.12-.35-.33-.83-.53-1.32-.53-1.6-.05-2.49,2.01-1.32,3.06,1.37,1.34,6.76,5.05,10.77,6.14-1.81,1.72-3.42,3.61-5.1,5.44-.91,1.23-2.45,2.14-1.3,3.84.52.74,1.63.89,2.41.46.34-.19.6-.49.76-.83.5-.63.93-1.11,2.03-2.31,1.13-1.34,2.36-2.61,3.59-3.86,1.11-1.16,3.11-2.27,2.68-4.09Z"/>
  <path class="cls-4" d="m283.14,125.32c-.45-.44-1.11-.57-1.68-.79-.13.05-2.24-.98-3.48-1.96.87.66-1.34-1.04-1.7-1.46-.77-.59-.22-.87-1.66-1.47-1.54-.46-2.97,1.32-2.11,2.64,1.32,1.79,3.12,3.27,5.12,4.39-.47.44-.94.91-1.44,1.36-1.02,1.11-2.21,2.06-3.26,3.13-.45.53-1,1.14-.93,1.87-.05,1.97,3.22,2.76,3.97.86.12-.22.15-.46.15-.69,1.36-1.34,2.75-2.66,4.14-3.97.3-.26.62-.5.93-.74.71,0,1.44-.07,1.97-.57.73-.68.73-1.93-.03-2.59Z"/>
  <path class="cls-4" d="m401.12,125.43c-.5-.5-1.18-.52-1.85-.58-.01,0-.02,0-.04,0-2.09-.53-1.77-.49-3.49-1.32-1.41-.85-1.06-.57-1.86-1.33-.05-.1-.11-.2-.19-.28-1.15-1.57-3.83-.27-3.26,1.56.54,1.25,1.91,2.35,3.5,3.19-.54.36-1.08.74-1.6,1.11-1.48,1.06-2.82,2.28-4.01,3.64-.65.66-1.34,1.5-1.04,2.47.4,1.68,3.37,2.13,4.02.4.15-.29.19-.59.15-.88,1.88-2.01,3.09-2.89,5.46-4.33,1.47-.74.83-.47,2.89-.61,0,0,0,0,0,0h0c1.61.06,2.49-2.01,1.32-3.06Z"/>
  <path class="cls-4" d="m587.04,125.7c-1.82-1-3.77-1.77-5.61-2.75-1.34-.48-2.58-2.01-4.07-1.67-1.55.36-1.85,2.55-.45,3.28,1.18.78,3.24,1.81,5,2.65-1.6.81-3.24,1.59-4.67,2.65-1.41,1.15-3.06,2.33-3.54,4.13-.48,1.49,1.37,2.85,2.74,2.03.51-.29.78-.76.93-1.3.02-.04.04-.09.07-.13.01-.02.02-.03.03-.05.12-.14.24-.27.38-.4.56-.52,1.13-1.04,1.74-1.52.02-.01.03-.02.06-.04,1.76-1.13,5.42-2.97,6.27-3.3.54-.02,1.11-.07,1.52-.43,1.19-.82.82-2.53-.39-3.16Z"/>
  <g>
    <rect class="cls-7" x="700.66" y="23.78" width="217" height="207"/>
    <rect class="cls-7" x="700.66" y="23.78" width="217" height="42"/>
    <path class="cls-4" d="m771.42,48.13c-.6-4.94-.49-10.01-1.17-14.91-.74-2-3.88-1.36-3.83.77.67,8.12.64,17.17,2.76,24.97.9,1.33,3.12.85,3.5-.68-.22-4.36-.96-6.01-1.26-10.16Z"/>
    <path class="cls-4" d="m794.48,47.96c-1.17-1.01-2.91-.51-4.33-.74-4.67-.5-9.36-.36-14.03-.58-.22,0-.81-.02-1.36-.04,3.38-3.14,6.98-6.04,10.53-9,1.12-.93,2.24-1.85,3.36-2.78.37-.37.59-.89.59-1.41.06-1.72-2.23-2.67-3.41-1.41-4,3.33-8.05,6.6-11.98,10.01-1.17,1.18-2.62,2.12-3.52,3.53-.85,1.46-.46,3.56,1.05,4.43,1.39.79,3.03.6,4.56.66,2.92.23,5.86.06,8.78.22,2.83-.03,6.49.81,9.14.35,1.3-.44,1.63-2.32.64-3.24Z"/>
    <path class="cls-4" d="m826.04,53.41c-.07-.98-1.01-1.73-1.96-1.73-1.31.11-2.26,1.28-3.51,1.67.17-.08.74-.3.26-.11-1.03.4-2.08.83-3.18,1-.4.04-1.22.12-1.5.12-.28.05-1.09,0-1.5-.03-1.8-.44-1.41-.28-3.13-2.2-2.28-3.17-3.15-4.95-3.22-7.51-.09-1.64-.19-3.27-.29-4.91,0-.53-.21-1.04-.59-1.41-1.17-1.26-3.47-.31-3.41,1.41.32,3.11-.06,6.38,1.15,9.32,1.38,3.26,3.36,6.63,6.44,8.51,1.97,1.02,4.27.92,6.42.67,1.94-.21,8.63-2.28,8.02-4.78Z"/>
    <path class="cls-4" d="m827.19,40.2c-.48-.24-1.01-.36-1.54-.2-2.58.63-5.16,1.27-7.73,1.91-3.88.96-7.75,1.93-11.62,2.9-.93.26-2.07.32-2.58,1.27-.92,1.47.6,3.45,2.26,2.94,5.48-1.37,10.96-2.74,16.45-4.1,1.43-.35,2.86-.71,4.29-1.06.5-.14.93-.47,1.2-.92.56-.91.21-2.21-.72-2.74Z"/>
    <path class="cls-4" d="m823.42,32.32c-1.27-1.98-3.79-.33-5.57-.1-3.17.79-6.33,1.59-9.46,2.54-1.17.4-2.33.85-3.48,1.29-.5.14-.93.47-1.2.92-.92,1.47.6,3.45,2.26,2.94,4.73-1.92,9.74-3,14.67-4.26.74-.25,1.64-.23,2.26-.74.83-.55.99-1.74.52-2.58Z"/>
    <path class="cls-4" d="m852.88,30.22c-.55-.74-1.46-1.28-2.4-.99-.97.24-1.41,1.13-1.52,2.04-.2.99-.43,1.97-.64,2.96-.46,2.12-.9,4.25-1.34,6.38-.4-.21-.97-.58-1.26-.77-3.56-3.45-6.2-6.66-7.3-9.4-.15-.36.06.15.13.31-.65-1.18-.76-2.82-1.93-3.62-1.46-.92-3.45.6-2.94,2.26,1.29,3.43,2.5,6,5.59,9.37,1.8,2.13,3.6,4.48,6.27,5.54.22.1.42.17.63.24-.35,1.73-.7,3.46-1.05,5.19-.53,2.72-1.63,8.98-1.78,10.64-.42,1.38.59,3.11,2.18,2.81.78-.05,1.46-.7,1.66-1.43.02-.09.04-.29.07-.53,0,0,0,0,0,0,0,0,0-.01,0-.02.06-.51.14-1.19.17-1.51.4-2.86.95-5.69,1.48-8.53.46-2.34.94-4.68,1.42-7.02,1.37-.91,2.32-2.62,2.82-4.62.64-2.97,1.95-6.74-.27-9.32Z"/>
    <path class="cls-4" d="m732.24,100.57c3.33-2.29,5.61-5.74,7.16-9.43,1.23-3.42,2.01-7.38,1-10.95-.69-2-2.64-2.98-4.25-1.22-1.25,1.41-1.87,3.24-2.58,4.95-1.93,5.31-4.31,10.6-5.78,16.09-2.21,1.33-4.63,2.45-5.87,2.39-.8.1-1.62.18-2.43.18-.59-.09-1.22-.1-1.66.38-.94.88-.23,2.6,1.06,2.56.81.17,4.74-.12,6.76-1,.44-.17.85-.37,1.27-.57-.14.83-.26,1.67-.34,2.52.05,2.64,1.92,4.98,4.52,5.51,1.36.22,2.74-.16,4.07-.43,1.25-.3,1.49-2.12.36-2.74-.73-.44-1.51,0-2.27.09-2.02.19-.96.42-2.4-.23-1.07-.89-.72-.19-1.24-1.93-.24-.41.25-2.66.81-4.88.61-.42,1.21-.86,1.81-1.3Zm2.5-11.4c1.08-2.73,1.97-5.49,3.01-7.25.76,3.55-1.51,11.61-5.94,15.17.9-2.67,2-5.27,2.93-7.93Z"/>
    <g>
      <path class="cls-4" d="m764.77,92.75c-2.62,0-5.24.14-7.85.37-1.19.22-2.83-.02-3.79.74-.94.88-.23,2.6,1.06,2.56,4.16-.54,8.36-.73,12.55-.65.8.02,1.52-.7,1.5-1.5-.06-1.85-2.17-1.49-3.46-1.52Z"/>
      <path class="cls-4" d="m768.48,99.54c-1.29-.49-2.79.17-4.15.16-2.61.28-5.24.44-7.86.55-1.96,0-1.96,2.99,0,3,3.76-.14,7.52-.48,11.26-.92,1.49.05,2.06-2.08.76-2.8Z"/>
    </g>
    <g>
      <path class="cls-4" d="m764.77,138.1c-2.62,0-5.24.14-7.85.37-1.19.22-2.83-.02-3.79.74-.94.88-.23,2.6,1.06,2.56,4.16-.54,8.36-.73,12.55-.65.8.02,1.52-.7,1.5-1.5-.06-1.85-2.17-1.49-3.46-1.52Z"/>
      <path class="cls-4" d="m768.48,144.89c-1.29-.49-2.79.17-4.15.16-2.61.28-5.24.44-7.86.55-1.96,0-1.96,2.99,0,3,3.76-.14,7.52-.48,11.26-.92,1.49.05,2.06-2.08.76-2.8Z"/>
    </g>
    <g>
      <path class="cls-4" d="m764.77,183.44c-2.62,0-5.24.14-7.85.37-1.19.22-2.83-.02-3.79.74-.94.88-.23,2.6,1.06,2.56,4.16-.54,8.36-.73,12.55-.65.8.02,1.52-.7,1.5-1.5-.06-1.85-2.17-1.49-3.46-1.52Z"/>
      <path class="cls-4" d="m768.48,190.23c-1.29-.49-2.79.17-4.15.16-2.61.28-5.24.44-7.86.55-1.96,0-1.96,2.99,0,3,3.76-.14,7.52-.48,11.26-.92,1.49.05,2.06-2.08.76-2.8Z"/>
    </g>
    <g>
      <path class="cls-4" d="m870.22,95.02c-1.05.02-2.02.59-3.07.69-.42.06-.79.13-2,.05-.08-.02-.17-.04-.26-.06.49-.96.76-2,.53-3.07-.24-.89-1.33-1.58-2.21-1.15-1.1.49-1.62,2.36-1.62,3.88-1.37,1.79-3.96,3.26-6.03,5.04.74-.55-.53.4-.79.59-1.07.74-2.16,1.49-3.34,2.02-.29.07-.89.24-1.16.32-.22.02-.44.03-.66.01-.03,0-.06-.02-.11-.03-.7-.27-1.2-.67-1.54-1.22,3.12-1.94,5.89-5.07,6.15-8.82.38-3.93-2.77-7.99-6.32-4.26-1.98,2.26-3.54,7.51-3.29,11.44-2.04.76-4.43,1.25-6.76,2.22.35-.92.71-1.82,1.1-2.68.62-.73,1.22-1.49,1.79-2.24,1.06-1.1.05-2.78-1.41-2.61-1.46.18-2.37,1.69-3.05,3.36-1.66,1.85-3.27,3.07-5.38,3.5-.12.03-.24.05-.35.07,0,0-.02,0-.02,0,0-.01-.01-.02-.02-.04-.01-.03-.02-.05-.04-.11-.01-.06-.02-.09-.03-.12.04-1.08.12-2.16.25-3.23,0-.04.01-.08.02-.13.15-.72.32-1.49.12-2.22-.26-.95-1.44-1.55-2.32-1.01-.48.27-.66.82-.99,1.23-.04.05-.06.08-.08.11-.02.03-.03.04-.06.07-1.21,1.55-3.27,3.25-3.95,3.7-2,1.37-3.39,1.33-3.49,1.21-.15-.07-.28-.16-.41-.25-.04-.04-.07-.07-.1-.1-.02-.03-.03-.05-.04-.07-.07-.25-.12-.55-.13-.57-.01-.28,0-.63,0-.79.04-.29.09-.59.16-.87.19-.27.37-.53.54-.81.8-1.42,2.26-4.36-.18-4.93-.44-.04-.8.05-1.1.22.21-2.14-1.57-3.76-4.67-2.59-2.64.87-4.04,3.45-5.8,5.4-.96,1.03-1.68,2.24-2.26,3.53-2.35,1.13-4.65,2.08-7.15,2.72-.02,0-.04,0-.05,0-.01,0-.02,0-.03,0-.78.06-1.55-.09-2.32-.18-.15-.05-.45-.12-.65-.17-.07-.04-.14-.08-.2-.12-.01-.01-.02-.02-.03-.03-.18-.28-.29-.2-.33-2.2.01-.99.1-1.65.25-2.41,1.86-1.44,3.65-2.96,5.34-4.59,3.17-3.06,5.89-6.84,6.37-11.33.22-2.04.76-4.27-.15-6.2-3.02-4.35-7.53,2.14-8.8,4.99-2.2,4.46-4.08,9.14-5.17,14.01-.1.47-.19.95-.29,1.43-.38.29-.75.57-1.12.85-3.56,2.45-6.2,4.2-9.82,5-1.85.52-1.12,3.4.8,2.89,3.16-.67,5.96-2.24,8.63-4.01.33-.22.65-.45.98-.68-.02.8.02,1.61.17,2.41.29,1.31,1.2,2.47,2.49,2.88,1.36.32,2.82.56,4.21.42,2-.32,3.88-1.07,5.72-1.91.04,1.08.64,2.01,1.85,2.56,1.45.75,3.07.17,4.43-.51,1.98-.85,3.85-2.02,5.48-3.46.27.74.75,1.39,1.52,1.85,2.62,1.66,5.83-.14,7.97-1.83.49-.38.95-.79,1.41-1.21-.02,3.31,1.37,5.37,6.07,3.43.22-.09.43-.21.65-.32-.12.32-.22.64-.34.96-3.27,2.32-6.03,5.46-7.44,9.22-.93,2.57-.96,5.38-1.12,8.08.07,3.01,0,6.65,1.61,9.27,2.31,2.02,3.78-.78,4.13-2.9,1.65-6.97,3.24-14.92,5.41-21.84.98-.66,1.93-1.16,2.73-1.4,1.96-.91,4.11-1.25,6.14-1.95.01.03.02.06.04.09,3.6,5.27,8.69,2.03,12.52-1.05,1.48-1.31,3.43-2.39,5.31-4.31,1.39.84,3.38.72,5.03.42-.03.06-.06.11-.1.18-.86,2.06-7.06,11.81-3.6,12.75,1.83.4,1.91-1.54,2.23-2.82.57-1.75.62-1.76,1.48-3.58.96-1.93,1.91-3.87,3.01-5.73,1.02-1.32,1.47-4.36-.9-4.35Zm-67.59-16.59c-.64.66.9-1.01,1.21-1.28.03-.02.05-.05.08-.07.02-.02.04-.02.07-.05.1-.05.24-.13.34-.18.16.55-.13,3.74-.24,4.07-.61,4.77-3.91,8.47-7.64,11.65,1.49-5.28,3.12-9.43,6.18-14.13Zm9.21,17.92c1.09-1.3,1.71-2.14,2.5-2.52.39-.2.77-.33,1.17-.4-.09.18-.26.43-.6.83-1.34,1.32-1.31,1.25-2.79,2.23-.23.12-.45.23-.68.35.13-.16.26-.31.4-.49Zm1.89,4.12c-1.82,1.43-4.27,2.58-5.45,2.9-.02,0-.02,0-.04,0-.03,0-.08,0-.14.01-.09-.02-.19-.04-.28-.08-.02,0-.02-.01-.04-.02-.01,0-.03-.02-.04-.03.14-.48.3-.95.46-1.42.01,0,.02-.01.04-.02,3.05-1.49,6.29-2.88,8.68-5.36-.06.19-.12.37-.19.53-.06.18-.11.36-.16.55-.98,1.28-2.18,2.48-2.83,2.91Zm16.7,17.05c-.62,2.26-1.43,6.07-2.07,8.81-.29-2.57-.36-8.69.98-11.75.37-1.21,1.44-2.73,2.8-4.19-.6,2.37-1.13,4.76-1.71,7.13Zm20.09-26.92c.71.89.93,2.11.14,4.48.07-.18.21-.41.03-.04,0,.01-.02.03-.03.05-.01.03-.02.06-.03.09,0-.03.02-.06.03-.09-.67,1.3-1.98,2.72-3.16,3.7.05-.54.13-1.12.26-1.77.58-3.37,1.84-5.96,2.76-6.41Z"/>
      <polygon class="cls-4" points="850.66 95.09 850.66 95.09 850.66 95.09 850.66 95.09"/>
    </g>
    <path class="cls-4" d="m736.13,133.46c-.46-.82-.99-1.61-1.7-2.24-2.97-2.68-6.49.57-8.23,3.31-.07-.24-.19-.46-.37-.63-.88-.94-2.6-.23-2.56,1.06-.02,1.41-.47,6.03-.48,5.87-.03,1.37-.81,3.09-.3,4.36.39.7,1.37.95,2.05.54.34-.23.53-.55.67-.9,0,0,0,0,.01,0,0-.02,0-.04,0-.06.29-.77.29-1.71.66-2.45,1.11-3.08,2.3-6.01,4.54-8.24.87-.68.89-.79,1.75-.82.02.01.04.02.06.03.03.02.05.04.09.08.81.8.47.41,1.21,1.61.48,1.45,2.53,1.63,2.99.08.16-.58-.09-1.11-.4-1.6Z"/>
    <g>
      <path class="cls-4" d="m798.64,190.36s0-.01,0-.01c0,.03,0,.06.01.08,0,.01.01.02.01.02,0-.02,0-.05-.02-.09Z"/>
      <path class="cls-4" d="m879.03,184.05s0-.02,0-.03c0-.05,0-.1,0-.15-.01.05-.02.11-.01.18Z"/>
      <path class="cls-4" d="m798.55,190.21s0,0,0-.01c0,0,0,0,0,0,0,0,0,0,0,.01,0,0,0,0,0,0Z"/>
      <path class="cls-4" d="m895.67,189.03c-.23.09-1.48.06-1.85.06-.03,0-.06-.01-.09-.02,0-.02,0-.05-.01-.08,0-.03,0-.1-.02-.22-.13-.5.59-1.71,1.34-3.21.96-1.27,1.65-4.21-.62-4.4-.81,0-1.38.69-1.98,1.14-1.94,1.48-2.82,2.47-4.27,3.43.43-1.38.9-2.75,1.2-4.16.22-.9.56-1.83.3-2.75-.23-.92-1.36-1.69-2.27-1.25-.97.54-1.58,1.62-2.39,2.37-1.02,1.17-2.08,2.13-3.09,2.91-.67-2.37-3.62-3.92-5.91-2.72-1.23.57-2.12,1.76-2.49,3.06-.05-.02-.09-.05-.15-.06-1.01-.15-1.88.53-2.57,1.53-.16.18-.33.38-.54.62-1.35,1.36-2.49,2.39-3.47,2.92.04-.19.09-.36.13-.44.85-2.41,3.19-6.78-.87-7.44-.07-.01-.13-.04-.19-.05.04-.38.05-.76,0-1.16-.56-1.84-3.02-1.35-3.27.42-.14.51-.13,1,0,1.44-1.24,2.59-5.7,5.73-9.26,8.4.12-.3.24-.6.36-.89,1.73-3.56,3.96-9.27,6.36-14.52.13-.2.25-.4.38-.59,1.09-1.95,2.23-3.88,3.11-5.94.46-.84.92-2.02-.04-2.69-2.04-1.32-3.04,1.88-3.9,3.2-.74,1.41-1.41,2.87-2.05,4.33-2.33,3.95-4.8,7.7-7.43,10.47-.51.56-1.12,1.1-1.79,1.6.13-1.22-.1-2.43-.88-3.46-1.76-1.69-4.38-.2-6.91,2.19-.5-.9-1.63-1.35-2.61-.42-.48.67-.78,1.5-1.02,2.38-1.28,1.46-3.08,2.84-4.87,3.92-1.8.87-2.98,1.15-4.04.37,2.41-1.73,4.53-3.88,5.77-6.58.88-2.98-2.98-3.34-4.82-2.05-1.91,1.2-3.4,3.15-4.19,5.25-.15.67-.27,1.39-.29,2.11-1.46.89-2.85,1.58-4.04,1.94,0,0-.01,0-.02,0-.04,0-.09,0-.18,0-.01,0-.03,0-.04,0-.07-.02-.18-.05-.32-.08.12-.36.4-1.3.51-1.54.1-.33.36-.89.68-1.55,1.78-1.45,3.24-3.18,3.51-5.59.15-1.15-.93-2.32-2.11-2-1.27.26-1.66,1.75-2.31,2.7-.5.99-1.02,1.99-1.5,2.99-1.56,1.09-4.84,3.4-7.3,4.91.64-1.62,1.63-3.73,2.76-5.35,2.26-3.11,1.81-5.86-2.54-5.45-1.3-.05-1.31,0-1.95-.16-.87-.44-2.07-.11-2.33.9.11,3.9-3.27,8.15-6.68,10.36-.11.09-.39.22-.53.28-.12.04-.25.07-.35.09-.12,0-.26,0-.38-.01-.21-.04-.42-.11-.63-.18-.04-.02-.08-.04-.13-.06,0-.07,0-.14,0-.21-.05-1.37.21-2.46.62-3.6,1.08-.23,2.1-.59,2.92-1.37,1.04-1.06,1.56-2.52,1.8-3.96.13-.8.23-1.67-.23-2.39-.66-1.01-2.18-1.23-3.14-.52-2.12,1.69-2.74,3.84-3.44,5.46-.02.04-.04.09-.05.13-1.08.18-2,.27-3.16.38.42-1.51.57-3.09.39-4.65-.13-1.31-.84-3.26-2.44-3.1-1.87.58-2.89,2.59-4.14,3.99-.55.63-1.02,1.24-1.47,1.86.71-1.24,1.02-2.83.47-4.05-.39-.7-1.37-.96-2.05-.54-.72.49-1.06,1.42-1.22,2.25-.04.41-.08.84-.13,1.26-.15.15-.3.29-.4.38-2.38,1.79-5.28,3.4-6.25,3.49-1.47.53-1.02,2.93.58,2.87,2.08-.37,3.93-1.47,5.68-2.71-.14,1.37-.29,2.78-.45,4.2-.32.77-.64,1.56-.98,2.37-2.36,5.74-4.95,11.6-5.59,17.82-.32,1.66,1.14,3.61,2.86,2.5,2.03-1.45,2.63-3.97,3.48-6.18,1.88-4.8,2.42-9.97,3.04-15.07.39.22.8.4,1.21.53,2.07.52,4-.85,5.09-2.51.38-.5.72-1.03,1.03-1.58,1.1-.09,2.24-.19,3.33-.33-.42,1.57-.59,3.19-.04,4.74.87,1.48,2.88,2.02,4.5,1.74,2.32-.58,4.06-2.46,5.71-4.09,1.52-1.77,2.86-3.76,3.68-5.96.14-.31.23-.87.3-1.4.61.05,1.24.05,1.85.07.04,0,.1,0,.16,0-.17.32-.41.7-.86,1.35-1.11,2.04-6.5,10.6-1.48,10.45,2.63-.66,4.82-2.57,7.08-4.05-.15,1.67.91,2.96,2.86,3.16,1.97.27,3.76-.99,5.46-1.83.07-.04.14-.08.2-.12,1.82,1.98,4.6,2.23,6.96,1.09.43-.16.84-.36,1.23-.57-.07.1-.14.19-.2.27-1.97,2.92-3.67,6.03-5.01,9.29-.86,2.13-1.87,4.38-1.67,6.73-.16,1.43,1.49,2.45,2.58,1.39,2.38-1.7,3.8-4.35,5.06-6.92,1.35-2.85,2.46-5.8,3.4-8.81.04.01.08.03.11.04,1.07.27,2.13-.21,3.06-.7,1.57-.8,2.96-1.9,4.29-3.05.09-.07.19-.16.28-.23,1.24-.61,2.43-1.29,3.61-2,1.04-.72,1.98-1.54,2.87-2.42-.36.81-.73,1.61-1.08,2.41-.6,1.5-1.31,3.01-1.41,4.64-.05.54.11,1.14.58,1.46,1.41.99,3.04-.14,4.12-1.12.36-.3,4.73-3.49,6.24-4.8,1.58-1.26,3.35-2.76,4.44-4.55.16.05.33.09.5.12-.1.38-.25.76-.36,1.14-.64,1.93-1.95,4.11-1.15,6.15,1.24,1.76,3.51.93,5.11-.15.05,2.47,2.77,3.67,4.96,2.8,2.6-.8,5.52-3.36,7.07-6.13.8-.41,1.55-.89,2.22-1.38.89-.67,1.72-1.42,2.52-2.19-.53,1.58-1.09,3.16-1.15,4.81.82,2.81,3.76,1.18,6.35-.84-.3,1.07-.33,2.17.24,3.21.93,1.67,3.09,1.54,4.73,1.36,1.11-.15,2.8-.09,2.96-1.52.07-2.47-2.61-1.44-3.18-1.45Zm-104.23-8.42c.03,1.21-.28,2.6-.78,3.86-.75.06-1.59.12-2.44.24.98-1.44,1.93-2.66,3.22-4.1Zm-4.85,7.54c.53-.21,1.27-.36,2.17-.48-.78.82-1.58,1.12-2.17.48Zm58.71-4.85c.05.7-.06,1.92-.8,2.89-.22.26-.49.56-.8.86-.46.21-.91.41-1.3.57-.82.34-1.8.53-2.75.77,1.9-2.19,3.85-3.97,5.64-5.1Zm31.19.34c.32-.65,1.38-1.33,2.13-.57.06.1.1.14.13.16.11.18.23.39.28.48,0,.06,0,.11,0,.17,0-.03.01-.05.02-.07,0,.04,0,.07.01.09,0,.03-.02.06-.03.11,0,0,0,.02,0,.03,0,.03,0,.06,0,.09,0-.02,0-.04,0-.06-.06.22-.13.44-.22.65-1.88.76-3.01.43-2.31-1.08Zm-3.97,6.8c-.05,0-.09.01-.12.02-.13,0-.26,0-.35,0,0,0,0,0-.01,0-.03-.03-.06-.05-.08-.08,0-.03-.02-.06-.02-.08-.04-1.12.69-2.81,1.24-3.74.16-.17.32-.35.48-.52.25.56.65,1.06,1.23,1.45.51.28,1.03.45,1.57.53-.07.07-.13.15-.2.22-1.62,1.4-1.75,1.68-3.74,2.2Z"/>
      <path class="cls-4" d="m798.49,190.16s0,0,0,0c0,0,0,.01.01.02,0,0,0,0,0-.01Z"/>
    </g>
    <path class="cls-4" d="m869.52,173.78c-2.72.27-5.46.26-8.19.41-3.79.15-7.58.25-11.35.65-1.16.18-2.48.16-3.49.8-1.31.9-.21,3.1,1.31,2.62,4.34-1.06,11.21-.86,16.9-1.21,1.61-.07,3.22-.08,4.82-.27.4,0,.78-.16,1.06-.44.94-.88.23-2.6-1.06-2.56Z"/>
    <path class="cls-4" d="m829.72,138.46c-.47-.71-1.21-1.49-2.14-1.2-1.22.29-1.45,2.01-.45,2.67,0,0,0,0,0,0-.07-.05-.14-.1-.16-.12.06.05.11.12.16.18.01.03.03.06.05.08,0,.01,0,.02,0,.03,0,.01,0,.02,0,.03,0,.05-.01.1-.02.13-.11.61-.25,1.21-.48,1.78-.22.39-.71,1.27-.88,1.47-.03.04-.04.05-.06.08-.11.13-.22.27-.34.39-1.16,1.14-1.78,1.49-2,1.56-.57-.03-.3.25-1.47-.44,0,0-.02-.02-.03-.03-.02-.06-.03-.13-.05-.19-.01-.24-.09-1.18-.02-1.43-.07-.58.72-2.4,1.11-3.49.26-1.36-1.59-2.27-2.53-1.26-1.68,1.79-2.89,2.69-4.26,3.66-1.01.64-1.96,1.4-3.01,1.97.16-.6.45-1.72.58-2.02.3-.95.65-1.88,1.04-2.79.02-.04.05-.1.11-.24.03-.05.04-.08.06-.12.96-.47,1.9-1.39,1.6-2.54-.85-2.06-2.94-1.16-3.84.35-2.28,1.19-4.73,1.97-6.84,2.31.03-.41.01-.82-.11-1.22-1.08-3.6-5.83-4.19-7.59-1.06-1.33.88-1.81,2.73-2.46,4.12-.27.94-.59,2.07-.67,3.17-2.62,2.05-6,4-7.83,4.25.36-1.42,1.4-4.31,2.8-6.18,1.25-2.05,2.43-4.15,3.54-6.28,1.1-1.88-.1-3.17-2.1-2.91-.7-1.04-2.13-.97-3.28-.27-1.83.87-3.78,1.7-5.26,3.12-1.37,1.39.72,3.49,2.12,2.12.45-.57,2.65-1.73,4.42-2.55.22.19.48.34.76.44-2.21,4.08-5.2,7.82-6.04,12.47-.4,1.04.3,3.19,2.93,3.1,2.39-.32,5.92-2.04,8.9-4.21.09.09.19.18.31.26,3.24,1.5,6.34-1.31,8.13-3.79.31-.43.53-.91.71-1.41,1.87-.19,3.74-.72,5.34-1.25.18-.07.36-.15.54-.22-.14.43-.28.86-.41,1.29-.34,1.19-.77,2.48-.47,3.72.97,2.47,3.81,1.64,5.47.4,1.09-.75,2.17-1.49,3.23-2.28-.02.99.11,1.98.7,2.77,1.54,1.92,4.69,2.29,6.5.54,2.47-1.73,5.21-5.96,3.71-8.96Zm-28.22.71c-.02-.11-.03-.23-.07-.33-.08-.24-.19-.47-.33-.7.03-.02.06-.04.09-.05.16-.06.32-.09.48-.12.07,0,.14,0,.21,0,.02,0,.04,0,.06.02.02,0,.02,0,.03.01.15.07.3.16.44.26.03.03.06.06.1.1.07.11.22.34.32.53,0,.03.02.06.03.1,0,.09,0,.18-.02.27-.01.07-.02.13-.03.2-.51-.05-.96-.14-1.33-.28Zm-2.56,5.74c.92-.93,1.65-1.86,2.11-2.76.25.08.51.14.77.2-1.47,1.63-2.03,2.32-2.89,2.57Z"/>
    <path class="cls-2" d="m745.94,188.69c-.23-1.68-.45-3.37-.68-5.05-.9-3.22-2.53-6.01-4.88-8.38-1.28-.99-2.56-1.98-3.84-2.97-2.96-1.72-6.16-2.58-9.58-2.59-2.61-.1-5.05.45-7.32,1.64-4.57,1.53-8.51,5.47-10.04,10.04-1.19,2.26-1.73,4.7-1.64,7.32l.68,5.05c.9,3.22,2.53,6.01,4.88,8.38,1.28.99,2.56,1.98,3.84,2.97,2.96,1.72,6.16,2.58,9.58,2.59,2.61.1,5.05-.45,7.32-1.64,4.57-1.53,8.51-5.47,10.04-10.04,1.19-2.26,1.73-4.7,1.64-7.32Z"/>
  </g>
</svg>