<?xml version="1.0" encoding="UTF-8"?>
<svg xmlns="http://www.w3.org/2000/svg" viewBox="0 0 734.37 536.73">
  <defs>
    <style>
      .cls-1 {
        fill: #ffdb96;
      }

      .cls-2 {
        fill: #9cc5e9;
      }

      .cls-3 {
        fill: #a4dce7;
      }

      .cls-4 {
        fill: #231f20;
      }

      .cls-5 {
        stroke: #231f20;
      }

      .cls-5, .cls-6 {
        fill: none;
        stroke-miterlimit: 10;
        stroke-width: 4px;
      }

      .cls-6 {
        stroke: #010101;
      }
    </style>
  </defs>
  <g id="Layer_2" data-name="Layer 2">
    <line class="cls-6" x1="531.85" y1="37.52" x2="207.85" y2="37.52"/>
    <line class="cls-6" x1="703.87" y1="160.36" x2="207.85" y2="160.36"/>
    <line class="cls-6" x1="703.87" y1="286.69" x2="207.85" y2="286.69"/>
    <line class="cls-6" x1="539.88" y1="398.52" x2="207.85" y2="398.52"/>
    <line class="cls-6" x1="37.52" y1="122.83" x2="171.68" y2="47.49"/>
    <line class="cls-6" x1="75.02" y1="344.25" x2="171.68" y2="47.49"/>
    <line class="cls-6" x1="75.02" y1="223.52" x2="170.35" y2="163.86"/>
    <line class="cls-6" x1="75.02" y1="223.52" x2="170.35" y2="281.19"/>
    <line class="cls-6" x1="171.68" y1="393.02" x2="75.02" y2="344.25"/>
    <line class="cls-6" x1="75.02" y1="106.19" x2="170.35" y2="163.86"/>
    <line class="cls-6" x1="75.02" y1="344.25" x2="170.35" y2="281.19"/>
    <line class="cls-6" x1="75.02" y1="223.52" x2="171.68" y2="47.49"/>
    <line class="cls-6" x1="75.02" y1="106.19" x2="171.68" y2="393.02"/>
    <line class="cls-6" x1="659.35" y1="160.36" x2="569.35" y2="37.52"/>
    <line class="cls-6" x1="659.35" y1="286.69" x2="569.35" y2="398.52"/>
    <line class="cls-6" x1="659.35" y1="160.36" x2="569.37" y2="286.69"/>
    <line class="cls-6" x1="657.09" y1="289.49" x2="569.37" y2="160.36"/>
    <line class="cls-6" x1="571.47" y1="40.42" x2="659.35" y2="286.69"/>
    <line class="cls-6" x1="569.35" y1="398.52" x2="659.35" y2="160.36"/>
    <line class="cls-6" x1="404.37" y1="160.36" x2="494.35" y2="37.52"/>
    <line class="cls-6" x1="494.35" y1="286.69" x2="404.37" y2="160.36"/>
    <line class="cls-6" x1="494.35" y1="398.52" x2="404.35" y2="163.86"/>
    <line class="cls-6" x1="494.35" y1="286.69" x2="404.35" y2="398.52"/>
    <line class="cls-6" x1="494.35" y1="37.52" x2="404.35" y2="398.52"/>
    <line class="cls-6" x1="494.32" y1="160.36" x2="404.35" y2="398.52"/>
    <line class="cls-6" x1="404.37" y1="40.42" x2="494.32" y2="160.36"/>
    <line class="cls-6" x1="494.35" y1="286.69" x2="404.37" y2="40.42"/>
    <line class="cls-6" x1="491.32" y1="390.65" x2="404.37" y2="40.42"/>
    <line class="cls-6" x1="404.37" y1="286.69" x2="494.32" y2="160.36"/>
    <line class="cls-6" x1="494.35" y1="398.52" x2="404.37" y2="286.69"/>
    <line class="cls-6" x1="491.32" y1="47.49" x2="404.37" y2="286.69"/>
  </g>
  <g id="Layer_1" data-name="Layer 1">
    <path class="cls-2" d="m75.02,344.25c-.45-3.32-.89-6.65-1.34-9.97-1.78-6.35-5-11.87-9.64-16.55-2.53-1.95-5.06-3.91-7.59-5.86-5.85-3.39-12.16-5.1-18.93-5.12-5.16-.19-9.98.88-14.45,3.23-8.97,2.98-16.84,10.85-19.82,19.82-2.35,4.47-3.42,9.29-3.23,14.45.45,3.32.89,6.65,1.34,9.97,1.78,6.35,5,11.87,9.64,16.55,2.53,1.95,5.06,3.91,7.59,5.86,5.85,3.39,12.16,5.1,18.93,5.12,5.16.19,9.98-.88,14.45-3.23,8.97-2.98,16.84-10.85,19.82-19.82,2.35-4.47,3.42-9.29,3.23-14.45Z"/>
    <path class="cls-2" d="m75.02,223.52c-.45-3.32-.89-6.65-1.34-9.97-1.78-6.35-5-11.87-9.64-16.55-2.53-1.95-5.06-3.91-7.59-5.86-5.85-3.39-12.16-5.1-18.93-5.12-5.16-.19-9.98.88-14.45,3.23-8.97,2.98-16.84,10.85-19.82,19.82-2.35,4.47-3.42,9.29-3.23,14.45.45,3.32.89,6.65,1.34,9.97,1.78,6.35,5,11.87,9.64,16.55,2.53,1.95,5.06,3.91,7.59,5.86,5.85,3.39,12.16,5.1,18.93,5.12,5.16.19,9.98-.88,14.45-3.23,8.97-2.98,16.84-10.85,19.82-19.82,2.35-4.47,3.42-9.29,3.23-14.45Z"/>
    <path class="cls-2" d="m75.02,106.19c-.45-3.32-.89-6.65-1.34-9.97-1.78-6.35-5-11.87-9.64-16.55-2.53-1.95-5.06-3.91-7.59-5.86-5.85-3.39-12.16-5.1-18.93-5.12-5.16-.19-9.98.88-14.45,3.23-8.97,2.98-16.84,10.85-19.82,19.82C.9,96.21-.17,101.03.02,106.19c.45,3.32.89,6.65,1.34,9.97,1.78,6.35,5,11.87,9.64,16.55l7.59,5.86c5.85,3.39,12.16,5.1,18.93,5.12,5.16.19,9.98-.88,14.45-3.23,8.97-2.98,16.84-10.85,19.82-19.82,2.35-4.47,3.42-9.29,3.23-14.45Z"/>
    <path class="cls-3" d="m245.35,37.52c-.45-3.32-.89-6.65-1.34-9.97-1.78-6.35-5-11.87-9.64-16.55-2.53-1.95-5.06-3.91-7.59-5.86C220.92,1.75,214.61.04,207.85.02c-5.16-.19-9.98.88-14.45,3.23-8.97,2.98-16.84,10.85-19.82,19.82-2.35,4.47-3.42,9.29-3.23,14.45.45,3.32.89,6.65,1.34,9.97,1.78,6.35,5,11.87,9.64,16.55,2.53,1.95,5.06,3.91,7.59,5.86,5.85,3.39,12.16,5.1,18.93,5.12,5.16.19,9.98-.88,14.45-3.23,8.97-2.98,16.84-10.85,19.82-19.82,2.35-4.47,3.42-9.29,3.23-14.45Z"/>
    <path class="cls-3" d="m245.35,163.86c-.45-3.32-.89-6.65-1.34-9.97-1.78-6.35-5-11.87-9.64-16.55-2.53-1.95-5.06-3.91-7.59-5.86-5.85-3.39-12.16-5.1-18.93-5.12-5.16-.19-9.98.88-14.45,3.23-8.97,2.98-16.84,10.85-19.82,19.82-2.35,4.47-3.42,9.29-3.23,14.45.45,3.32.89,6.65,1.34,9.97,1.78,6.35,5,11.87,9.64,16.55,2.53,1.95,5.06,3.91,7.59,5.86,5.85,3.39,12.16,5.1,18.93,5.12,5.16.19,9.98-.88,14.45-3.23,8.97-2.98,16.84-10.85,19.82-19.82,2.35-4.47,3.42-9.29,3.23-14.45Z"/>
    <path class="cls-3" d="m245.35,281.19c-.45-3.32-.89-6.65-1.34-9.97-1.78-6.35-5-11.87-9.64-16.55-2.53-1.95-5.06-3.91-7.59-5.86-5.85-3.39-12.16-5.1-18.93-5.12-5.16-.19-9.98.88-14.45,3.23-8.97,2.98-16.84,10.85-19.82,19.82-2.35,4.47-3.42,9.29-3.23,14.45.45,3.32.89,6.65,1.34,9.97,1.78,6.35,5,11.87,9.64,16.55,2.53,1.95,5.06,3.91,7.59,5.86,5.85,3.39,12.16,5.1,18.93,5.12,5.16.19,9.98-.88,14.45-3.23,8.97-2.98,16.84-10.85,19.82-19.82,2.35-4.47,3.42-9.29,3.23-14.45Z"/>
    <path class="cls-3" d="m245.35,398.52c-.45-3.32-.89-6.65-1.34-9.97-1.78-6.35-5-11.87-9.64-16.55-2.53-1.95-5.06-3.91-7.59-5.86-5.85-3.39-12.16-5.1-18.93-5.12-5.16-.19-9.98.88-14.45,3.23-8.97,2.98-16.84,10.85-19.82,19.82-2.35,4.47-3.42,9.29-3.23,14.45.45,3.32.89,6.65,1.34,9.97,1.78,6.35,5,11.87,9.64,16.55,2.53,1.95,5.06,3.91,7.59,5.86,5.85,3.39,12.16,5.1,18.93,5.12,5.16.19,9.98-.88,14.45-3.23,8.97-2.98,16.84-10.85,19.82-19.82,2.35-4.47,3.42-9.29,3.23-14.45Z"/>
    <path class="cls-3" d="m404.35,37.52c-.45-3.32-.89-6.65-1.34-9.97-1.78-6.35-5-11.87-9.64-16.55-2.53-1.95-5.06-3.91-7.59-5.86C379.92,1.75,373.61.04,366.85.02c-5.16-.19-9.98.88-14.45,3.23-8.97,2.98-16.84,10.85-19.82,19.82-2.35,4.47-3.42,9.29-3.23,14.45.45,3.32.89,6.65,1.34,9.97,1.78,6.35,5,11.87,9.64,16.55,2.53,1.95,5.06,3.91,7.59,5.86,5.85,3.39,12.16,5.1,18.93,5.12,5.16.19,9.98-.88,14.45-3.23,8.97-2.98,16.84-10.85,19.82-19.82,2.35-4.47,3.42-9.29,3.23-14.45Z"/>
    <path class="cls-3" d="m404.35,163.86c-.45-3.32-.89-6.65-1.34-9.97-1.78-6.35-5-11.87-9.64-16.55-2.53-1.95-5.06-3.91-7.59-5.86-5.85-3.39-12.16-5.1-18.93-5.12-5.16-.19-9.98.88-14.45,3.23-8.97,2.98-16.84,10.85-19.82,19.82-2.35,4.47-3.42,9.29-3.23,14.45.45,3.32.89,6.65,1.34,9.97,1.78,6.35,5,11.87,9.64,16.55,2.53,1.95,5.06,3.91,7.59,5.86,5.85,3.39,12.16,5.1,18.93,5.12,5.16.19,9.98-.88,14.45-3.23,8.97-2.98,16.84-10.85,19.82-19.82,2.35-4.47,3.42-9.29,3.23-14.45Z"/>
    <path class="cls-3" d="m404.35,281.19c-.45-3.32-.89-6.65-1.34-9.97-1.78-6.35-5-11.87-9.64-16.55-2.53-1.95-5.06-3.91-7.59-5.86-5.85-3.39-12.16-5.1-18.93-5.12-5.16-.19-9.98.88-14.45,3.23-8.97,2.98-16.84,10.85-19.82,19.82-2.35,4.47-3.42,9.29-3.23,14.45.45,3.32.89,6.65,1.34,9.97,1.78,6.35,5,11.87,9.64,16.55,2.53,1.95,5.06,3.91,7.59,5.86,5.85,3.39,12.16,5.1,18.93,5.12,5.16.19,9.98-.88,14.45-3.23,8.97-2.98,16.84-10.85,19.82-19.82,2.35-4.47,3.42-9.29,3.23-14.45Z"/>
    <path class="cls-3" d="m404.35,398.52c-.45-3.32-.89-6.65-1.34-9.97-1.78-6.35-5-11.87-9.64-16.55-2.53-1.95-5.06-3.91-7.59-5.86-5.85-3.39-12.16-5.1-18.93-5.12-5.16-.19-9.98.88-14.45,3.23-8.97,2.98-16.84,10.85-19.82,19.82-2.35,4.47-3.42,9.29-3.23,14.45.45,3.32.89,6.65,1.34,9.97,1.78,6.35,5,11.87,9.64,16.55,2.53,1.95,5.06,3.91,7.59,5.86,5.85,3.39,12.16,5.1,18.93,5.12,5.16.19,9.98-.88,14.45-3.23,8.97-2.98,16.84-10.85,19.82-19.82,2.35-4.47,3.42-9.29,3.23-14.45Z"/>
    <path class="cls-3" d="m569.35,37.52c-.45-3.32-.89-6.65-1.34-9.97-1.78-6.35-5-11.87-9.64-16.55-2.53-1.95-5.06-3.91-7.59-5.86-5.85-3.39-12.16-5.1-18.93-5.12-5.16-.19-9.98.88-14.45,3.23-8.97,2.98-16.84,10.85-19.82,19.82-2.35,4.47-3.42,9.29-3.23,14.45.45,3.32.89,6.65,1.34,9.97,1.78,6.35,5,11.87,9.64,16.55,2.53,1.95,5.06,3.91,7.59,5.86,5.85,3.39,12.16,5.1,18.93,5.12,5.16.19,9.98-.88,14.45-3.23,8.97-2.98,16.84-10.85,19.82-19.82,2.35-4.47,3.42-9.29,3.23-14.45Z"/>
    <path class="cls-3" d="m569.35,163.86c-.45-3.32-.89-6.65-1.34-9.97-1.78-6.35-5-11.87-9.64-16.55-2.53-1.95-5.06-3.91-7.59-5.86-5.85-3.39-12.16-5.1-18.93-5.12-5.16-.19-9.98.88-14.45,3.23-8.97,2.98-16.84,10.85-19.82,19.82-2.35,4.47-3.42,9.29-3.23,14.45.45,3.32.89,6.65,1.34,9.97,1.78,6.35,5,11.87,9.64,16.55,2.53,1.95,5.06,3.91,7.59,5.86,5.85,3.39,12.16,5.1,18.93,5.12,5.16.19,9.98-.88,14.45-3.23,8.97-2.98,16.84-10.85,19.82-19.82,2.35-4.47,3.42-9.29,3.23-14.45Z"/>
    <path class="cls-3" d="m569.35,281.19c-.45-3.32-.89-6.65-1.34-9.97-1.78-6.35-5-11.87-9.64-16.55-2.53-1.95-5.06-3.91-7.59-5.86-5.85-3.39-12.16-5.1-18.93-5.12-5.16-.19-9.98.88-14.45,3.23-8.97,2.98-16.84,10.85-19.82,19.82-2.35,4.47-3.42,9.29-3.23,14.45.45,3.32.89,6.65,1.34,9.97,1.78,6.35,5,11.87,9.64,16.55,2.53,1.95,5.06,3.91,7.59,5.86,5.85,3.39,12.16,5.1,18.93,5.12,5.16.19,9.98-.88,14.45-3.23,8.97-2.98,16.84-10.85,19.82-19.82,2.35-4.47,3.42-9.29,3.23-14.45Z"/>
    <path class="cls-3" d="m569.35,398.52c-.45-3.32-.89-6.65-1.34-9.97-1.78-6.35-5-11.87-9.64-16.55-2.53-1.95-5.06-3.91-7.59-5.86-5.85-3.39-12.16-5.1-18.93-5.12-5.16-.19-9.98.88-14.45,3.23-8.97,2.98-16.84,10.85-19.82,19.82-2.35,4.47-3.42,9.29-3.23,14.45.45,3.32.89,6.65,1.34,9.97,1.78,6.35,5,11.87,9.64,16.55,2.53,1.95,5.06,3.91,7.59,5.86,5.85,3.39,12.16,5.1,18.93,5.12,5.16.19,9.98-.88,14.45-3.23,8.97-2.98,16.84-10.85,19.82-19.82,2.35-4.47,3.42-9.29,3.23-14.45Z"/>
    <path class="cls-1" d="m734.35,160.36c-.45-3.32-.89-6.65-1.34-9.97-1.78-6.35-5-11.87-9.64-16.55-2.53-1.95-5.06-3.91-7.59-5.86-5.85-3.39-12.16-5.1-18.93-5.12-5.16-.19-9.98.88-14.45,3.23-8.97,2.98-16.84,10.85-19.82,19.82-2.35,4.47-3.42,9.29-3.23,14.45.45,3.32.89,6.65,1.34,9.97,1.78,6.35,5,11.87,9.64,16.55,2.53,1.95,5.06,3.91,7.59,5.86,5.85,3.39,12.16,5.1,18.93,5.12,5.16.19,9.98-.88,14.45-3.23,8.97-2.98,16.84-10.85,19.82-19.82,2.35-4.47,3.42-9.29,3.23-14.45Z"/>
    <path class="cls-1" d="m734.35,286.69c-.45-3.32-.89-6.65-1.34-9.97-1.78-6.35-5-11.87-9.64-16.55-2.53-1.95-5.06-3.91-7.59-5.86-5.85-3.39-12.16-5.1-18.93-5.12-5.16-.19-9.98.88-14.45,3.23-8.97,2.98-16.84,10.85-19.82,19.82-2.35,4.47-3.42,9.29-3.23,14.45.45,3.32.89,6.65,1.34,9.97,1.78,6.35,5,11.87,9.64,16.55,2.53,1.95,5.06,3.91,7.59,5.86,5.85,3.39,12.16,5.1,18.93,5.12,5.16.19,9.98-.88,14.45-3.23,8.97-2.98,16.84-10.85,19.82-19.82,2.35-4.47,3.42-9.29,3.23-14.45Z"/>
    <line class="cls-6" x1="329.42" y1="160.36" x2="245.35" y2="37.52"/>
    <line class="cls-6" x1="329.35" y1="37.52" x2="245.37" y2="160.36"/>
    <line class="cls-6" x1="329.35" y1="286.69" x2="245.37" y2="160.36"/>
    <line class="cls-6" x1="245.35" y1="398.52" x2="329.35" y2="286.69"/>
    <line class="cls-6" x1="329.35" y1="398.52" x2="245.37" y2="286.69"/>
    <line class="cls-6" x1="329.42" y1="160.36" x2="245.37" y2="286.69"/>
    <line class="cls-6" x1="329.35" y1="286.69" x2="245.35" y2="37.52"/>
    <line class="cls-6" x1="329.35" y1="37.52" x2="245.35" y2="398.52"/>
    <line class="cls-6" x1="245.37" y1="286.69" x2="329.35" y2="37.52"/>
    <line class="cls-6" x1="245.37" y1="160.36" x2="329.35" y2="398.52"/>
    <line class="cls-6" x1="329.42" y1="160.36" x2="245.35" y2="398.52"/>
    <line class="cls-6" x1="247.33" y1="40.42" x2="329.35" y2="398.52"/>
    <line class="cls-5" x1="75.02" y1="223.52" x2="171.68" y2="393.02"/>
    <line class="cls-5" x1="75.02" y1="344.25" x2="170.35" y2="163.86"/>
    <line class="cls-5" x1="75.02" y1="106.19" x2="170.35" y2="281.19"/>
    <g>
      <path class="cls-4" d="m239.62,511.62c-1.57.77-2.75,2.23-4.17,3.25-2.03,1.81-5.88,4.5-7.43,5.2-1.7.49-3.24.19-4.58-1.43-2.41-3.25-5.37-9.74-5.98-15.75-.51-3.73-.63-11.07-1.75-16.49-.44-2.87-1.08-5.91-3.07-8.14-3.6-3.76-11.36-6.28-16.42-5.04-2.62,1.16-5.14,2.53-7.75,3.73-.91.47-2.12.78-2.39,1.9-.51,1.66,1.46,3.18,2.94,2.26,2.76-1.33,5.52-2.66,8.26-4.03-.24.11-.13.02.15-.07.03-.01.06-.03.09-.04-.03.02-.05.03-.08.04.07-.02.14-.04.22-.06.11-.03.21-.06.29-.08.08,0,.15-.01.23-.01,3.78.08,6.68.81,10.02,2.83,1.98,1.34,2.66,2.38,3.44,6.42,1.23,6.09,1.13,10.24,1.84,16.9.61,5.53,2.42,10.85,5.23,15.65,1.96,3.8,5.43,6.39,9.86,5.42,4.96-1.81,8.79-5.81,12.88-9.01,1.65-1.32.23-4.03-1.8-3.46Z"/>
      <path class="cls-4" d="m197.27,477.1s.09-.04.15-.07c0,0,0,0,0,0-.05.02-.1.05-.15.07Z"/>
    </g>
    <path class="cls-4" d="m232.4,468.15c-7.94,12.38-15.17,25.18-22.68,37.82-5.17,8.53-10.26,17.11-15.37,25.67-.36.53-.64,1.1-.98,1.64-2.26,2.13,1.5,5.23,3.39,2.14,8.94-15.09,18.06-30.09,26.9-45.25,3.91-6.76,7.99-13.42,12.19-20.01,1.28-2.25-2.06-4.28-3.45-2.02Z"/>
    <line class="cls-5" x1="267.36" y1="498.6" x2="531.85" y2="498.6"/>
    <path class="cls-4" d="m541.8,498.67c-1.01-.76-1.09-.53-1.46-.58,0,0,0,0,0,0-.05,0-.11-.02-.18-.04-.46-.01-.41-.16-1.17-.09-.7-.09-1.53-.25-2.85-.74-5.31-2.14-12.02-7.42-15.23-13.38-1.35-2.24-4.74-.28-3.45,2.02,1.72,3.1,3.91,5.88,6.65,8.16,2.86,2.46,5.85,4.89,9.34,6.39-2.68,1.52-5.25,3.27-7.85,4.86-1.45,1.02-3,1.92-4.4,3.01-.64.51-1.38,1.14-1.44,2.01-.37,2.09,2.56,3.07,3.63,1.37.05-.05.11-.11.2-.19.31-.32,3.81-2.58,5.62-3.77,3.07-1.91,7.9-4.92,9.95-5.72,1.09.15,2.38.23,2.98-.89.45-.76.33-1.82-.32-2.43Z"/>
    <path class="cls-4" d="m587.27,491.93c-.17-.08-.39-.22-.54-.33-2.35-1.92-4.43-4.15-6.35-6.5-2.62-3.1-6.64-9.55-9.95-14.17-1.64-1.38-4.06.75-2.94,2.58,2.89,4.48,14.46,22.75,19.62,22.22,1.83-.45,1.95-3.2.16-3.81Z"/>
    <path class="cls-4" d="m599.08,471.46c-.82-1.49-3.25-1.19-3.66.48-3.36,9.15-8.68,21.85-11.48,29.1-3.58,9.06-9.03,17.61-10.36,27.38-.37,1.23.64,2.55,1.93,2.53,1.72,0,2.06-1.66,2.17-3.05,1.72-9.12,6.04-15.65,9.68-24.77,3.1-7.67,6.14-15.36,9.22-23.03.96-2.34,1.84-4.72,2.71-7.1.14-.52.07-1.08-.2-1.54Z"/>
  </g>
</svg>